<svg width="69" height="59" viewBox="0 0 69 59" fill="none" xmlns="http://www.w3.org/2000/svg">
<g clip-path="url(#clip0_5455_25589)">
<path fill-rule="evenodd" clip-rule="evenodd" d="M1.33914 52.3942H2.01876C2.16036 52.3774 2.30392 52.3913 2.43967 52.435C2.57543 52.4787 2.7002 52.5512 2.8055 52.6476C2.91081 52.744 2.99417 52.8619 3.04993 52.9934C3.1057 53.125 3.13257 53.267 3.12869 53.4098C3.13881 53.5565 3.11825 53.7037 3.06832 53.842C3.01839 53.9803 2.94018 54.1066 2.83872 54.2129C2.73726 54.3191 2.61479 54.4029 2.47913 54.459C2.34347 54.515 2.19762 54.542 2.05093 54.5383H1.33914V52.3942ZM1.33914 55.554H2.06299C2.21509 55.5513 2.36622 55.5787 2.50775 55.6346C2.64927 55.6905 2.77842 55.7738 2.88784 55.8797C2.99725 55.9856 3.08478 56.1121 3.14543 56.2519C3.20607 56.3917 3.23865 56.5421 3.24129 56.6946C3.24393 56.847 3.21658 56.9984 3.16082 57.1403C3.10505 57.2821 3.02195 57.4116 2.91627 57.5212C2.81059 57.6309 2.6844 57.7186 2.5449 57.7794C2.40539 57.8401 2.2553 57.8728 2.10321 57.8754H1.33914V55.554ZM0 58.9354H2.30027C3.63539 58.9354 4.64074 58.1858 4.64074 56.8114C4.67055 56.3864 4.54121 55.9654 4.27798 55.6308C4.01475 55.2962 3.63652 55.0719 3.21716 55.0018V54.9817C3.59534 54.8815 3.92695 54.6526 4.15514 54.3342C4.38334 54.0157 4.49388 53.6277 4.46782 53.2365C4.46782 51.9589 3.75602 51.3745 2.20375 51.3745H0V58.9354Z" fill="white"/>
<path fill-rule="evenodd" clip-rule="evenodd" d="M5.60547 58.9476H6.98483V55.6992H7.29851C7.54194 55.6774 7.78464 55.7482 7.97835 55.8976C8.17207 56.0469 8.30264 56.2638 8.34409 56.5052L9.08804 58.9637H10.5559L9.57465 56.082C9.33738 55.3767 9.02371 55.2478 8.74623 55.2034V55.1712C9.16721 55.1122 9.55064 54.8966 9.82034 54.5673C10.09 54.238 10.2263 53.8191 10.202 53.3938C10.202 52.0074 9.29314 51.4028 7.95802 51.4028H5.60547V58.9637V58.9476ZM6.98483 54.6795V52.4467H7.54783C8.32397 52.4467 8.7784 52.6643 8.7784 53.5308C8.7784 54.3006 8.27974 54.6795 7.54783 54.6795H6.98483Z" fill="white"/>
<path d="M11.292 51.3867V56.2473C11.292 58.2262 12.4341 59 13.8577 59C15.2813 59 16.4153 58.2262 16.4153 56.2473V51.3867H15.0319V56.2473C15.0319 57.4967 14.6298 57.9038 13.8577 57.9038C13.0856 57.9038 12.6713 57.5007 12.6713 56.2473V51.3867H11.292Z" fill="white"/>
<path d="M17.5938 58.9476H18.8444V53.0553H18.8645L21.3578 58.9476H23.0066V51.3867H21.7559V57.3234H21.7358L19.2345 51.3867H17.5938V58.9476Z" fill="white"/>
<path fill-rule="evenodd" clip-rule="evenodd" d="M25.4959 55.2155C25.4959 53.2003 26.1956 52.4668 27.0682 52.4668C27.9409 52.4668 28.6447 53.1963 28.6447 55.2155C28.6447 57.2347 27.9449 57.9642 27.0682 57.9642C26.1916 57.9642 25.4959 57.2347 25.4959 55.2155ZM24.0723 55.2155C24.0723 57.8554 25.5039 58.9919 27.0682 58.9919C28.6326 58.9919 30.0682 57.8554 30.0682 55.2155C30.0682 52.5756 28.6326 51.4351 27.0682 51.4351C25.5039 51.4351 24.0723 52.5716 24.0723 55.2155Z" fill="white"/>
<path d="M33.8369 58.9477H35.2163V55.4091H35.2484L37.5125 58.9477H39.1854L36.4227 54.9658L38.9803 51.415H37.3959L35.2484 54.6111H35.2163V51.415H33.8369V58.9477Z" fill="white"/>
<path d="M39.917 58.9476H43.9827V57.8433H41.2963V55.6105H43.7333V54.5062H41.2963V52.491H43.8741V51.3867H39.917V58.9476Z" fill="white"/>
<path d="M44.7023 58.6213C45.2382 58.8729 45.8288 58.9852 46.4194 58.9477C47.8551 58.9477 48.9449 58.2344 48.9449 56.7431C48.9449 55.7154 48.5227 55.2559 47.6379 54.7723L46.8336 54.333C46.4114 54.1033 46.0294 53.8897 46.0294 53.3456C46.0294 52.8015 46.3873 52.4871 47.0749 52.4871C47.5629 52.4971 48.044 52.6039 48.4905 52.8015L48.5548 51.677C48.0462 51.5078 47.5143 51.4195 46.9784 51.415C45.7157 51.415 44.6058 52.1002 44.6058 53.41C44.599 53.8159 44.7122 54.2146 44.9312 54.556C45.1502 54.8974 45.4651 55.1662 45.8363 55.3285L46.5361 55.7073C47.2076 56.062 47.5173 56.2958 47.5173 56.8197C47.5222 56.9676 47.4954 57.1148 47.4385 57.2514C47.3817 57.3879 47.2962 57.5107 47.1879 57.6112C47.0795 57.7117 46.9509 57.7877 46.8107 57.8341C46.6705 57.8804 46.5219 57.8959 46.3752 57.8797C45.8084 57.8757 45.253 57.7199 44.7666 57.4283L44.6902 58.6374L44.7023 58.6213Z" fill="white"/>
<path d="M49.5568 58.6213C50.0927 58.8729 50.6833 58.9852 51.2739 58.9477C52.7096 58.9477 53.7954 58.2344 53.7954 56.7431C53.7954 55.7154 53.3932 55.2559 52.4924 54.7723L51.6881 54.333C51.2659 54.1033 50.8838 53.8897 50.8838 53.3456C50.8838 52.8015 51.2417 52.4871 51.9294 52.4871C52.4173 52.4976 52.8983 52.6044 53.345 52.8015L53.4093 51.677C52.9007 51.5078 52.3688 51.4195 51.8329 51.415C50.5702 51.415 49.4602 52.1002 49.4602 53.41C49.4535 53.8159 49.5667 54.2146 49.7857 54.556C50.0047 54.8974 50.3196 55.1662 50.6908 55.3285L51.3905 55.7073C52.0621 56.062 52.3718 56.2958 52.3718 56.8197C52.3767 56.9676 52.3498 57.1148 52.293 57.2514C52.2362 57.3879 52.1507 57.5107 52.0424 57.6112C51.934 57.7117 51.8054 57.7877 51.6652 57.8341C51.525 57.8804 51.3764 57.8959 51.2297 57.8797C50.6629 57.8757 50.1075 57.7199 49.6211 57.4283L49.5447 58.6374L49.5568 58.6213Z" fill="white"/>
<path d="M54.627 58.9759H58.4875V57.8716H56.0063V51.415H54.627V58.9759Z" fill="white"/>
<path d="M59.2637 58.9476H63.3294V57.8433H60.643V55.6105H63.08V54.5062H60.643V52.491H63.2208V51.3867H59.2637V58.9476Z" fill="white"/>
<path fill-rule="evenodd" clip-rule="evenodd" d="M64.0498 58.9476H65.4292V55.6992H65.7428C65.9863 55.6774 66.229 55.7482 66.4227 55.8976C66.6164 56.0469 66.747 56.2638 66.7884 56.5052L67.5324 58.9637H69.0002L68.019 56.082C67.7817 55.3767 67.468 55.2478 67.1865 55.2034V55.1712C67.6082 55.1131 67.9927 54.8979 68.2632 54.5685C68.5337 54.2392 68.6705 53.8197 68.6463 53.3938C68.6463 52.0074 67.7375 51.4028 66.4024 51.4028H64.0498V58.9637V58.9476ZM65.4292 54.6795V52.4467H65.9841C66.7603 52.4467 67.2107 52.6643 67.2107 53.5308C67.2107 54.3006 66.716 54.6795 65.9841 54.6795H65.4292Z" fill="white"/>
<path d="M0.00390625 49.847H1.38326V46.5704H3.70364V45.466H1.38326V43.4186H3.8082V42.3184H0.00390625V49.847Z" fill="white"/>
<path fill-rule="evenodd" clip-rule="evenodd" d="M6.11644 46.0988C6.11644 44.0836 6.81618 43.3501 7.68883 43.3501C8.56148 43.3501 9.26523 44.0756 9.26523 46.0988C9.26523 48.122 8.56551 48.8475 7.68883 48.8475C6.81215 48.8475 6.11644 48.118 6.11644 46.0988ZM4.69285 46.0988C4.69285 48.7427 6.12449 49.8793 7.68883 49.8793C9.25317 49.8793 10.6888 48.7427 10.6888 46.0988C10.6888 43.4549 9.25317 42.3184 7.67274 42.3184C6.09231 42.3184 4.67676 43.4549 4.67676 46.0988H4.69285Z" fill="white"/>
<path d="M11.6465 49.847H12.8972V43.9789H12.9213L15.4106 49.847H17.0634V42.3184H15.8127V48.2309H15.7886L13.2872 42.3184H11.6465V49.847Z" fill="white"/>
<path fill-rule="evenodd" clip-rule="evenodd" d="M18.04 49.8793H20.0025C22.0937 49.8793 23.6218 48.6419 23.6218 46.0988C23.6218 43.5557 22.3671 42.3184 20.0025 42.3184H18.04V49.8793ZM19.4194 43.3783H19.8819C21.4382 43.3783 22.1379 44.4423 22.1379 46.0988C22.1379 47.7553 21.4382 48.8152 19.8819 48.8152H19.4194V43.3783Z" fill="white"/>
<path fill-rule="evenodd" clip-rule="evenodd" d="M26.1716 46.9774L27.2052 43.463H27.2293L28.1783 46.9774H26.1716ZM28.9867 49.847H30.4102L27.9974 42.3184H26.4893L23.9639 49.847H25.3432L25.8861 48.0374H28.4719L29.0027 49.847H28.9867Z" fill="white"/>
<path d="M31.0732 49.8631H35.6899V48.7588H32.6497L35.6456 43.463V42.3184H31.1617V43.4227H34.0411L31.0732 48.654V49.8631Z" fill="white"/>
<path d="M36.5635 49.8473H37.9469V42.3105H36.5635V49.8473Z" fill="white"/>
<path fill-rule="evenodd" clip-rule="evenodd" d="M40.2468 46.0907C40.2468 44.0756 40.9466 43.3461 41.8192 43.3461C42.6919 43.3461 43.3956 44.0715 43.3956 46.0907C43.3956 48.1099 42.6919 48.8354 41.8192 48.8354C40.9466 48.8354 40.2468 48.1099 40.2468 46.0907ZM38.8232 46.0907C38.8232 48.7266 40.2549 49.8631 41.8192 49.8631C43.3836 49.8631 44.8192 48.7266 44.8192 46.0907C44.8192 43.4549 43.3836 42.3184 41.8192 42.3184C40.2549 42.3184 38.8232 43.4549 38.8232 46.0907Z" fill="white"/>
<path d="M45.6592 49.8591H46.9139V43.9829H46.934L49.4233 49.8591H51.0761V42.3184H49.8254V48.2389H49.8013L47.2999 42.3184H45.6592V49.8591Z" fill="white"/>
<path d="M52.0098 49.847H56.0795V48.7467H53.3931V46.526H55.8301V45.4257H53.3931V43.4186H55.9709V42.3184H52.0098V49.847Z" fill="white"/>
<path fill-rule="evenodd" clip-rule="evenodd" d="M45.2574 15.1097L60.3539 0H68.9879L50.8914 18.1365L68.9879 36.273H60.3539L45.2654 21.1552V15.1097H45.2574ZM24.185 30.2275V36.273H31.6528C34.4525 36.2623 37.1333 35.1374 39.1055 33.1458C41.0776 31.1542 42.1796 28.4589 42.1689 25.653C42.1582 22.8472 41.0358 20.1604 39.0486 18.1839C37.0614 16.2074 34.3721 15.103 31.5724 15.1137H24.185V21.1592H31.6528C32.8527 21.1592 34.0034 21.6369 34.8519 22.4872C35.7003 23.3376 36.1769 24.4908 36.1769 25.6934C36.1769 26.8959 35.7003 28.0492 34.8519 28.8995C34.0034 29.7498 32.8527 30.2275 31.6528 30.2275H24.185ZM0 0H18.1287V6.02131H0V0ZM0 15.1137H18.1287V21.0827H0V15.1137Z" fill="white"/>
</g>
<defs>
<clipPath id="clip0_5455_25589">
<rect width="69" height="59" fill="white"/>
</clipPath>
</defs>
</svg>
