<svg width="33" height="33" viewBox="0 0 33 33"  xmlns="http://www.w3.org/2000/svg">
<path d="M16.4992 30.7999C8.66172 30.7999 2.19922 24.3375 2.19922 16.5C2.19922 8.66245 8.66172 2.19995 16.4992 2.19995C24.3367 2.19995 30.7992 8.66245 30.7992 16.5C30.7992 24.3375 24.3367 30.7999 16.4992 30.7999ZM16.4992 4.67495C9.89922 4.67495 4.67422 10.0375 4.67422 16.5C4.67422 23.1 10.0367 28.325 16.4992 28.325C23.0992 28.325 28.3242 22.9625 28.3242 16.5C28.3242 9.89995 23.0992 4.67495 16.4992 4.67495Z" />
<g clip-path="url(#clip0_4690_5574)">
<path d="M23.2398 24.7499C18.5108 24.7499 13.7818 24.7499 9.05276 24.7499C9.02599 24.7391 8.99921 24.7231 8.97243 24.7177C7.97629 24.5356 7.24792 23.7216 7.22114 22.7094C7.19437 21.8203 7.21043 20.9313 7.21043 20.0423C7.21043 17.7554 7.21579 15.4739 7.20508 13.1871C7.20508 12.9193 7.28541 12.7426 7.48893 12.5766C8.16373 12.0303 8.82247 11.4733 9.48657 10.9217C9.57761 10.8467 9.60975 10.7717 9.60439 10.6592C9.59904 9.85055 9.60439 9.03649 9.60439 8.2278C9.60439 7.78328 9.74899 7.63868 10.1935 7.63332C11.2218 7.63332 12.2554 7.63868 13.2837 7.62797C13.3801 7.62797 13.4979 7.57977 13.5729 7.52085C13.9692 7.20487 14.3495 6.87283 14.7458 6.55684C15.6402 5.83919 16.722 5.8499 17.6057 6.58362C17.9806 6.89425 18.3501 7.21559 18.7304 7.5155C18.8107 7.57977 18.9339 7.62797 19.0356 7.62797C20.0639 7.63868 21.0975 7.63332 22.1258 7.63332C22.4954 7.63332 22.6614 7.79935 22.6614 8.16888C22.6614 8.98294 22.6614 9.80235 22.6614 10.6164C22.6614 10.7342 22.6989 10.8038 22.7846 10.8788C23.4487 11.4251 24.0967 11.9874 24.7661 12.523C25.0071 12.7158 25.1035 12.9193 25.0982 13.2353C25.0875 16.288 25.0928 19.3407 25.0875 22.3934C25.0875 22.5112 25.0875 22.6237 25.0768 22.7415C25.0125 23.5448 24.6215 24.1447 23.9092 24.5142C23.7004 24.6267 23.4647 24.6749 23.2398 24.7499ZM8.07269 13.9047C8.06733 13.9529 8.06198 13.9797 8.06198 14.0119C8.06198 16.8771 8.06198 19.737 8.06198 22.6023C8.06198 22.8968 8.14767 23.1646 8.32976 23.4002C8.62432 23.7805 9.02599 23.9037 9.48657 23.9037C13.921 23.9037 18.3608 23.9037 22.7953 23.9037C22.8328 23.9037 22.8702 23.9037 22.9024 23.9037C23.7004 23.8769 24.2199 23.352 24.2252 22.5541C24.2306 19.7209 24.2252 16.8878 24.2252 14.0547C24.2252 14.0119 24.2145 13.969 24.2091 13.9101C24.1449 13.9529 24.102 13.9851 24.0538 14.0172C21.8795 15.64 19.6997 17.2681 17.5253 18.8908C16.6363 19.5549 15.6509 19.5549 14.7618 18.8908C12.5875 17.2627 10.4077 15.64 8.23336 14.0172C8.19051 13.9797 8.14231 13.9476 8.07269 13.9047ZM10.472 8.51164C10.4666 8.5652 10.4613 8.60269 10.4613 8.64553C10.4613 10.595 10.4613 12.5444 10.4666 14.4939C10.4666 14.5688 10.5256 14.6652 10.5898 14.7081C12.1644 15.8863 13.7443 17.0592 15.3188 18.2321C15.8651 18.6338 16.4435 18.6391 16.9898 18.2321C18.5483 17.0753 20.1067 15.9131 21.6652 14.7563C21.767 14.6813 21.7991 14.6063 21.7991 14.4832C21.7938 12.5498 21.7991 10.6218 21.7938 8.68838C21.7938 8.62947 21.7884 8.57055 21.7831 8.50629C18.002 8.51164 14.2424 8.51164 10.472 8.51164ZM22.6721 11.9125C22.6721 12.6248 22.6721 13.3049 22.6721 14.0065C23.122 13.6691 23.5558 13.3478 24.0003 13.0211C23.5451 12.6408 23.1166 12.282 22.6721 11.9125ZM9.59368 11.9392C9.14381 12.3088 8.72607 12.6569 8.29762 13.0104C8.74214 13.337 9.15452 13.6477 9.59368 13.9744C9.59368 13.2888 9.59368 12.6355 9.59368 11.9392ZM17.4771 7.63332C16.4274 6.55684 15.6884 6.73358 14.8261 7.63332C15.7098 7.63332 16.5828 7.63332 17.4771 7.63332Z" />
<path d="M16.1276 14.917C15.2921 14.917 14.462 14.917 13.6265 14.917C13.5355 14.917 13.4444 14.9062 13.3588 14.8848C13.1874 14.8366 13.0749 14.6599 13.0803 14.4778C13.0856 14.2903 13.2195 14.119 13.4016 14.0815C13.4819 14.0654 13.573 14.0601 13.6533 14.0601C15.3189 14.0601 16.9899 14.0601 18.6555 14.0601C18.7358 14.0601 18.8161 14.0654 18.8911 14.0761C19.0785 14.1136 19.2124 14.2689 19.2231 14.4617C19.2339 14.6545 19.1214 14.8259 18.9393 14.8795C18.8536 14.9062 18.7572 14.9116 18.6715 14.9116C17.82 14.917 16.9738 14.917 16.1276 14.917Z" />
<path d="M14.6495 12.7639C14.2532 12.7639 13.8569 12.7693 13.4606 12.7639C13.2838 12.7585 13.166 12.6568 13.1018 12.4961C13.0375 12.3408 13.0589 12.1801 13.1821 12.073C13.2785 11.9927 13.4177 11.9231 13.5356 11.9231C14.28 11.907 15.0191 11.9124 15.7635 11.9177C16.0366 11.9177 16.2187 12.0944 16.2241 12.3354C16.2294 12.5872 16.0473 12.7585 15.7581 12.7639C15.3886 12.7693 15.0137 12.7639 14.6442 12.7639C14.6495 12.7693 14.6495 12.7693 14.6495 12.7639Z" />
</g>
<path d="M24.8597 6.38785L6.38672 24.8608L8.13679 26.6109L26.6098 8.13792L24.8597 6.38785Z" />
<defs>
<clipPath id="clip0_4690_5574">
<rect width="18.75" height="18.75" transform="translate(6.75 5.99976)"/>
</clipPath>
</defs>
</svg>
