<svg width="70" height="70" viewBox="0 0 70 70" fill="none" xmlns="http://www.w3.org/2000/svg">
<path d="M34.9993 65.3333C18.3743 65.3333 4.66602 51.625 4.66602 35C4.66602 18.375 18.3743 4.66667 34.9993 4.66667C51.6243 4.66667 65.3327 18.375 65.3327 35C65.3327 51.625 51.6243 65.3333 34.9993 65.3333ZM34.9993 9.91667C20.9993 9.91667 9.91602 21.2917 9.91602 35C9.91602 49 21.291 60.0833 34.9993 60.0833C48.9993 60.0833 60.0827 48.7083 60.0827 35C60.0827 21 48.9993 9.91667 34.9993 9.91667Z" fill="#FF0000"/>
<g clip-path="url(#clip0_4817_25498)">
<path d="M49.2943 52.4996C39.263 52.4996 29.2318 52.4996 19.2006 52.4996C19.1438 52.4769 19.087 52.4428 19.0302 52.4314C16.9171 52.0452 15.3721 50.3184 15.3153 48.1713C15.2585 46.2855 15.2926 44.3996 15.2926 42.5138C15.2926 37.6629 15.304 32.8234 15.2812 27.9725C15.2812 27.4045 15.4517 27.0296 15.8834 26.6774C17.3148 25.5187 18.7121 24.3372 20.1208 23.1671C20.3139 23.008 20.3821 22.849 20.3707 22.6104C20.3593 20.895 20.3707 19.1682 20.3707 17.4528C20.3707 16.5099 20.6774 16.2031 21.6203 16.1918C23.8015 16.1918 25.9941 16.2031 28.1753 16.1804C28.3798 16.1804 28.6297 16.0782 28.7888 15.9532C29.6294 15.283 30.436 14.5786 31.2767 13.9083C33.1739 12.3861 35.4687 12.4088 37.3431 13.9652C38.1384 14.6241 38.9222 15.3057 39.7288 15.9419C39.8992 16.0782 40.1605 16.1804 40.3764 16.1804C42.5575 16.2031 44.7501 16.1918 46.9313 16.1918C47.7152 16.1918 48.0673 16.544 48.0673 17.3278C48.0673 19.0546 48.0673 20.7927 48.0673 22.5195C48.0673 22.7695 48.1469 22.9171 48.3286 23.0762C49.7373 24.2349 51.1119 25.4278 52.532 26.5638C53.0432 26.9728 53.2477 27.4045 53.2363 28.0748C53.2136 34.5502 53.225 41.0256 53.2136 47.501C53.2136 47.751 53.2136 47.9895 53.1909 48.2394C53.0546 49.9435 52.2252 51.2159 50.7143 51.9997C50.2713 52.2383 49.7714 52.3405 49.2943 52.4996ZM17.1216 29.4948C17.1103 29.597 17.0989 29.6539 17.0989 29.722C17.0989 35.7998 17.0989 41.8663 17.0989 47.9441C17.0989 48.5689 17.2807 49.1369 17.6669 49.6368C18.2918 50.4434 19.1438 50.7047 20.1208 50.7047C29.5272 50.7047 38.9449 50.7047 48.3513 50.7047C48.4309 50.7047 48.5104 50.7047 48.5786 50.7047C50.2713 50.6479 51.3732 49.5345 51.3846 47.8418C51.3959 41.8322 51.3846 35.8225 51.3846 29.8129C51.3846 29.722 51.3619 29.6311 51.3505 29.5062C51.2142 29.597 51.1233 29.6652 51.021 29.7334C46.4087 33.1756 41.785 36.6291 37.1727 40.0713C35.2869 41.48 33.1966 41.48 31.3108 40.0713C26.6984 36.6178 22.0748 33.1756 17.4624 29.7334C17.3716 29.6539 17.2693 29.5857 17.1216 29.4948ZM22.2111 18.0549C22.1997 18.1685 22.1884 18.248 22.1884 18.3389C22.1884 22.4741 22.1884 26.6093 22.1997 30.7444C22.1997 30.9035 22.3247 31.108 22.461 31.1989C25.801 33.6982 29.1523 36.1861 32.4922 38.674C33.651 39.526 34.8779 39.5374 36.0367 38.674C39.3426 36.2202 42.6484 33.755 45.9543 31.3011C46.1702 31.1421 46.2383 30.983 46.2383 30.7217C46.227 26.6206 46.2383 22.5309 46.227 18.4298C46.227 18.3048 46.2156 18.1799 46.2042 18.0435C38.1838 18.0549 30.2088 18.0549 22.2111 18.0549ZM48.0901 25.2687C48.0901 26.7797 48.0901 28.2224 48.0901 29.7107C49.0443 28.9949 49.9645 28.3133 50.9074 27.6203C49.9418 26.8138 49.033 26.0526 48.0901 25.2687ZM20.348 25.3255C19.3937 26.1094 18.5076 26.8478 17.5988 27.5976C18.5417 28.2906 19.4164 28.9495 20.348 29.6425C20.348 28.1884 20.348 26.8024 20.348 25.3255ZM37.0705 16.1918C34.8438 13.9083 33.2761 14.2832 31.4471 16.1918C33.3216 16.1918 35.1733 16.1918 37.0705 16.1918Z" fill="#262625"/>
<path d="M34.2086 31.6419C32.4364 31.6419 30.6755 31.6419 28.9033 31.6419C28.7102 31.6419 28.517 31.6192 28.3353 31.5737C27.9717 31.4715 27.7332 31.0966 27.7445 30.7104C27.7559 30.3127 28.0399 29.9492 28.4262 29.8697C28.5966 29.8356 28.7897 29.8242 28.9601 29.8242C32.4932 29.8242 36.0376 29.8242 39.5707 29.8242C39.7411 29.8242 39.9115 29.8356 40.0706 29.8583C40.4682 29.9379 40.7522 30.2673 40.7749 30.6763C40.7976 31.0853 40.5591 31.4488 40.1728 31.5624C39.991 31.6192 39.7865 31.6305 39.6048 31.6305C37.7985 31.6419 36.0035 31.6419 34.2086 31.6419Z" fill="#262625"/>
<path d="M31.073 27.075C30.2323 27.075 29.3916 27.0864 28.551 27.075C28.1761 27.0637 27.9261 26.8478 27.7898 26.507C27.6535 26.1776 27.6989 25.8368 27.9602 25.6095C28.1647 25.4391 28.4601 25.2915 28.71 25.2915C30.2891 25.2574 31.8568 25.2687 33.4359 25.2801C34.0153 25.2801 34.4016 25.655 34.4129 26.1662C34.4243 26.7001 34.038 27.0637 33.4246 27.075C32.6407 27.0864 31.8455 27.075 31.0616 27.075C31.073 27.0864 31.073 27.0864 31.073 27.075Z" fill="#262625"/>
</g>
<path d="M52.7359 13.5501L13.5508 52.7353L17.2631 56.4475L56.4482 17.2624L52.7359 13.5501Z" fill="#FF0000"/>
<defs>
<clipPath id="clip0_4817_25498">
<rect width="39.7727" height="39.7727" fill="white" transform="translate(14.3164 12.7269)"/>
</clipPath>
</defs>
</svg>
