<svg width="156" height="126" viewBox="0 0 156 126" fill="none"
  xmlns="http://www.w3.org/2000/svg">
  <path d="M6.965 92.8581C7.14899 85.4174 7.22259 77.9766 7.59057 70.5731C7.73776 67.8944 8.47373 65.2157 9.2465 62.6114C10.0561 59.8956 11.2336 57.3285 12.1904 54.6498C12.7423 53.0873 12.3376 52.4548 10.6816 52.4176C7.0754 52.2688 3.87394 51.3387 1.92363 47.9531C0.157307 44.8652 0.52529 38.7638 4.86749 36.42C6.56022 35.4899 8.25294 35.155 10.1297 35.2295C12.1536 35.3039 14.1775 35.2295 16.2014 35.2295C19.6236 35.2295 19.6972 35.0806 20.8748 31.8439C22.9355 26.1145 24.8858 20.3479 27.3513 14.8046C29.3016 10.4145 32.5398 6.76855 37.2868 5.3176C41.0035 4.16429 44.8305 3.3458 48.6575 2.75054C60.2122 1.00197 71.8405 0.369502 83.4688 0.704336C89.9085 0.890355 96.3482 1.18798 102.751 1.82045C107.535 2.3041 112.355 3.12258 116.992 4.42471C122.88 6.06168 127.112 9.93088 129.393 15.7719C131.748 21.7617 134.14 27.7515 136.422 33.7785C136.863 34.9318 137.526 35.2667 138.629 35.2667C141.316 35.2295 144.039 35.3039 146.725 35.2667C153.533 35.1922 156.845 40.8472 154.968 46.9114C153.864 50.483 150.699 51.9712 147.093 52.3804C143.524 52.7524 143.597 52.7152 144.922 56.138C147.682 63.3555 149.338 70.7591 149.264 78.5347C149.191 90.3283 149.227 102.085 149.264 113.878C149.264 117.933 148.271 121.468 144.701 123.812C140.101 126.9 135.612 126.379 131.675 123.179C129.135 121.133 127.7 118.38 127.884 114.957C127.921 113.767 127.884 112.613 127.884 111.423C127.848 109.005 127.48 108.781 125.161 109.079C119.347 109.823 113.496 110.865 107.645 111.051C94.1771 111.497 80.7089 112.911 67.2039 111.944C57.5995 111.274 47.9952 110.679 38.4276 109.972C35.8517 109.786 33.3126 109.339 30.7735 109.005C28.8232 108.744 28.492 109.042 28.4552 111.014C28.4184 112.613 28.4184 114.25 28.4184 115.85C28.2712 122.547 20.47 127.346 14.7294 125.374C10.6448 123.96 6.965 119.794 7.0754 114.622C7.25939 107.368 7.11219 100.113 7.11219 92.8581C7.11219 92.8581 7.0386 92.8581 6.965 92.8581ZM81.0401 12.2003C66.0999 12.8328 53.6989 12.87 41.4818 15.251C39.4211 15.6603 37.9492 16.5904 37.2132 18.3017C35.7781 21.6129 34.6742 25.0728 33.4598 28.4956C32.3191 31.8067 31.1783 35.0806 30.0744 38.3918C29.412 40.438 28.7496 42.4842 28.1976 44.5676C27.9033 45.7581 28.0505 47.0231 29.412 47.5067C30.6263 47.9531 31.8775 48.2508 33.1286 48.5484C34.527 48.8832 35.3365 48.5112 35.8517 46.9486C37.1396 42.819 40.7091 40.252 45.0513 40.1031C47.2592 40.0287 49.4671 40.1404 51.675 40.0659C54.8764 39.9171 57.3419 41.4425 58.9611 43.9723C60.2122 45.9441 60.7642 48.3252 61.6841 50.483C61.9785 51.1155 62.6041 51.6363 63.0457 52.1944C63.4873 51.7479 64.1496 51.4131 64.3336 50.8922C64.7752 49.5529 64.9592 48.1392 65.2536 46.7254C66.0631 43.1167 67.8295 40.2892 71.2517 38.615C74.1956 37.2013 77.2498 37.7965 80.3041 37.6105C85.8974 37.3129 90.6812 41.5913 91.3436 47.5439C91.4908 48.7716 91.8588 49.9622 92.2636 51.1155C92.4108 51.5247 93.1099 52.1572 93.3307 52.0828C93.8827 51.8595 94.5083 51.3759 94.729 50.855C95.2442 49.4785 95.5754 48.0276 95.9066 46.6138C96.6058 43.8607 101.022 39.6939 104.186 39.9915C106.505 40.2148 108.86 39.9543 111.178 40.0287C115.962 40.1776 119.2 42.5586 120.745 47.1347C121.15 48.3624 121.849 48.7344 122.917 48.5484C124.057 48.3252 125.161 47.8415 126.302 47.6555C128.032 47.3579 128.62 46.2418 128.252 44.7164C127.737 42.633 127.001 40.624 126.302 38.5778C125.235 35.4155 124.168 32.2904 123.101 29.1652C121.813 25.4449 120.672 21.6501 119.2 18.0041C118.574 16.4043 117.213 15.3254 115.226 15.1766C111.951 14.879 108.676 14.1721 105.401 13.9117C96.4218 13.2792 87.443 12.684 81.0401 12.2003ZM128.657 65.0297C123.432 64.6576 119.973 69.2709 120.01 73.4005C120.046 78.3486 123.358 82.1062 128.584 82.2178C133.183 82.3294 137.121 78.8323 137.194 73.4749C137.268 69.2337 133.809 64.6949 128.657 65.0297ZM27.8665 65.0297C22.7147 64.6949 19.366 69.3081 19.2924 73.4749C19.2188 78.1254 23.4139 82.5155 27.9033 82.2923C33.055 81.9946 36.4405 78.423 36.4773 73.4749C36.5141 69.1965 32.9446 64.6204 27.8665 65.0297Z" fill="black"/>
</svg>
