<svg width="33" height="33" viewBox="0 0 33 33" fill="none" xmlns="http://www.w3.org/2000/svg">
<path d="M16.7058 26.6221C16.7058 27.3236 16.6867 27.9682 16.7058 28.6127C16.763 30.7361 16.8853 30.0498 16.9235 32.1731C16.9461 32.3309 16.9397 32.4916 16.9044 32.6471C16.828 32.7798 16.6561 32.9504 16.5224 32.9315C15.6058 32.8935 15.6249 32.8746 15.6631 31.9456C15.7777 29.4052 15.8083 29.6934 15.9037 27.1529C15.9037 27.0392 15.8846 26.9254 15.8846 26.8117L15.7128 26.6979C15.6746 26.7927 15.6364 26.9065 15.5982 27.0013C14.6434 28.8592 12.9248 29.9398 11.2252 30.9825C10.4946 31.3959 9.71956 31.7266 8.91465 31.9684C8.51856 32.0851 8.10207 32.1174 7.69252 32.0632C7.06235 32.0063 6.71863 31.5134 6.66134 30.774C6.60405 30.0725 6.27942 29.7313 5.55378 29.7123C3.6442 29.6744 2.2311 28.7644 1.16174 27.2477C0.703437 26.6032 0.741629 26.224 1.29541 25.6742C2.07834 24.8969 2.89946 24.1386 4.00702 23.9111C4.69447 23.7784 5.42011 23.8542 6.12666 23.8542C6.44616 23.8606 6.76499 23.8859 7.08145 23.93C7.0988 23.8699 7.12451 23.8125 7.15783 23.7594C7.01733 23.6411 6.86354 23.5393 6.69953 23.4561C5.80203 23.1717 4.90452 22.9442 4.00702 22.6598C3.31957 22.4323 2.59393 22.2427 1.94467 21.9204C1.02807 21.4654 0.913491 20.8208 1.54365 20.0246C1.75371 19.7592 1.73461 19.6265 1.48637 19.4179C0.565947 18.6786 0.264233 17.5979 0.0159865 16.5173C-0.0985886 16.0054 0.416999 15.5315 1.10445 15.4935C2.13563 15.4367 3.1668 15.4367 4.19798 15.3988C4.28073 15.3876 4.35985 15.358 4.42933 15.312C4.49881 15.266 4.55683 15.2049 4.59899 15.1333C4.62786 14.9683 4.71465 14.8187 4.84398 14.7112C4.9733 14.6036 5.13682 14.545 5.30554 14.5456C6.58496 14.4319 7.7498 14.6404 8.76188 15.5504C9.56391 16.2708 10.4996 16.8586 11.378 17.5221C11.7217 17.7875 11.8936 17.5979 11.8554 17.2946C11.7861 16.6721 11.6386 16.0607 11.4162 15.4746C10.8815 14.3181 10.2132 13.2185 9.64029 12.081C8.87646 10.5644 8.89556 9.00979 9.50662 7.4552C9.77396 6.7727 10.3086 6.50728 10.9961 6.75374C11.3773 6.89872 11.7421 7.08299 12.0846 7.30353C12.6956 7.66374 12.9821 7.54999 13.0584 6.81062C13.0966 6.39353 13.0775 5.99541 13.1539 5.57832C13.2685 4.87686 13.3831 4.13749 14.2997 3.98582C14.3845 3.94782 14.4524 3.88041 14.4906 3.79623C14.8344 3.07582 15.159 2.33644 15.4836 1.59706C15.8083 0.857687 16.3238 0.743937 16.8394 1.38852C17.2404 1.88144 17.5269 2.46915 17.8897 2.99998C18.157 3.37915 18.5199 3.7204 18.7108 4.13749C18.9399 4.67454 19.1127 5.23361 19.2264 5.80582C19.3983 6.58311 19.4174 6.62103 20.1812 6.3177C20.4038 6.22833 20.6338 6.15854 20.8687 6.10916C21.1868 6.02239 21.5253 6.04657 21.8276 6.17768C22.13 6.30879 22.3779 6.53889 22.53 6.82957C23.0265 7.70166 22.9883 8.61166 22.6637 9.52166C22.5499 9.86408 22.416 10.1996 22.2626 10.5265C21.281 12.4616 20.6845 14.5665 20.5058 16.7258C20.4867 17.0102 20.6013 17.3136 20.6395 17.6169C20.945 17.5031 21.3079 17.4842 21.5179 17.2946C22.1748 16.655 22.7933 15.9776 23.3702 15.266C24.4587 13.939 25.8336 13.1427 27.5713 13.0479C28.2015 13.01 28.8316 13.1238 29.1372 13.8063C29.1753 13.8821 29.3472 13.92 29.4618 13.92C30.2829 13.8821 31.104 13.7683 31.9251 13.7683C32.689 13.7683 33.1091 14.1665 32.9754 14.8869C32.8227 15.74 32.4789 16.5742 32.1925 17.3894C32.0206 17.7496 31.8106 18.1098 31.6196 18.4511C31.5513 18.5663 31.5219 18.7002 31.5357 18.8332C31.5494 18.9662 31.6056 19.0913 31.696 19.1904C32.3071 20.0246 32.1543 20.9346 31.2186 21.4275C30.2601 21.8822 29.2786 22.2872 28.2778 22.6409C27.514 22.9252 26.7311 23.1338 25.9672 23.3992C25.8145 23.4561 25.6999 23.6267 25.5662 23.7594C25.7303 23.8568 25.9028 23.9393 26.0818 24.0059C26.4613 24.0594 26.8443 24.0848 27.2276 24.0817C28.9271 24.0627 30.2638 24.6694 31.0849 26.224C31.2603 26.5214 31.465 26.8009 31.696 27.0582C31.9442 27.3425 31.9824 27.6459 31.6769 27.8923C31.0658 28.3852 30.4166 28.8402 29.8055 29.3521C29.4446 29.622 29.1177 29.9339 28.8316 30.2811C28.5261 30.6792 28.1442 30.9257 27.6668 30.8688C26.8266 30.793 26.0054 30.6792 25.1652 30.5465C24.7833 30.4896 24.4969 30.5655 24.325 30.9067C24.0004 31.5892 23.4466 31.7977 22.6255 31.4755C21.6634 31.1149 20.7469 30.644 19.8948 30.0725C18.7299 29.2763 17.8515 28.1767 17.0877 27.0013L16.9158 26.7738C16.8967 26.6979 16.8585 26.6979 16.7058 26.6221ZM16.5721 21.4465C16.7692 19.4813 16.833 17.5052 16.763 15.5315C16.7249 13.5219 16.6294 11.5312 16.5721 9.52166C16.4957 7.54999 16.4193 5.55936 16.3429 3.58769C16.2245 3.62561 16.4766 21.4275 16.5721 21.4465ZM13.6122 23.1906C13.6313 23.1527 13.6695 23.0959 13.6886 23.0579C13.3602 22.6219 1.58185 16.4604 0.989875 16.4415C5.22915 18.6975 9.43024 20.9346 13.6122 23.1906ZM19.8757 22.7356C20.4104 22.7736 31.1422 15.9865 31.3714 15.3229C27.5522 17.8065 23.7203 20.2774 19.8757 22.7356ZM13.5931 25.6552C13.574 25.5794 13.574 25.4846 13.5549 25.4088C9.71668 26.3946 5.82112 26.9444 1.84919 26.6032C5.87841 27.2667 9.75487 26.6032 13.5931 25.6552ZM19.6083 25.4088C20.1048 25.9207 29.5 27.7217 30.1874 27.4184C26.6547 26.7359 23.1283 26.066 19.6083 25.4088Z" fill="#FDD835"/>
</svg>
