<svg width="45" height="45" viewBox="0 0 45 45" fill="none" xmlns="http://www.w3.org/2000/svg">
<path d="M22.9593 29.1661C23.5933 29.1661 24.0722 28.9442 24.4232 28.4878C24.7844 28.0184 24.9675 27.3953 24.9675 26.6358V24.7634C24.9675 24.0187 24.7824 23.4031 24.417 22.9338C24.0613 22.4766 23.5821 22.2544 22.9523 22.2544C22.3239 22.2544 21.8526 22.4745 21.511 22.9272C21.1583 23.3949 20.9795 24.0127 20.9795 24.7635V26.6359C20.9795 27.3958 21.1606 28.0193 21.5176 28.4889C21.8636 28.9445 22.3353 29.1661 22.9593 29.1661Z" fill="black"/>
<path d="M38.9192 21.4363C39.242 20.415 39.4053 19.3543 39.4053 18.2754C39.4053 12.4891 34.6978 7.78174 28.9117 7.78174C25.4022 7.78174 22.0977 9.5712 20.164 12.4852C18.6772 11.4235 16.8793 10.844 15.0453 10.844C10.188 10.844 6.2362 14.7958 6.2362 19.6532C6.2362 20.2291 6.29209 20.8024 6.40259 21.364C2.71841 22.1154 0 25.4013 0 29.2092C0 33.6254 3.59273 37.2181 8.00876 37.2181H36.9913C41.4074 37.2181 45 33.6253 45 29.2092C45 25.4959 42.4741 22.3104 38.9192 21.4363ZM17.0747 24.0913L16.9935 24.3355H14.5648V24.0926C14.5648 23.4781 14.4216 23.0077 14.1389 22.6943C13.8628 22.3882 13.4115 22.233 12.7973 22.233C12.2567 22.233 11.8395 22.4466 11.5217 22.8859C11.1906 23.3432 11.0227 23.9412 11.0227 24.6635V26.7215C11.0227 27.4508 11.1989 28.052 11.5465 28.5086C11.8831 28.951 12.327 29.1661 12.9034 29.1661C13.4745 29.1661 13.8959 29.0184 14.1555 28.727C14.4223 28.4276 14.5576 27.9615 14.5576 27.3419V27.099H16.9791L17.0605 27.343L17.061 27.3803C17.081 28.5558 16.7133 29.5052 15.9682 30.2022C15.2288 30.894 14.1976 31.2448 12.9034 31.2448C11.5995 31.2448 10.5239 30.8175 9.70618 29.9747C8.89027 29.1342 8.47663 28.0411 8.47663 26.7261V24.6803C8.47663 23.3716 8.87987 22.2795 9.67528 21.4344C10.4748 20.5851 11.5251 20.1544 12.7972 20.1544C14.1278 20.1544 15.1879 20.5056 15.9481 21.1982C16.7159 21.8979 17.0951 22.8588 17.0751 24.0543L17.0747 24.0913ZM27.5209 26.6269C27.5209 27.951 27.0942 29.063 26.2525 29.9319C25.4088 30.8031 24.301 31.2447 22.9596 31.2447C21.6272 31.2447 20.5274 30.8028 19.6908 29.9312C18.8567 29.0624 18.4338 27.9506 18.4338 26.6269V24.7721C18.4338 23.4534 18.8553 22.343 19.6867 21.4718C20.5212 20.5976 21.6199 20.1542 22.9525 20.1542C24.2936 20.1542 25.4028 20.5971 26.249 21.4706C27.093 22.342 27.5209 23.4528 27.5209 24.7721V26.6269ZM36.6072 31.096H29.0847V29.4052L32.4843 25.7603C32.946 25.2306 33.2808 24.7754 33.4742 24.4135C33.6572 24.0709 33.75 23.7533 33.75 23.4696C33.75 23.0912 33.6541 22.7941 33.457 22.561C33.2701 22.3403 33.0055 22.233 32.6479 22.233C32.2476 22.233 31.9552 22.3605 31.7541 22.6229C31.5409 22.9011 31.4326 23.2861 31.4326 23.7669V24.0099H29.0044L28.923 23.767L28.922 23.7305C28.8968 22.7368 29.2287 21.883 29.9087 21.193C30.5878 20.5037 31.5094 20.1542 32.6479 20.1542C33.7673 20.1542 34.6641 20.4543 35.3139 21.0459C35.9703 21.6435 36.303 22.447 36.303 23.4341C36.303 24.1019 36.1172 24.7264 35.7505 25.2903C35.4023 25.826 34.8234 26.5334 34.0299 27.3933L32.5384 29.0173H36.6073V31.096H36.6072Z" fill="black"/>
</svg>
