<svg width="37" height="38" viewBox="0 0 37 38" fill="none" xmlns="http://www.w3.org/2000/svg">
<path d="M4.0634 0.0590939C6.23306 -0.119143 8.05719 0.148759 9.88681 0.296378C10.9234 0.380576 11.9621 0.476802 12.9921 0.624421C13.7402 0.733769 14.474 0.930595 15.2155 1.08149C15.8495 1.21162 16.4901 1.31441 17.1208 1.45874C17.7515 1.60308 18.4064 1.78679 19.047 1.96065C19.4857 2.07984 19.9245 2.19793 20.3567 2.34555C21.1124 2.6058 21.8638 2.88026 22.6119 3.16238C23.1987 3.38108 23.7823 3.61508 24.3581 3.86439C24.8254 4.06669 25.2817 4.29304 25.7358 4.52048C26.213 4.76323 26.6923 5.00708 27.1497 5.28591C27.889 5.73096 28.6251 6.18585 29.338 6.67026C29.9084 7.05844 30.4536 7.48599 30.9922 7.91791C32.0682 8.79132 33.0454 9.7791 33.9066 10.8637C34.5191 11.6426 35.0629 12.4727 35.5322 13.3448C35.7975 13.8524 36.0156 14.3831 36.1838 14.9304C36.3944 15.5668 36.6225 16.213 36.707 16.8724C36.8167 17.7253 36.8167 18.5957 36.8463 19.4585C36.854 19.6662 36.809 19.8762 36.8057 20.085C36.7881 20.9051 36.5644 21.6848 36.3088 22.4524C36.0906 23.1063 35.8391 23.7486 35.5552 24.3769C35.3614 24.7878 35.1309 25.1805 34.8664 25.5502C34.443 26.1626 33.9889 26.7531 33.5501 27.3523C33.4683 27.4426 33.4173 27.5565 33.4045 27.6775C33.3916 27.7985 33.4177 27.9205 33.4788 28.0259C33.9907 29.0464 34.481 30.0787 34.9497 31.1226C35.2086 31.6912 35.4181 32.2828 35.6496 32.8634C35.8986 33.4878 36.1541 34.1089 36.3911 34.7365C36.5973 35.2833 36.8002 35.83 36.9702 36.3767C37.092 36.7759 36.8287 37.2614 36.3922 37.5479C36.1201 37.7261 35.6101 37.6999 35.3216 37.4385C35.1166 37.2522 34.9478 37.0298 34.8236 36.7824C34.6569 36.4424 34.556 36.0695 34.4221 35.713C34.2697 35.3051 34.1117 34.8995 33.9549 34.4927C33.8452 34.1964 33.7355 33.8956 33.6093 33.6048C33.221 32.7162 32.8284 31.8293 32.4313 30.9444C32.2349 30.507 32.0287 30.0696 31.8159 29.6409C31.6689 29.3424 31.5406 29.3184 31.2675 29.4999C30.5995 29.9373 29.9512 30.4086 29.2536 30.8033C28.7676 31.081 28.2247 31.2604 27.7026 31.4725C27.2726 31.6464 26.8371 31.806 26.4038 31.9711C26.3629 31.9914 26.3203 32.0082 26.2766 32.0214C25.6185 32.1505 24.9603 32.3057 24.2912 32.3965C23.6865 32.4878 23.0753 32.5291 22.4638 32.5201C21.6427 32.4937 20.8239 32.4206 20.0111 32.3014C19.5483 32.2347 19.0996 32.051 18.6499 31.9033C18.2792 31.782 17.9084 31.654 17.553 31.4977C16.723 31.1267 15.9326 30.6736 15.1936 30.145C14.4104 29.5983 13.7347 28.9422 13.0711 28.2653C12.6824 27.8688 12.33 27.4384 12.0181 26.9794C11.468 26.202 10.9583 25.3968 10.4912 24.5672C9.97868 23.6276 9.52338 22.6581 9.12776 21.664C8.73508 20.67 8.45098 19.6334 8.12301 18.6132C7.86524 17.8095 7.60966 17.0047 7.36286 16.1966C7.22246 15.7363 7.10729 15.2683 6.97127 14.8068C6.82209 14.3016 6.65975 13.7997 6.50509 13.2967C6.3954 12.9413 6.29558 12.5827 6.17602 12.2295C5.94019 11.5144 5.71971 10.7938 5.45097 10.0917C5.12191 9.21696 4.77858 8.34218 4.37712 7.50458C3.99352 6.68274 3.55639 5.88681 3.06852 5.12189C2.47207 4.20488 1.7676 3.36237 0.970163 2.61236C0.63461 2.30803 0.342986 1.9588 0.103615 1.57465C-0.172802 1.11211 0.134328 0.41338 0.664128 0.273415C1.12231 0.154931 1.59189 0.0856483 2.06486 0.0667482C2.83488 0.0350374 3.61258 0.0590939 4.0634 0.0590939ZM17.0868 12.5728L17.0978 12.4886C17.0495 12.4515 17.0046 12.4099 16.9541 12.3793C16.6031 12.1508 16.2532 11.9233 15.9 11.6992C15.1552 11.2268 14.4049 10.7631 13.6645 10.2831C13.3464 10.0764 13.0064 9.86868 12.911 9.4619C12.81 9.01139 13.0206 8.49527 13.342 8.29844C13.6843 8.09068 14.3292 8.14098 14.6791 8.36405C15.2638 8.73255 15.8671 9.07044 16.455 9.43238C16.851 9.67513 17.2371 9.931 17.6221 10.1891C18.1289 10.528 18.6269 10.8801 19.1358 11.2158C19.2675 11.2861 19.4056 11.3436 19.5483 11.3875C19.5866 11.2246 19.6087 11.0583 19.6141 10.8911C19.5592 10.0732 19.4792 9.25086 19.4243 8.43841C19.3442 7.23558 19.285 6.03276 19.2049 4.83868C19.1643 4.23071 19.1468 4.22633 18.5621 4.08309C18.5095 4.06997 18.4525 4.05356 18.4042 4.03826C17.508 3.79222 16.6206 3.50573 15.7146 3.31C14.5826 3.06397 13.4408 2.84527 12.2923 2.69984C10.1896 2.43194 8.07913 2.22199 5.95445 2.22637C5.33361 2.22637 4.71167 2.19684 4.08973 2.19356C4.04341 2.19402 3.9978 2.20499 3.95637 2.22564C3.91493 2.24629 3.87876 2.27608 3.85061 2.31275C3.82441 2.41288 3.83858 2.51925 3.89009 2.60908C3.98393 2.75382 4.08574 2.89327 4.19503 3.02679C4.5592 3.53744 4.93763 4.03826 5.27876 4.56313C5.49703 4.91753 5.69621 5.28327 5.87547 5.65879C6.22428 6.34549 6.60381 7.02126 6.89888 7.73093C7.27401 8.63523 7.57895 9.56906 7.91131 10.4909C8.0561 10.8922 8.21295 11.2902 8.32484 11.7013C8.45427 12.1792 8.7636 12.2864 9.2199 12.2962C10.6086 12.3268 11.9972 12.3859 13.3881 12.4471C14.474 12.4952 15.5589 12.5663 16.6448 12.6188C16.7931 12.6156 16.941 12.6002 17.0868 12.5728ZM22.1073 30.3495C23.6934 30.3342 24.9 30.1691 26.0561 29.7492C26.7724 29.4889 27.4744 29.186 28.1655 28.8657C28.9388 28.507 29.6057 27.9832 30.2594 27.4441C30.4865 27.2561 30.5029 27.0877 30.3614 26.8635C30.0554 26.3802 29.7483 25.898 29.4444 25.4135C29.1077 24.8745 28.7863 24.3201 28.4276 23.8007C28.3052 23.6464 28.1274 23.5456 27.9318 23.5196C27.096 23.4398 26.2558 23.3884 25.4166 23.3469C23.345 23.2455 21.2729 23.1504 19.2005 23.0615C17.9589 23.0068 16.7161 22.9751 15.4711 22.9171C14.4762 22.8712 13.4824 22.7958 12.4875 22.7444C12.3614 22.7378 12.1365 22.7695 12.1223 22.8253C12.0946 22.9706 12.1186 23.1211 12.1903 23.2506C12.4783 23.7969 12.7939 24.3283 13.1358 24.8428C13.58 25.5075 14.07 26.1407 14.6024 26.7377C15.5413 27.7481 16.602 28.6109 17.8568 29.2352C18.4477 29.5347 19.0644 29.7802 19.6996 29.969C20.6002 30.227 21.5183 30.3987 22.1073 30.3495ZM23.587 21.1643V21.2507H25.8071C25.8981 21.2551 25.9894 21.2496 26.0792 21.2343C26.2985 21.1851 26.3446 21.0779 26.1943 20.8997C25.7556 20.3868 25.3168 19.8806 24.8781 19.3688C24.4788 18.9085 24.1102 18.4175 23.6715 17.9943C22.749 17.1009 21.7892 16.2447 20.8503 15.37C20.6293 15.1411 20.3284 15.006 20.01 14.9927C18.1749 14.9173 16.3409 14.8112 14.5069 14.7172C12.9099 14.634 11.3128 14.5477 9.7157 14.4711C9.29339 14.4503 9.21332 14.54 9.30327 14.9457C9.39321 15.3514 9.51387 15.7111 9.62027 16.1015C9.75409 16.5914 9.87146 17.0856 10.0228 17.5722C10.296 18.447 10.5943 19.3152 10.8696 20.1889C10.8939 20.3056 10.958 20.4103 11.051 20.4853C11.144 20.5602 11.2601 20.6008 11.3797 20.6001C12.73 20.6722 14.0791 20.7564 15.4305 20.8188C18.1453 20.9412 20.8667 21.0517 23.5881 21.1665L23.587 21.1643ZM32.1549 25.4901C32.247 25.4125 32.2777 25.3928 32.3007 25.3665C33.7082 23.6804 34.5519 21.598 34.7139 19.4104C34.7853 18.291 34.6542 17.168 34.3267 16.0949C34.081 15.2847 33.7717 14.481 33.2748 13.7724C32.8064 13.1043 32.3907 12.3902 31.8576 11.7779C31.1918 11.0125 30.4316 10.3268 29.7011 9.62046C29.6068 9.5297 29.4335 9.52204 29.2964 9.47612C29.2558 9.59784 29.2311 9.72427 29.2229 9.85227C29.3691 12.4701 29.5227 15.0871 29.6836 17.7034C29.7625 19.0397 29.8294 20.3759 29.9194 21.711C29.9298 21.9468 29.9948 22.1769 30.1092 22.3835C30.5589 23.1282 31.0371 23.8575 31.5132 24.5869C31.7117 24.8887 31.9245 25.1752 32.1549 25.4923V25.4901ZM27.4382 18.7849L27.5227 18.7247C27.5227 18.564 27.5315 18.4022 27.5227 18.2436C27.4996 17.9342 27.4558 17.6269 27.4382 17.3174C27.3417 15.6167 27.2492 13.916 27.1607 12.2153C27.0949 10.9326 27.0269 9.64998 26.9951 8.36514C26.9819 7.84246 26.7757 7.52754 26.2942 7.32087C25.8708 7.13717 25.4803 6.88348 25.0678 6.66479C24.5764 6.4111 24.0806 6.15413 23.5804 5.92888C22.9903 5.66644 22.3837 5.44119 21.7881 5.19187C21.5468 5.09018 21.4876 5.10986 21.459 5.3723C21.4426 5.53546 21.4404 5.69973 21.4525 5.86327C21.5519 7.62668 21.6543 9.39046 21.7596 11.1546C21.7936 11.7276 21.8441 12.2995 21.8693 12.8725C21.8879 13.2858 22.0777 13.5832 22.3804 13.8566C23.1746 14.5663 23.9742 15.2781 24.7256 16.0271C25.5285 16.833 26.2766 17.6936 27.0565 18.5225C27.1748 18.6248 27.3044 18.7136 27.4426 18.7871L27.4382 18.7849Z" fill="black"/>
<path d="M17.087 12.5729C16.9401 12.6016 16.7912 12.618 16.6416 12.6221C15.5557 12.5696 14.4709 12.4985 13.385 12.4504C11.9974 12.3892 10.6087 12.3301 9.21675 12.2995C8.76264 12.2897 8.44893 12.1825 8.32169 11.7047C8.212 11.2935 8.05295 10.8955 7.90816 10.4942C7.57909 9.5724 7.27086 8.63529 6.89572 7.73426C6.60066 7.02459 6.22113 6.34883 5.87232 5.66212C5.69417 5.2863 5.49608 4.9202 5.2789 4.56537C4.93777 4.0405 4.55934 3.53968 4.19517 3.02903C4.08587 2.89551 3.98407 2.75606 3.89023 2.61132C3.83872 2.52149 3.82455 2.41512 3.85074 2.31499C3.8789 2.27832 3.91507 2.24853 3.95651 2.22788C3.99794 2.20723 4.04355 2.19626 4.08987 2.1958C4.71071 2.1958 5.33265 2.2297 5.95459 2.22861C8.07927 2.22861 10.1897 2.43418 12.2924 2.70208C13.4409 2.84751 14.5828 3.06621 15.7148 3.31224C16.6208 3.50797 17.5082 3.79446 18.4043 4.0405C18.457 4.0558 18.514 4.07221 18.5623 4.08533C19.1469 4.22857 19.1645 4.23295 19.2051 4.84092C19.2862 6.04375 19.3455 7.24657 19.4244 8.44065C19.4793 9.25857 19.5594 10.0754 19.6142 10.8933C19.6088 11.0606 19.5868 11.2269 19.5484 11.3898C19.4057 11.3458 19.2676 11.2883 19.136 11.2181C18.627 10.8824 18.129 10.5303 17.6222 10.1913C17.2372 9.93324 16.8544 9.67737 16.4552 9.43462C15.8672 9.07268 15.2639 8.73479 14.6793 8.36629C14.325 8.1476 13.6844 8.09292 13.3422 8.30068C13.0186 8.49751 12.8102 9.01363 12.9111 9.46414C13.0021 9.87092 13.3498 10.0787 13.6647 10.2853C14.4051 10.7654 15.1553 11.229 15.9001 11.7014C16.2533 11.9256 16.6032 12.153 16.9542 12.3815C17.0047 12.4143 17.0497 12.4559 17.0979 12.4909L17.087 12.5729Z" fill="#66BB6A"/>
<path d="M22.1071 30.3496C21.518 30.3988 20.5999 30.2272 19.7038 29.9669C19.0686 29.7782 18.4518 29.5326 17.861 29.2332C16.6062 28.6088 15.5455 27.7461 14.6065 26.7357C14.0742 26.1387 13.5842 25.5055 13.14 24.8407C12.7981 24.3262 12.4825 23.7948 12.1944 23.2486C12.1228 23.119 12.0987 22.9686 12.1264 22.8232C12.1407 22.7675 12.3656 22.7357 12.4917 22.7423C13.4866 22.7937 14.4804 22.8691 15.4753 22.9151C16.7169 22.973 17.9597 23.0047 19.2047 23.0594C21.2764 23.1491 23.3484 23.2442 25.4208 23.3448C26.2599 23.3864 27.1001 23.4378 27.936 23.5176C28.1316 23.5436 28.3094 23.6443 28.4318 23.7986C28.7937 24.3202 29.1118 24.8724 29.4486 25.4115C29.7524 25.8959 30.0596 26.3781 30.3656 26.8614C30.5071 27.0856 30.4906 27.254 30.2636 27.4421C29.6054 27.9888 28.9473 28.5071 28.1696 28.8636C27.4786 29.184 26.7766 29.4869 26.0603 29.7471C24.9042 30.1692 23.6976 30.3343 22.1071 30.3496Z" fill="#66BB6A"/>
<path d="M23.5879 21.1666C20.8676 21.0518 18.1462 20.9414 15.4259 20.8189C14.0745 20.7577 12.7253 20.6735 11.3751 20.6002C11.2555 20.6009 11.1394 20.5604 11.0464 20.4854C10.9534 20.4105 10.8893 20.3058 10.865 20.1891C10.5897 19.3143 10.2913 18.4483 10.0182 17.5724C9.86683 17.088 9.74946 16.5883 9.61564 16.1017C9.50595 15.7157 9.38529 15.3362 9.29863 14.9459C9.20869 14.5402 9.28876 14.4505 9.71106 14.4713C11.3081 14.5478 12.9052 14.6342 14.5023 14.7173C16.3363 14.8114 18.1703 14.9174 20.0054 14.9929C20.3237 15.0062 20.6247 15.1413 20.8456 15.3701C21.7846 16.2449 22.7444 17.1044 23.6668 17.9945C24.1056 18.4176 24.4753 18.9086 24.8734 19.369C25.3122 19.8774 25.7586 20.3837 26.1897 20.8998C26.34 21.0781 26.2994 21.1852 26.0745 21.2344C25.9847 21.2498 25.8935 21.2553 25.8025 21.2508H23.5879V21.1666Z" fill="#66BB6A"/>
<path d="M32.1543 25.4925C31.9283 25.1754 31.7155 24.8889 31.5159 24.5893C31.0398 23.8599 30.5616 23.1306 30.1119 22.3859C29.9975 22.1793 29.9325 21.9492 29.9221 21.7134C29.8322 20.3783 29.7653 19.0421 29.6863 17.7058C29.5327 15.0888 29.3792 12.4717 29.2256 9.85467C29.2338 9.72666 29.2585 9.60024 29.2991 9.47852C29.4362 9.52444 29.6095 9.5321 29.7038 9.62286C30.4355 10.3292 31.1945 11.0149 31.8603 11.7803C32.3934 12.3926 32.8091 13.1067 33.2775 13.7748C33.7744 14.4834 34.0837 15.2871 34.3294 16.0973C34.6569 17.1704 34.788 18.2934 34.7166 19.4128C34.5547 21.6004 33.711 23.6828 32.3035 25.3689C32.2771 25.3952 32.2464 25.4149 32.1543 25.4925Z" fill="#66BB6A"/>
<path d="M27.442 18.7871C27.3043 18.7142 27.1751 18.6262 27.057 18.5247C26.2771 17.6958 25.529 16.8352 24.7261 16.0293C23.9747 15.2814 23.1751 14.5685 22.3809 13.8599C22.0782 13.5887 21.8884 13.2913 21.8698 12.8758C21.8446 12.3028 21.7941 11.7309 21.7601 11.1579C21.6555 9.39375 21.5532 7.62998 21.453 5.86656C21.4409 5.70302 21.4431 5.53875 21.4596 5.37559C21.4892 5.11316 21.5484 5.09347 21.7886 5.19517C22.3842 5.44448 22.9952 5.66974 23.5809 5.93217C24.0855 6.15743 24.5769 6.41439 25.0683 6.66808C25.4808 6.88022 25.8713 7.13828 26.2947 7.32417C26.7718 7.53083 26.9824 7.84576 26.9956 8.36844C27.0274 9.65327 27.0954 10.9359 27.1612 12.2186C27.2468 13.92 27.3393 15.6207 27.4387 17.3207C27.4563 17.6302 27.5001 17.9375 27.5232 18.2469C27.5342 18.4055 27.5232 18.5673 27.5232 18.728L27.442 18.7871Z" fill="#66BB6A"/>
</svg>
