<svg width="18" height="18" viewBox="0 0 18 18" fill="none" xmlns="http://www.w3.org/2000/svg">
<path d="M14.8438 2.51172C14.8824 1.35156 14.8523 0.105469 14.848 0.0625H3.12617C3.12617 0.105469 3.0918 1.35156 3.13047 2.51172H0.0625C0.0625 5.43359 0.487891 6.90742 0.964844 7.95586C1.4418 9.0043 2.09922 9.90234 3.48711 10.9766C4.78047 11.9777 7.59062 13.2797 7.96875 13.4516V14.6676C7.77109 15.0973 6.95898 15.8793 4.38945 15.8793H3.5V17.9418H14.5V15.8793H13.3957C10.7875 15.8793 10.173 15.0586 10.0312 14.6676V13.4516C10.4309 13.2539 13.5074 11.7199 14.5172 10.9809C15.6 10.1902 16.7043 8.76797 17.0395 7.96016C17.3746 7.15234 17.9375 5.17578 17.9375 2.51172H14.8438ZM2.70937 7.10508C2.33125 6.32305 2.10781 5.47656 2.03477 4.44531H3.26797C3.29805 4.70312 3.32812 4.93086 3.3668 5.1457C3.65039 6.83008 4.00273 8.16211 4.47109 9.29219C3.72773 8.71211 3.12617 7.96875 2.70937 7.10508ZM15.2906 7.10508C14.8652 7.97734 14.2594 8.725 13.5031 9.30938C13.9758 8.18359 14.3195 6.86875 14.6117 5.1457C14.6461 4.93086 14.6805 4.70312 14.7105 4.44531H15.9695C15.8922 5.47656 15.673 6.32305 15.2906 7.10508Z" fill="currentColor" />
</svg>
