<svg width="26" height="29" viewBox="0 0 26 29" fill="none" xmlns="http://www.w3.org/2000/svg">
<path d="M10.3426 25.703H4.01909C3.39729 25.703 3.2724 25.5781 3.2724 24.9555V20.0356C3.2724 19.4261 3.42367 19.2819 4.02612 19.2819C4.41925 19.2819 4.8115 19.2555 5.20463 19.288C6.08412 19.3663 6.68481 18.9406 7.15006 18.252C7.85365 17.2221 8.09375 16.0612 8.12629 14.8343C8.13245 14.428 8.24414 13.9619 8.08056 13.6408C7.92929 13.3453 7.45172 13.2336 7.13687 13.0111C6.64611 12.6593 6.13513 12.3075 5.69627 11.8889C5.33216 11.5475 4.9275 11.2521 4.49137 11.0094C2.82738 10.0719 1.50111 8.79223 0.678793 7.04118C0.263311 6.15957 0.035975 5.20111 0.0112622 4.22682C-0.00896598 3.50476 0.00422751 2.78358 0.00422751 2.06152C0.00422751 1.59627 0.194197 1.41246 0.666481 1.41246C1.1115 1.41246 1.56356 1.39926 2.00858 1.41949C2.29705 1.43268 2.44129 1.34737 2.40787 1.03252C2.39498 0.856856 2.39498 0.680486 2.40787 0.504825C2.42809 0.176776 2.57233 0.0325403 2.8995 0.00615571C2.98745 -6.97862e-07 3.0754 0 3.16334 0H17.7672C18.1146 0.0193487 18.265 0.163584 18.2782 0.510982C18.2844 0.707987 18.2914 0.904992 18.2782 1.102C18.265 1.33154 18.3662 1.40982 18.586 1.40982C19.0636 1.40366 19.5482 1.40366 20.0266 1.40982C20.4787 1.40982 20.6819 1.59363 20.6748 2.03953C20.6555 3.04303 20.6819 4.05356 20.5772 5.05002C20.4127 6.61111 19.6792 7.92946 18.6423 9.08422C17.8174 10.0024 16.8218 10.7042 15.7347 11.2829C15.5721 11.3689 15.4237 11.4795 15.295 11.611C14.5914 12.3462 13.8148 12.9628 12.8782 13.37C12.6293 13.4746 12.544 13.6259 12.544 13.8977C12.544 14.9601 12.5633 16.0155 12.9301 17.0322C13.1789 17.7278 13.507 18.3769 14.0831 18.8624C14.3864 19.1364 14.7816 19.2865 15.1903 19.2828C15.7268 19.2696 16.258 19.2757 16.7945 19.2828C17.2202 19.2889 17.404 19.4525 17.404 19.8791C17.4102 21.6301 17.4102 23.375 17.404 25.127C17.404 25.5667 17.2334 25.6969 16.7558 25.7039L10.3426 25.703ZM10.3751 0.968315H3.76404C3.55472 0.968315 3.3709 0.955123 3.3709 1.25679C3.3709 3.02807 3.31901 4.79848 3.79042 6.53371C4.21609 8.11679 4.89682 9.56442 5.98474 10.7975C6.86863 11.801 7.92929 12.5485 9.25907 12.837C10.9424 13.2046 12.449 12.7719 13.7585 11.7025C15.8614 9.98394 16.857 7.66209 17.1885 5.03858C17.3398 3.83808 17.2941 2.61823 17.3328 1.41158C17.346 0.977989 17.3266 0.971832 16.893 0.971832L10.3751 0.968315ZM10.3426 24.7453C12.2546 24.7453 14.1605 24.7391 16.0733 24.7514C16.3548 24.7514 16.4533 24.6635 16.4533 24.3776C16.4404 23.1311 16.4404 21.8849 16.4533 20.6389C16.4594 20.3443 16.3416 20.2722 16.0672 20.2722C12.2561 20.2786 8.44496 20.2786 4.63385 20.2722C4.33922 20.2722 4.23456 20.3601 4.2416 20.6653C4.25391 21.879 4.24775 23.0927 4.24775 24.3055C4.24775 24.7453 4.24775 24.7453 4.70597 24.7453H10.3426ZM13.0215 19.2485C12.991 19.1753 12.9536 19.1052 12.9098 19.0391C12.3681 18.3631 12.0036 17.5627 11.8492 16.7103C11.7111 15.8774 11.6522 15.0243 11.5853 14.1782C11.5651 13.9029 11.5062 13.844 11.2186 13.8704C10.6649 13.9129 10.1091 13.9194 9.55458 13.8897C9.11484 13.8704 9.11484 13.837 9.11484 14.2961V14.362C9.12803 16.0805 8.80701 17.7041 7.73932 19.1113C7.72215 19.1581 7.7092 19.2064 7.70062 19.2555C9.46839 19.2485 11.2221 19.2485 13.0189 19.2485H13.0215ZM16.9792 9.20647C16.9924 9.21967 17.0118 9.23286 17.0249 9.24605C17.1181 9.18558 17.2076 9.11981 17.2932 9.04904C19.265 7.35076 19.907 5.15292 19.6836 2.6411C19.6654 2.58146 19.6325 2.52734 19.5879 2.48371C19.5434 2.44007 19.4886 2.40831 19.4286 2.39132C19.1359 2.37078 18.8423 2.36638 18.5491 2.37813C18.3591 2.37813 18.2738 2.48367 18.28 2.66749C18.287 2.81172 18.28 2.94892 18.28 3.09316C18.3172 4.70063 18.0596 6.30132 17.5201 7.816C17.3477 8.28829 17.1577 8.75178 16.9748 9.20647H16.9792ZM3.68312 9.25221C3.69681 9.23359 3.71211 9.21623 3.72885 9.20032C3.69016 9.10181 3.65674 8.99627 3.611 8.89865C3.07062 7.77443 2.71882 6.56898 2.56969 5.33057C2.48174 4.47747 2.45184 3.61205 2.4193 2.75279C2.40611 2.48367 2.33135 2.37198 2.05871 2.38517C1.81879 2.39836 1.57833 2.39836 1.33841 2.38517C1.07456 2.37198 0.991011 2.49686 0.998047 2.73696C1.0042 3.08876 1.0042 3.44055 0.998047 3.78619C0.945278 5.97699 1.88193 7.70167 3.47996 9.11852C3.54155 9.16966 3.60814 9.21445 3.67873 9.25221H3.68312Z" fill="#262626"/>
<path d="M25.7569 22.3199C25.7292 22.5004 25.6913 22.6793 25.6434 22.8555C25.5132 23.2882 25.2476 23.5257 24.7639 23.4104C24.6003 23.3718 24.4306 23.3603 24.267 23.3225C23.8123 23.2126 23.4526 23.3093 23.245 23.7684C23.2292 23.8014 23.2074 23.8312 23.1808 23.8564C22.4623 24.5599 22.2899 25.2978 22.9742 26.1518C23.2494 26.4966 23.1149 26.8642 22.7446 27.1192C22.3744 27.3743 22.0067 27.6285 21.6268 27.8659C21.1932 28.1368 20.7473 28.0796 20.5063 27.6461C20.0393 26.8167 19.4421 26.7947 18.5714 26.9618C17.8309 27.1043 17.5926 27.4306 17.422 28.0638C17.203 28.8782 16.9769 28.9767 16.1529 28.8114L16.0429 28.7894C14.5232 28.4763 14.517 28.4763 14.5557 26.9196C14.5636 26.5792 14.4774 26.3321 14.1432 26.2099C14.1072 26.1991 14.0737 26.1811 14.0447 26.1571C13.3253 25.4649 12.5953 25.238 11.7106 25.939C11.4045 26.1817 10.9903 26.0436 10.7431 25.6663C10.5171 25.3216 10.2761 24.9865 10.0527 24.6409C9.69566 24.0877 9.75107 23.8291 10.2515 23.3832C10.5365 23.129 10.9911 22.8555 11.0131 22.56C11.0553 22.0041 10.912 21.4008 10.7018 20.8749C10.6086 20.6418 10.1811 20.4976 9.87684 20.4044C8.9481 20.1203 8.89709 20.0631 9.09233 19.0957C9.16621 18.7281 9.24449 18.3613 9.32364 17.9946C9.41159 17.5733 9.69478 17.4079 10.1029 17.4387C10.2899 17.4476 10.4755 17.4753 10.6569 17.5214C11.2084 17.6762 11.4652 17.3816 11.7915 16.97C12.3913 16.2154 12.5637 15.5496 11.9199 14.7352C11.656 14.3992 11.8249 14.0079 12.1767 13.7625C12.5742 13.4837 12.9893 13.2286 13.3974 12.9639C13.7607 12.7291 14.1336 12.7783 14.3235 13.1354C14.8706 14.1662 15.6727 14.1486 16.6348 13.8601C17.0192 13.7449 17.2786 13.6174 17.3762 13.2198C17.4299 13.0017 17.5196 12.7933 17.5767 12.576C17.6999 12.1073 18.0165 11.9419 18.4642 12.0176C18.8881 12.0879 19.3067 12.1935 19.7297 12.2682C20.2689 12.3685 20.5521 12.7194 20.4272 13.2286C20.2073 14.1239 20.5512 14.5883 21.3067 15.0703C21.8827 15.437 22.2503 15.4678 22.8018 15.1415C23.6575 14.6323 23.8281 14.7018 24.3849 15.5364L24.4473 15.6296C25.2696 16.8732 25.4614 16.8706 24.1324 17.911C24.0854 17.9418 24.0412 17.9768 24.0005 18.0157C23.6391 18.4299 24.0832 20.1528 24.5995 20.3446C24.6338 20.3577 24.6698 20.3674 24.7059 20.3797C26.0207 20.816 26.0207 20.816 25.7569 22.3199ZM24.3954 16.9225C24.394 16.8135 24.3851 16.7048 24.369 16.5971C24.1184 15.6349 23.5106 15.3658 22.6725 15.8381C22.5749 15.8935 22.4764 15.948 22.3805 16.0069C22.0771 16.1934 21.8247 16.1969 21.5292 15.9304C21.1712 15.6085 20.7772 15.2857 20.3401 15.1037C19.7588 14.8618 19.7016 14.503 19.7922 13.9604C19.9575 12.9525 19.8661 12.8891 18.9127 12.6693C18.3489 12.5391 18.0526 12.7001 17.954 13.2673C17.9285 13.4133 17.8511 13.5496 17.8151 13.6948C17.7043 14.1433 17.4906 14.4124 16.9611 14.3808C16.6348 14.3605 16.2936 14.4564 15.9699 14.5435C14.9392 14.817 14.9392 14.824 14.2778 13.9648C14.1986 13.8619 14.1336 13.7203 14.0271 13.671C13.8759 13.6006 13.6701 13.5312 13.5267 13.5831C12.4652 13.9349 12.3148 14.3465 12.8671 15.2937C12.8916 15.3441 12.9189 15.3932 12.9489 15.4405C13.2127 15.8002 13.1758 16.1177 12.8609 16.444C12.6251 16.6855 12.4185 16.9538 12.2453 17.2435C11.7009 18.174 11.7097 18.1793 10.6622 18.0632C9.9041 17.9752 9.82495 18.0341 9.6728 18.7668C9.47139 19.7272 9.48898 19.7553 10.4239 20.0042C10.5129 20.0336 10.6041 20.0562 10.6965 20.0719C11.1512 20.1264 11.3122 20.407 11.3535 20.8379C11.4001 21.3014 11.4414 21.7843 11.6103 22.2108C11.8135 22.7324 11.6983 23.0534 11.2585 23.3542C10.0941 24.1527 10.4503 24.129 10.9947 25.056C11.014 25.0885 11.0395 25.1167 11.0597 25.1483C11.2356 25.4122 11.4634 25.5001 11.7194 25.2934C12.5927 24.5846 13.2637 24.9293 14.1274 25.4693C15.0069 26.0234 15.2971 26.5863 15.079 27.544C15.0429 27.7032 15.1845 28.0084 15.3297 28.0858C16.2865 28.6003 16.7755 28.3787 17.0614 27.3479C17.0899 27.2587 17.1137 27.1679 17.1326 27.0762C17.2038 26.6478 17.4571 26.5027 17.8819 26.4913C18.2925 26.4907 18.7003 26.4235 19.0895 26.2925C19.6849 26.0718 20.0754 26.2345 20.4395 26.7235C21.0551 27.5511 21.0736 27.5379 21.9241 26.9583C21.9865 26.9161 22.0445 26.8704 22.1087 26.8308C22.435 26.6382 22.4992 26.3347 22.2961 26.0647C21.7183 25.2952 21.8563 24.7174 22.4095 23.9135C22.9768 23.0947 23.3954 22.4729 24.486 22.8537C24.8308 22.9742 25.0357 22.7658 25.128 22.414C25.4701 21.1124 25.4675 21.0992 24.1791 20.7957C24.143 20.7869 24.1061 20.7773 24.0691 20.7711C23.7173 20.7183 23.5766 20.524 23.5414 20.1625C23.5001 19.6999 23.442 19.2215 23.2776 18.7923C23.0551 18.2021 23.1527 17.8037 23.705 17.4845C23.9864 17.3235 24.2019 17.0861 24.3989 16.9207L24.3954 16.9225Z" fill="black"/>
<path d="M24.397 16.9209C24.2 17.0862 23.9845 17.3237 23.7215 17.4767C23.1692 17.796 23.0716 18.1944 23.2941 18.7845C23.455 19.2137 23.5131 19.6922 23.5579 20.1548C23.5905 20.5162 23.7338 20.7106 24.0856 20.7634C24.1226 20.7695 24.1595 20.7792 24.1956 20.788C25.484 21.0914 25.4867 21.1046 25.1445 22.4063C25.0566 22.7581 24.8473 22.9691 24.5025 22.846C23.412 22.4652 22.9933 23.087 22.426 23.9058C21.8693 24.7096 21.7348 25.2875 22.3126 26.057C22.5158 26.327 22.4515 26.6304 22.1253 26.823C22.0611 26.8609 22.003 26.911 21.9406 26.9506C21.0901 27.5302 21.0725 27.5433 20.456 26.7157C20.0919 26.2268 19.7014 26.064 19.106 26.2848C18.7168 26.4158 18.309 26.4829 17.8984 26.4836C17.4737 26.495 17.2204 26.6401 17.1491 27.0684C17.1302 27.1602 17.1065 27.2509 17.0779 27.3402C16.792 28.3709 16.3031 28.5926 15.3462 28.0781C15.2011 28.0007 15.0595 27.6955 15.0955 27.5363C15.3136 26.5785 15.0278 26.0157 14.1439 25.4616C13.2803 24.9198 12.6092 24.5751 11.7359 25.2857C11.4799 25.4933 11.2486 25.4079 11.0763 25.1406C11.056 25.1089 11.0305 25.0808 11.0112 25.0482C10.4641 24.1213 10.1079 24.145 11.275 23.3464C11.7148 23.0474 11.8317 22.7264 11.6268 22.2031C11.4606 21.7765 11.4166 21.2937 11.37 20.8302C11.326 20.3993 11.1677 20.1187 10.713 20.0642C10.6206 20.0485 10.5294 20.0258 10.4404 19.9965C9.50549 19.7476 9.4879 19.7194 9.68931 18.759C9.84146 18.0299 9.92061 17.9745 10.6787 18.0554C11.7227 18.1715 11.7139 18.1662 12.2618 17.2358C12.435 16.9461 12.6416 16.6778 12.8774 16.4363C13.1888 16.11 13.2292 15.7925 12.9654 15.4328C12.9354 15.3854 12.9081 15.3364 12.8836 15.2859C12.3313 14.3387 12.4817 13.9271 13.5432 13.5753C13.6866 13.527 13.895 13.5964 14.0436 13.6633C14.1501 13.7125 14.2152 13.8541 14.2943 13.957C14.9566 14.8145 14.9539 14.8075 15.9908 14.5287C16.3145 14.4407 16.6557 14.3458 16.982 14.366C17.5097 14.3976 17.7252 14.1285 17.836 13.68C17.8721 13.5349 17.9495 13.3985 17.975 13.2526C18.0735 12.6853 18.3698 12.5243 18.9336 12.6545C19.8861 12.8744 19.9776 12.9377 19.8131 13.9456C19.7251 14.4918 19.7797 14.8506 20.361 15.0889C20.8007 15.271 21.1921 15.5937 21.5501 15.9156C21.8456 16.1795 22.098 16.1795 22.4014 15.9922C22.4973 15.9332 22.5958 15.8787 22.6934 15.8233C23.5316 15.3493 24.1393 15.6201 24.3899 16.5823C24.4002 16.6949 24.4026 16.808 24.397 16.9209ZM16.6874 24.2549C18.7735 24.6753 20.9089 23.3016 21.281 21.2207C21.6899 18.9499 20.4015 17.0933 18.2467 16.6298C16.092 16.1663 14.085 17.5207 13.6391 19.6904C13.1932 21.8601 14.7253 23.9031 16.6874 24.2549Z" fill="#FDD835"/>
<path d="M16.693 24.2547C14.7308 23.9029 13.197 21.8686 13.6447 19.6902C14.0923 17.5117 16.1011 16.1669 18.2523 16.6295C20.4035 17.0921 21.6955 18.9496 21.2865 21.2205C20.9119 23.3022 18.7791 24.676 16.693 24.2547ZM16.7519 23.7173C17.1837 23.8111 17.6298 23.8182 18.0645 23.7384C18.4991 23.6586 18.9135 23.4934 19.2839 23.2524C19.6542 23.0113 19.9731 22.6993 20.2221 22.3342C20.471 21.9691 20.6451 21.5583 20.7342 21.1255C21.115 19.3366 19.918 17.5345 18.1045 17.1678C16.3561 16.816 14.5584 17.9813 14.1864 19.7139C13.7995 21.5081 14.9753 23.3409 16.7519 23.7182V23.7173Z" fill="black"/>
</svg>
