<svg id="Layer_1" data-name="Layer 1" xmlns="http://www.w3.org/2000/svg" width="2500" height="1250" viewBox="0 0 2500 1250"><defs><style>.cls-1{font-size:221.94px;font-family:Verdana-Bold, Verdana;font-weight:700;}.cls-1,.cls-4{fill:#fff;}.cls-2,.cls-3{fill:#a5a4a4;}.cls-2{letter-spacing:0em;}.cls-5{fill:#d1d3d4;}</style></defs><text class="cls-1" transform="translate(1485.81 456.95) scale(0.91 1)">D<tspan class="cls-2" x="184.23" y="0">igital</tspan><tspan x="0" y="266.33">S</tspan><tspan class="cls-3" x="157.68" y="266.33" xml:space="preserve">ociety  </tspan><tspan x="0" y="532.67">L</tspan><tspan class="cls-3" x="141.42" y="532.67">ab </tspan></text><path class="cls-4" d="M470.12,185.4c.7,1.88,1.33,3.8,2.09,5.65q18.6,45,37.23,89.9,12,29,24,58.08c.52,1.27,1,2.56,1.48,3.77-.31.36-.46.68-.71.82-6.71,3.55-13.43,7.08-20.09,10.58-1.53-.27-2.55-1.28-3.68-2.08l-31.55-22.34L448.15,308c-1.14-.81-2.3-1.57-3.2-2.17a1.92,1.92,0,0,0-1.91.69c-.92.84-1.78,1.74-2.65,2.62q-43.81,43.81-87.63,87.63a19.3,19.3,0,0,0-3.4,3.72c0,1.45,1,2.3,1.72,3.28q8.31,11.81,16.68,23.57,13.88,19.56,27.74,39.14c.81,1.14,1.59,2.3,2.39,3.47a5.33,5.33,0,0,1-.36,1.35c-3.46,6.24-6.86,12.52-9.94,19a3.48,3.48,0,0,1-.76,1.17,1.64,1.64,0,0,1-1.2.47,27.26,27.26,0,0,1-3.5-1.2l-43.84-18.17L230.83,428c-.71-.29-1.46-.49-2.19-.74a9.44,9.44,0,0,1,1.29-3.44,485.21,485.21,0,0,1,55.25-91.75c.94-1.23,1.85-2.49,2.77-3.73,1,.38,2,.7,3,1.14a64.09,64.09,0,0,0,16.4,4.9,60,60,0,0,0,29.3-2.58,61.11,61.11,0,0,0,41.27-59.57,62,62,0,0,0-5.45-23.84c-.5-1.12-1-2.25-1.51-3.38,1.38-1,2.77-2,4.12-3a487.65,487.65,0,0,1,90.73-54.93C467.23,186.45,468.69,186,470.12,185.4Z"/><path class="cls-4" d="M228.93,828.26a15.47,15.47,0,0,1,4.18-2q21.25-8.84,42.53-17.64L380.9,765c1.43-.6,2.88-1.16,4.32-1.72a1.28,1.28,0,0,1,1.55.66c.15.27.29.55.42.83,3.18,6.57,6.6,13,10.17,19.37.22.4.36.85.55,1.29a16.25,16.25,0,0,1-2.46,3.93l-36.07,50.91q-4.31,6.08-8.61,12.16a10.33,10.33,0,0,0-1.21,2,1.78,1.78,0,0,0,.14,1.29,3.83,3.83,0,0,0,.87,1.07c.86.89,1.74,1.77,2.62,2.65q43.63,43.64,87.28,87.26a21.71,21.71,0,0,0,3.69,3.43c1.55-.28,2.55-1.31,3.67-2.1q15-10.61,30-21.26Q494,915.3,510.13,903.86a35.34,35.34,0,0,1,3.12-2,2.59,2.59,0,0,1,1.34-.07,2.3,2.3,0,0,1,.85.34c5.67,3.22,11.41,6.29,17.28,9.13a7.45,7.45,0,0,1,.79.5,1.35,1.35,0,0,1,.67,1.56c-.5,1.31-1,2.61-1.54,3.9q-25,60.42-50,120.83-5.61,13.56-11.22,27.09c-.53,1.29-1,2.61-1.5,3.91-1.43-.6-2.88-1.15-4.28-1.81a485.5,485.5,0,0,1-91.71-55.76c-1.11-.85-2.21-1.71-3.31-2.57.59-1.6,1.16-3.2,1.78-4.79a59.69,59.69,0,0,0,3.1-34.31,61.22,61.22,0,0,0-82.8-45.06c-1.43.57-2.9,1.08-4.35,1.63-6.92-8.59-13.32-17.56-19.5-26.69a485.34,485.34,0,0,1-39-69.26C229.48,829.7,229.22,829,228.93,828.26Z"/><path class="cls-4" d="M841.9,173.19,783.47,314.24c-1.84,4.45-3.66,8.89-5.52,13.33a12.78,12.78,0,0,1-1.11,2,1,1,0,0,1-.79.39,8.47,8.47,0,0,1-1.79-.42c-6.33-2.09-12.67-4.15-19.12-5.84a2.54,2.54,0,0,1-2.08-2.2c-.48-2.9-1.06-5.8-1.56-8.7q-3.21-18.81-6.41-37.63Q742.53,260,740,244.89c-.26-1.53-.58-3-.88-4.57a1.41,1.41,0,0,0-1.28-1.13c-.47,0-.93-.08-1.4-.09H609.75c-1.7,0-3.4.06-4.74.08a1.91,1.91,0,0,0-1.2,1.7c-.48,2.43-.95,4.87-1.36,7.32q-3.93,23.18-7.83,46.36c-1.5,8.87-3.06,17.73-4.54,26.61a2.89,2.89,0,0,1-2.29,2.58c-6.89,1.83-13.69,4-20.43,6.31a1.53,1.53,0,0,1-2.2-1q-3.33-7.95-6.62-15.9l-56.27-135.9c-.59-1.43-1.28-2.82-1.92-4.23a4.23,4.23,0,0,1,2-1.09c14.22-5.32,28.68-9.87,43.34-13.82q17.94-4.83,36.22-8.22c8.83-1.64,17.69-3.15,26.63-4.14,1.07-.12,2.12-.42,3.19-.63.52,1.29,1.07,2.57,1.55,3.87a61.31,61.31,0,0,0,114.72.46c.55-1.45,1.12-2.88,1.68-4.33.9.2,1.8.48,2.72.6a482.73,482.73,0,0,1,104.81,25.5C838.81,171.78,840.34,172.52,841.9,173.19Z"/><path class="cls-4" d="M871.57,1069c-3-7.17-5.86-14.36-8.83-21.53q-27.07-65.36-54.16-130.72c-.35-.86-.71-1.72-1-2.59a1.5,1.5,0,0,1,.79-1.94c2.21-1.11,4.47-2.16,6.66-3.32,4-2.1,8-4.15,11.86-6.44,1.79-1.06,3.08-.78,4.63.35,4.51,3.29,9.1,6.48,13.66,9.71l49.39,35c1.26.89,2.55,1.74,3.59,2.45a2,2,0,0,0,1.89-.78c.9-.86,1.77-1.74,2.65-2.62q43.8-43.8,87.6-87.61a21.12,21.12,0,0,0,3.3-3.53,2.65,2.65,0,0,0-.83-2.33Q985.62,843,978.47,833q-15.63-22-31.24-44.07a28.93,28.93,0,0,1-1.8-2.71,1.87,1.87,0,0,1-.08-1.32,9.18,9.18,0,0,1,.81-1.67q4.56-8.66,9.12-17.29a10.9,10.9,0,0,1,.94-1.59,1.07,1.07,0,0,1,1.23-.43c1.3.48,2.61,1,3.9,1.5q71.76,29.7,143.52,59.44c2.57,1.06,5.26,1.87,7.61,3.44-1.68,3.65-3.3,7.34-5,11a483.35,483.35,0,0,1-53.88,86.61c-.38.49-.81.94-1.22,1.4a21.06,21.06,0,0,1-2.21-.71,64.88,64.88,0,0,0-16.53-4.6,57.65,57.65,0,0,0-20.38.67,61.4,61.4,0,0,0-49,60.43,59,59,0,0,0,4.31,22.28c.58,1.44,1.07,2.91,1.59,4.36-1.12.82-2.27,1.62-3.38,2.47a488.14,488.14,0,0,1-91.29,55.31C874.17,1068,872.86,1068.5,871.57,1069Z"/><path class="cls-4" d="M1112.4,426.24,959.82,489.45c-4.25,1.76-3.69,2-5.84-2.14q-3.76-7.21-7.63-14.39c-1.55-2.88-1.53-2.64.39-5.37q5.78-8.18,11.58-16.34,16.56-23.37,33.13-46.75c.8-1.13,1.56-2.3,2.41-3.55a12.49,12.49,0,0,0-1-1.54c-.72-.81-1.51-1.56-2.28-2.33q-44-44-88-88a20.28,20.28,0,0,0-3.71-3.41c-1.43.09-2.29,1.1-3.27,1.79q-18.47,13-36.87,26.11l-25.46,18.05c-1.26.89-2.57,1.72-3.92,2.63a11.57,11.57,0,0,1-1.75-.63c-6-3.33-12-6.56-18.13-9.52a3.39,3.39,0,0,1-1.15-.76,1.57,1.57,0,0,1-.43-1.2c.4-1.33.9-2.64,1.43-3.93q12-29,24.07-58.06l38.13-92.05c.3-.71.62-1.42.93-2.13,1.32,0,2.34.77,3.45,1.29a485.54,485.54,0,0,1,64.84,36.48q14.73,9.84,28.69,20.73c.49.38.93.81,1.4,1.21-.59,1.44-1.18,2.87-1.75,4.31A59.1,59.1,0,0,0,966,284.7c4.28,19.7,15.56,34.13,33.67,43.1a59.17,59.17,0,0,0,20.47,5.68,64.14,64.14,0,0,0,15.3-.4,58.25,58.25,0,0,0,13.85-3.82c1.29-.52,2.6-1,3.89-1.49.89,1.27,1.73,2.57,2.66,3.79a487.11,487.11,0,0,1,55,90.81C1111.43,423.63,1111.89,425,1112.4,426.24Z"/><path class="cls-4" d="M216.13,457.71q33.52,13.88,67,27.74l84.65,35.08c.72.3,1.43.61,2.15.9,4.24,1.77,3.92,1.38,2.58,5.69-1.75,5.63-3.48,11.26-5.15,16.92a3,3,0,0,1-2.48,2.4l-17.9,3-18.81,3.17L308.5,556l-19.26,3.32c-1.22.21-2.47.31-3.68.57a25.46,25.46,0,0,0-2.63.89,19.27,19.27,0,0,0-.23,1.93c0,1.4,0,2.8,0,4.2q0,61,0,122c0,1.56,0,3.11,0,4.66,0,1.32.57,1.86,2,2.1,11.62,2,23.25,3.89,34.87,5.88s23.53,4.08,35.3,6.11c2.59.45,5.21.81,7.81,1.25a30.91,30.91,0,0,1,3.17.71,1.79,1.79,0,0,1,1.29,1.22c.32,1,.61,2.09.92,3.13q2.18,7.13,4.34,14.24c.27.89.55,1.78.81,2.68a1.59,1.59,0,0,1-.95,1.88c-1,.44-2,.84-3,1.25q-20.83,8.66-41.68,17.29-53.71,22.24-107.44,44.46c-1.29.54-2.6,1-3.89,1.53-.44-1-.95-1.93-1.32-2.94a488.14,488.14,0,0,1-19.22-66.77c-2-9.38-3.65-18.82-5.18-28.28-.52-3.21-.83-6.44-1.3-9.66-.17-1.21-.51-2.4-.78-3.61l5.57-2.33A61.3,61.3,0,0,0,193.09,570l-4.31-1.71q1.13-7.81,2.24-15.64c1.45-10,3.42-19.83,5.56-29.67a479.33,479.33,0,0,1,17.07-59.32C214.38,461.66,214.82,459.5,216.13,457.71Z"/><path class="cls-4" d="M1125.18,797.32c-6.74-2.76-13.5-5.49-20.23-8.27L974.27,734.93c-.72-.3-1.43-.61-2.15-.9-3-1.25-3-1.29-2-4.41,1.76-5.47,3.38-11,5.05-16.47.31-1,.65-2,.93-2.85a6.37,6.37,0,0,1,3.25-1.21c6.12-1.05,12.24-2,18.36-3.08,6.43-1.09,12.84-2.21,19.27-3.31l18.81-3.18,22.94-3.9a1.74,1.74,0,0,0,1.47-1.57c.06-1.7.12-3.41.12-5.11q0-55.46,0-110.9c0-4.35,0-8.7,0-13,0-1.09,0-2.18-.1-3.26a1.55,1.55,0,0,0-1.07-1.38,6.2,6.2,0,0,0-1.33-.41c-6.12-1-12.24-2-18.36-3.07l-24.31-4.16q-9.63-1.65-19.27-3.27l-17.9-3a2.63,2.63,0,0,1-2.26-2c-1.47-5.07-3-10.12-4.55-15.16-.73-2.37-1.55-4.72-2.29-7a4,4,0,0,1,2.28-1.74c4.44-1.83,8.87-3.7,13.32-5.54l136.27-56.43c1.43-.59,2.9-1.07,4.35-1.61.33.7.7,1.38,1,2.09a484.78,484.78,0,0,1,17.81,59.57c2.82,12.23,5.1,24.55,7.06,36.94.7,4.44,1.22,8.9,1.82,13.35l-3.91,1.48a61.29,61.29,0,0,0-38.48,67.9,59.92,59.92,0,0,0,15.88,31.5,60.63,60.63,0,0,0,22.17,15c1.42.56,3,.8,4.22,1.86-.45,3.07-.91,6.14-1.34,9.21a484.7,484.7,0,0,1-25.45,100.32A8.46,8.46,0,0,1,1125.18,797.32Z"/><path class="cls-4" d="M500.24,1081.56c2.94-7,5.91-14,8.82-21q27-65.16,54-130.32c.48-1.14.92-2.31,1.44-3.43a10.66,10.66,0,0,1,.94-1.45,5.88,5.88,0,0,1,1.08.09c7.3,2.62,14.78,4.69,22.18,7a5.45,5.45,0,0,1,.95.57c1,4.4,1.63,9,2.43,13.58.83,4.74,1.68,9.48,2.48,14.22s1.49,9.19,2.28,13.78,1.63,9.17,2.42,13.76,1.45,9.51,2.38,14.23c.89,4.55,1.18,9.21,2.65,13.73a16.31,16.31,0,0,0,1.89.3c1.4,0,2.8,0,4.19,0q61.26,0,122.52,0c7.48,0,5.87.78,7.11-6,2.31-12.52,4.34-25.08,6.47-37.63,2-11.78,3.95-23.57,5.95-35.35.26-1.52.6-3,.86-4.33a3.89,3.89,0,0,1,2.55-1.46C762,930.19,768,928.3,774,926.23c.29-.1.6-.16.9-.24a1.67,1.67,0,0,1,2,.81c.52,1.13,1,2.27,1.49,3.42q7.49,18.06,15,36.13L839,1076.45c.72,1.72,1.51,3.4,2.26,5.1-.84.38-1.67.81-2.54,1.13a481.58,481.58,0,0,1-59.55,17.78c-10.26,2.36-20.59,4.37-31,6.1-5.5.92-11,1.54-16.56,2.3-1.05-1.42-1.16-3.18-1.67-4.79a60.82,60.82,0,0,0-25.65-33.79,59.71,59.71,0,0,0-27.47-9.38A61.21,61.21,0,0,0,612.34,1105c-.37,1.33-.5,2.77-1.37,3.93-6.63-.69-13.21-1.77-19.8-2.84-11.33-1.82-22.56-4.14-33.72-6.82a484,484,0,0,1-55.11-16.76A22.23,22.23,0,0,1,500.24,1081.56Z"/><path class="cls-5" d="M913.08,786.81c5.15,7.49,10.33,14.65,15.43,21.88S938.57,822.88,943.6,830l15.19,21.45a2.13,2.13,0,0,1-.71,1.9c-.74.79-1.51,1.56-2.28,2.33Q927.63,883.82,899.46,912c-4.21,4.2-3.18,4-7.84.72q-28.73-20.3-57.41-40.65c-1.25-.89-2.39-2-4-2.41a14,14,0,0,0-4,2.16c-7.79,4.82-15.71,9.41-23.88,13.56a284,284,0,0,1-62.28,23,71.65,71.65,0,0,1-7.24,1.71c-2.35.31-3.09,1.63-3.41,3.68-.69,4.45-1.48,8.88-2.24,13.32q-2.62,15.38-5.25,30.75-2,11.94-4,23.87c-.24,1.38-.54,2.75-.72,4.13-.61,4.6-.74,4.3-5.32,4.3H631.18c-1.08,0-2.17,0-3.25-.09a1.5,1.5,0,0,1-1.39-1c-.3-1.36-.63-2.72-.86-4.1q-3.23-18.81-6.43-37.64-2.89-17-5.77-34a12.76,12.76,0,0,0-.27-1.37,1.8,1.8,0,0,0-1.23-1.29q-2.44-.71-5-1.28a284.86,284.86,0,0,1-87.84-36c-1.84-1.14-3.71-2.24-5.58-3.35a1.63,1.63,0,0,0-1.76.07c-1.05.67-2.07,1.38-3.08,2.09l-57,40.4c-1,.72-2,1.45-3.05,2.14s-1.8.67-2.87-.35c-.79-.75-1.54-1.53-2.31-2.3q-28-28-56-56c-1.1-1.1-2.15-2.24-3.17-3.4a.91.91,0,0,1-.1-.86,23.85,23.85,0,0,1,1.47-2.36q11.17-15.78,22.36-31.55l20.19-28.52c.53-.75,1-1.53,1.36-2a2.44,2.44,0,0,0-.45-2.07c-1.29-2.12-2.6-4.23-3.9-6.35a285.67,285.67,0,0,1-34.75-84.47c-.6-2.55-.95-5.19-2-7.47a5,5,0,0,0-2.69-1.1c-6.11-1-12.24-2-18.36-3.06l-18.81-3.21-19.27-3.29c-6-1-11.93-2-17.89-3-1.54-.26-2-.86-2-2.59,0-.46,0-.93,0-1.4,0-.77,0-1.55,0-2.32q0-39.15,0-78.29a27,27,0,0,1,.14-4.89,4.49,4.49,0,0,1,3.09-1.35c6.11-1.06,12.24-2.05,18.36-3.09,6.42-1.09,12.84-2.21,19.26-3.31l18.81-3.18q9-1.51,17.9-3a2.21,2.21,0,0,0,1.89-1.8c.8-3.31,1.65-6.62,2.46-9.94a283.21,283.21,0,0,1,34.29-81.67c1.14-1.85,2.28-3.7,3.4-5.56.31-.53.53-1.1.82-1.72-1.47-2.64-3.34-4.92-5-7.34s-3.42-4.81-5.12-7.22-3.41-4.82-5.12-7.22-3.41-4.82-5.12-7.22l-5.11-7.23-5.13-7.22c-1.7-2.4-3.4-4.82-5.11-7.22s-3.44-4.8-5.12-7.22-3.51-4.73-5-7.27a7.11,7.11,0,0,1,.73-1.28c.72-.81,1.5-1.57,2.27-2.33q28.33-28.35,56.67-56.67c.88-.88,1.78-1.74,2.68-2.59a1.53,1.53,0,0,1,1.73-.21c1.29.86,2.58,1.72,3.84,2.62l56.25,39.86c1.39,1,2.79,2,4,2.79a3.38,3.38,0,0,0,2.4-.75c1.73-1,3.44-2.11,5.16-3.17a282.81,282.81,0,0,1,84.75-35.1c2.71-.63,5.4-1.36,8.19-2.07a9.88,9.88,0,0,0,.64-1.73c1.61-9.33,3.18-18.67,4.78-28,1.41-8.26,2.86-16.52,4.27-24.78,1.07-6.28,2.1-12.56,3.17-18.83.26-1.53.59-3,.91-4.57a1.44,1.44,0,0,1,1.31-1.1c.46,0,.93-.1,1.39-.11h81.54c1.55,0,3.1.08,4.65.16a1.56,1.56,0,0,1,1.26,1.19c.68,3.82,1.37,7.64,2,11.46q2.67,15.61,5.32,31.22,2.53,14.91,5,29.84a37.28,37.28,0,0,0,1,4.74c.89,1,1.89.88,2.77,1.13s1.8.48,2.7.69A297.49,297.49,0,0,1,774.25,358,288,288,0,0,1,823,382c2.36,1.45,4.66,3,7.08,4.23a15,15,0,0,0,4.07-2.52q28.52-20.18,57-40.37c5.28-3.73,4-3.84,8.54.72q27.88,27.79,55.68,55.68a19,19,0,0,1,3.43,3.79c-.31,1.6-1.44,2.71-2.32,4q-12.09,17.11-24.23,34.22l-16.69,23.57c-.72,1-1.44,2-2.06,3.1a1.77,1.77,0,0,0-.09,1.32,12.22,12.22,0,0,0,1.07,2.06c1.53,2.52,3.1,5,4.62,7.55a286.58,286.58,0,0,1,33.44,82.52c.46,2,.91,3.93,1.39,5.89a2.58,2.58,0,0,0,2.21,2.1c7.95,1.32,15.91,2.63,23.87,4s16.2,2.82,24.3,4.21c6.27,1.08,12.54,2.12,18.82,3.17,2.44.41,4.9.78,7.34,1.23a29,29,0,0,1,2.79.81,14.38,14.38,0,0,1,.33,1.79c0,1.24,0,2.48,0,3.72q0,39.15,0,78.29c0,1.39,0,2.79-.05,4.19a1.91,1.91,0,0,1-1.69,1.91c-2.13.39-4.27.76-6.41,1.13l-26.61,4.53c-8.11,1.37-16.23,2.7-24.33,4.06q-8.73,1.45-17.44,2.94c-.16,0-.31.08-.46.1a3,3,0,0,0-2.85,2.59c-.29,1.53-.71,3-1.05,4.54a285.21,285.21,0,0,1-36.28,87.82A41.25,41.25,0,0,0,913.08,786.81ZM671.71,485C591.23,485,529,550.31,528.6,627.14s61.19,143.13,142.06,143.61c80.27.48,143.25-64.26,143.75-141.92A142.93,142.93,0,0,0,671.71,485Z"/><path class="cls-4" d="M671.11,1163.71a41.84,41.84,0,1,1,42-41.54C713,1145.63,693.51,1164.05,671.11,1163.71Z"/><path class="cls-4" d="M315.67,939.88c22.18-.21,41.61,18.48,41.56,42-.05,20.82-16.61,41.64-42,41.63a41.82,41.82,0,1,1,.42-83.63Z"/><path class="cls-4" d="M1025.54,940.85c22.37-.29,41.74,18.34,41.83,41.74.08,21.17-16.66,41.76-41.7,41.91a41.83,41.83,0,1,1-.13-83.65Z"/><path class="cls-4" d="M170.61,668.88c-22.11.35-42-18.16-41.81-42.21a41.88,41.88,0,0,1,83.75.6C212.38,651.64,192.14,669.31,170.61,668.88Z"/><path class="cls-4" d="M1170.54,585.8a41.86,41.86,0,1,1-41.65,42A41.83,41.83,0,0,1,1170.54,585.8Z"/><path class="cls-4" d="M984.26,272.5c-.2-23,19-41.77,41.72-41.87,21-.1,42,16.57,42,42.12a41.84,41.84,0,0,1-83.68-.25Z"/><path class="cls-4" d="M316.7,315.67C294.2,316,275,297.06,274.86,274c-.08-20.92,16.59-42,42.14-41.92a41.51,41.51,0,0,1,41.58,42C358.42,299.67,337.1,316.19,316.7,315.67Z"/><path class="cls-4" d="M670.84,169.38c-22.84.39-41.83-18.69-42-41.53-.15-21.49,17-42.17,42-42.09,25.37.08,41.8,21.14,41.77,41.82C712.54,150.28,693.79,169.63,670.84,169.38Z"/></svg>