<svg id="Layer_1" data-name="Layer 1" xmlns="http://www.w3.org/2000/svg" width="2500" height="2500" viewBox="0 0 2500 2500"><defs><style>.cls-1{fill:#fff;}.cls-2{fill:#d1d3d4;}</style></defs><path class="cls-1" d="M847.79,284.87c1.51,4.11,2.88,8.27,4.55,12.3q40.42,97.72,80.93,195.43,26.15,63.12,52.24,126.25c1.15,2.77,2.2,5.57,3.23,8.2-.67.79-1,1.49-1.55,1.77-14.58,7.72-29.19,15.39-43.67,23-3.33-.57-5.55-2.76-8-4.5q-34.29-24.27-68.57-48.57Q833.47,575,800,551.35c-2.47-1.75-5-3.4-6.95-4.72-2.25-.4-3.22.64-4.16,1.51-2,1.82-3.85,3.78-5.76,5.69q-95.25,95.24-190.48,190.5c-2.6,2.6-5.58,4.9-7.39,8.09.05,3.14,2.23,5,3.72,7.12q18.06,25.66,36.27,51.24,30.15,42.54,60.3,85.09c1.76,2.47,3.45,5,5.2,7.54a12.92,12.92,0,0,1-.78,2.93c-7.52,13.58-14.91,27.22-21.62,41.23a7.67,7.67,0,0,1-1.64,2.53,3.58,3.58,0,0,1-2.6,1,60.19,60.19,0,0,1-7.63-2.61Q608.85,928.8,561.21,909q-116.81-48.36-233.62-96.68c-1.54-.64-3.17-1.07-4.76-1.6.14-2.79,1.7-5.07,2.81-7.49A1055,1055,0,0,1,445.76,603.81c2-2.67,4-5.4,6-8.11,2.19.82,4.43,1.53,6.56,2.49A139.51,139.51,0,0,0,494,608.84a130.73,130.73,0,0,0,63.71-5.61c55.18-19,91.57-71.73,89.71-129.51a134.85,134.85,0,0,0-11.84-51.81c-1.11-2.45-2.19-4.91-3.28-7.37,3-2.18,6-4.3,8.94-6.54A1060,1060,0,0,1,838.47,288.57C841.49,287.16,844.68,286.1,847.79,284.87Z"/><path class="cls-1" d="M323.47,1682.36c2.68-2.18,6-3.06,9.08-4.35q46.21-19.2,92.46-38.33l228.82-94.84c3.11-1.29,6.26-2.5,9.4-3.72a2.78,2.78,0,0,1,3.36,1.43c.32.59.63,1.19.92,1.8,6.91,14.28,14.34,28.28,22.1,42.11a30,30,0,0,1,1.19,2.81c-1.13,3.29-3.41,5.81-5.34,8.53q-39.18,55.35-78.41,110.68-9.36,13.21-18.71,26.43a23.58,23.58,0,0,0-2.64,4.29,4,4,0,0,0,.3,2.8,8.85,8.85,0,0,0,1.89,2.33c1.88,1.94,3.8,3.84,5.71,5.75q94.85,94.86,189.72,189.7c2.61,2.6,4.94,5.53,8,7.45,3.36-.6,5.54-2.84,8-4.56q32.67-23.06,65.25-46.22,35.08-24.87,70.19-49.74a73.22,73.22,0,0,1,6.78-4.38,5.33,5.33,0,0,1,2.91-.16,4.94,4.94,0,0,1,1.86.74c12.32,7,24.8,13.67,37.56,19.84.6.29,1.13.73,1.71,1.08a3,3,0,0,1,1.46,3.41c-1.08,2.84-2.18,5.66-3.34,8.46Q929.34,2007.05,875,2138.39q-12.19,29.45-24.39,58.89c-1.16,2.8-2.18,5.66-3.27,8.49-3.1-1.3-6.25-2.51-9.3-3.93a1055.69,1055.69,0,0,1-199.36-121.21l-7.2-5.59c1.29-3.48,2.53-7,3.87-10.42,9.48-24.21,11.94-49.16,6.74-74.59-7-34.18-24.68-61.75-52.93-82.33a132.77,132.77,0,0,0-127-15.63c-3.13,1.25-6.31,2.37-9.46,3.55-15.05-18.67-29-38.17-42.4-58A1057.11,1057.11,0,0,1,325.37,1687C324.67,1685.51,324.1,1683.92,323.47,1682.36Z"/><path class="cls-1" d="M1656,258.34,1529,565c-4,9.66-8,19.33-12,29a27.12,27.12,0,0,1-2.41,4.39,2.2,2.2,0,0,1-1.72.85,19.47,19.47,0,0,1-3.89-.92c-13.76-4.54-27.54-9-41.57-12.68a5.52,5.52,0,0,1-4.51-4.78c-1-6.32-2.3-12.61-3.39-18.93q-7-40.89-13.94-81.79c-3.72-21.95-7.36-43.91-11.07-65.87-.56-3.32-1.25-6.62-1.92-9.93a3,3,0,0,0-2.78-2.45c-1-.09-2-.19-3-.2-2.37,0-4.73,0-7.09,0H1151.32c-3.69,0-7.38.12-10.3.17a4.21,4.21,0,0,0-2.62,3.69c-1.05,5.29-2.06,10.6-3,15.92q-8.52,50.37-17,100.77c-3.26,19.29-6.65,38.56-9.87,57.86a6.24,6.24,0,0,1-5,5.6c-15,4-29.78,8.63-44.43,13.72-2.34.81-3.78.15-4.78-2.24q-7.23-17.26-14.39-34.56Q978.84,414.83,917.68,267.12c-1.29-3.11-2.78-6.14-4.19-9.2,1.14-1.37,2.78-1.78,4.36-2.37,30.91-11.55,62.35-21.44,94.21-30q39-10.52,78.75-17.87c19.19-3.56,38.45-6.84,57.88-9,2.33-.26,4.62-.9,6.93-1.37,1.13,2.81,2.33,5.59,3.37,8.43a132.72,132.72,0,0,0,151.94,83.95c51.14-10.44,83.48-46.27,97.44-83,1.2-3.14,2.44-6.27,3.66-9.4,2,.43,3.91,1,5.9,1.28,78.08,9.77,153.93,28.66,227.87,55.44C1649.26,255.27,1652.59,256.89,1656,258.34Z"/><path class="cls-1" d="M1720.47,2205.75c-6.39-15.6-12.74-31.22-19.19-46.8q-58.85-142.1-117.73-284.17c-.77-1.87-1.54-3.74-2.27-5.63a3.28,3.28,0,0,1,1.72-4.22c4.82-2.42,9.71-4.7,14.48-7.22,8.65-4.56,17.36-9,25.78-14,3.89-2.29,6.7-1.7,10.07.76,9.81,7.16,19.78,14.1,29.69,21.12q53.68,38,107.37,76.06c2.73,1.93,5.54,3.77,7.81,5.31,2.22.29,3.16-.77,4.11-1.68,2-1.87,3.84-3.8,5.75-5.71q95.22-95.22,190.43-190.45c2.59-2.6,5.54-4.91,7.18-7.67.5-2.53-.88-3.75-1.81-5.07q-15.46-21.93-31-43.79-34-47.89-67.91-95.8a65.33,65.33,0,0,1-3.91-5.89,4.14,4.14,0,0,1-.18-2.89,20.19,20.19,0,0,1,1.77-3.62q9.9-18.8,19.82-37.59a22.57,22.57,0,0,1,2-3.45,2.32,2.32,0,0,1,2.67-.94c2.84,1.06,5.67,2.11,8.47,3.27q156,64.58,312,129.2c5.58,2.32,11.44,4.08,16.53,7.49-3.65,7.94-7.16,16-11,23.82a1051.56,1051.56,0,0,1-117.13,188.29c-.83,1.06-1.76,2-2.65,3a48.84,48.84,0,0,1-4.8-1.55,141.5,141.5,0,0,0-35.93-10,125.09,125.09,0,0,0-44.3,1.47c-27.88,5.82-51.77,19.1-71.1,40.13-23.68,25.75-35.32,56.38-35.46,91.23a128.22,128.22,0,0,0,9.39,48.43c1.26,3.12,2.31,6.32,3.45,9.49-2.45,1.78-4.94,3.5-7.34,5.35a1060.77,1060.77,0,0,1-198.46,120.23C1726.13,2203.58,1723.27,2204.61,1720.47,2205.75Z"/><path class="cls-1" d="M2244,808.44q-165.84,68.71-331.69,137.4c-9.24,3.82-8,4.35-12.7-4.64q-8.17-15.71-16.59-31.3c-3.36-6.24-3.32-5.74.86-11.65q12.57-17.79,25.16-35.54l72-101.61c1.75-2.47,3.4-5,5.25-7.74a27.32,27.32,0,0,0-2.24-3.34c-1.57-1.76-3.29-3.39-5-5.06q-95.61-95.61-191.23-191.19c-2.6-2.6-4.91-5.56-8.05-7.41-3.13.2-5,2.38-7.13,3.89q-40.12,28.32-80.15,56.77-27.66,19.61-55.34,39.22c-2.74,1.94-5.58,3.75-8.52,5.71a25.23,25.23,0,0,1-3.8-1.36c-13-7.24-26-14.27-39.41-20.69a7.55,7.55,0,0,1-2.52-1.65,3.48,3.48,0,0,1-.92-2.61,87.16,87.16,0,0,1,3.11-8.54q26.13-63.12,52.31-126.23,41.46-100,82.91-200.09c.64-1.56,1.34-3.1,2-4.64,2.87-.06,5.09,1.69,7.5,2.81a1057.05,1057.05,0,0,1,141,79.3q32,21.39,62.36,45.06c1.06.83,2,1.76,3,2.65-1.27,3.11-2.57,6.22-3.8,9.36-9.6,24.49-12.2,49.77-6.62,75.43,9.31,42.82,33.82,74.19,73.19,93.68,14,6.94,28.9,10.76,44.5,12.36a140,140,0,0,0,33.25-.87,126.66,126.66,0,0,0,30.11-8.31c2.8-1.12,5.64-2.16,8.47-3.23,1.92,2.75,3.74,5.58,5.78,8.24A1059,1059,0,0,1,2240.63,800C2241.91,802.76,2242.89,805.63,2244,808.44Z"/><path class="cls-1" d="M295.64,876.85q72.87,30.15,145.75,60.3,92,38.1,184,76.27c1.56.64,3.11,1.31,4.66,2,9.22,3.83,8.53,3,5.62,12.36q-5.71,18.35-11.19,36.78c-.86,2.93-2.41,4.72-5.4,5.22l-38.9,6.55q-20.45,3.43-40.89,6.9-21.43,3.64-42.86,7.34-20.94,3.6-41.86,7.21c-2.66.45-5.37.67-8,1.24a50.75,50.75,0,0,0-5.72,1.94c-.2,1.56-.48,2.88-.51,4.2-.08,3,0,6.07,0,9.11q0,132.65,0,265.29c0,3.38,0,6.76.09,10.13.08,2.88,1.24,4,4.31,4.57,25.27,4.25,50.54,8.45,75.8,12.77,25.58,4.38,51.15,8.88,76.73,13.29,5.65,1,11.33,1.75,17,2.71a68.06,68.06,0,0,1,6.9,1.55,3.87,3.87,0,0,1,2.81,2.66c.68,2.26,1.31,4.53,2,6.79q4.7,15.48,9.42,31c.59,1.93,1.21,3.86,1.76,5.81a3.47,3.47,0,0,1-2.05,4.09c-2.16,1-4.36,1.82-6.54,2.72q-45.3,18.79-90.59,37.59-116.77,48.35-233.58,96.65c-2.79,1.16-5.63,2.22-8.45,3.32-1-2.12-2-4.2-2.85-6.38a1063,1063,0,0,1-41.8-145.16c-4.3-20.4-7.92-40.91-11.26-61.48-1.13-7-1.8-14-2.81-21-.39-2.64-1.12-5.23-1.7-7.85,4-1.68,8.06-3.4,12.11-5.06a132.85,132.85,0,0,0,80.51-145.9c-8.43-49.08-41.7-85.11-82.54-101.31l-9.36-3.72c1.62-11.33,3.22-22.67,4.87-34,3.15-21.66,7.43-43.11,12.08-64.5a1041.89,1041.89,0,0,1,37.11-128.95C291.83,885.44,292.81,880.75,295.64,876.85Z"/><path class="cls-1" d="M2271.79,1615.11c-14.66-6-29.35-11.93-44-18q-142-58.8-284.09-117.63l-4.66-2c-6.6-2.71-6.49-2.8-4.3-9.59,3.82-11.88,7.35-23.86,11-35.8.68-2.24,1.42-4.46,2-6.18,2.41-1.91,4.8-2.24,7.09-2.64,13.29-2.28,26.61-4.44,39.91-6.69,14-2.37,27.91-4.81,41.87-7.2q20.44-3.48,40.9-6.92,24.93-4.23,49.87-8.48a3.76,3.76,0,0,0,3.19-3.4c.14-3.7.27-7.41.27-11.12q0-120.54,0-241.07,0-14.17,0-28.36c0-2.36-.06-4.72-.22-7.08a3.42,3.42,0,0,0-2.32-3,14.81,14.81,0,0,0-2.89-.88c-13.3-2.25-26.61-4.42-39.91-6.68-17.62-3-35.24-6-52.85-9q-20.94-3.57-41.89-7.11c-13-2.2-25.94-4.36-38.91-6.57a5.68,5.68,0,0,1-4.91-4.41q-4.82-16.51-9.9-33c-1.59-5.16-3.36-10.25-5-15.15,1.23-2.2,3-3,5-3.78,9.67-4,19.3-8,29-12Q2114.07,940,2262.2,878.7c3.1-1.29,6.31-2.34,9.46-3.5.71,1.51,1.53,3,2.1,4.55a1053.3,1053.3,0,0,1,38.73,129.48c6.12,26.59,11.09,53.38,15.35,80.31,1.52,9.64,2.64,19.35,3.94,29-2.83,1.06-5.67,2.11-8.49,3.2a133.23,133.23,0,0,0-83.65,147.6,130.24,130.24,0,0,0,34.52,68.49,132.22,132.22,0,0,0,48.19,32.5c3.09,1.21,6.54,1.74,9.17,4-1,6.67-2,13.34-2.9,20-10.49,74.72-29.29,147.32-55.33,218.09A17.07,17.07,0,0,1,2271.79,1615.11Z"/><path class="cls-1" d="M913.27,2233c6.39-15.24,12.84-30.46,19.16-45.72q58.71-141.64,117.38-283.29c1-2.49,2-5,3.12-7.47a26.33,26.33,0,0,1,2-3.15,10.23,10.23,0,0,1,2.35.21c15.88,5.69,32.13,10.18,48.21,15.19a11.55,11.55,0,0,1,2.08,1.23c2.21,9.58,3.54,19.59,5.28,29.53,1.8,10.31,3.64,20.6,5.39,30.91,1.69,10,3.25,20,5,30s3.55,19.93,5.26,29.9c1.75,10.31,3.15,20.69,5.17,31,1.95,9.87,2.57,20,5.76,29.83a32.88,32.88,0,0,0,4.12.65c3,.11,6.07.08,9.11.08q133.17,0,266.34,0c16.26,0,12.75,1.69,15.46-13,5-27.2,9.43-54.51,14-81.79q6.51-38.42,12.94-76.84c.56-3.32,1.31-6.6,1.87-9.42,1.58-2.24,3.66-2.68,5.54-3.18,13.36-3.58,26.55-7.69,39.61-12.2.64-.22,1.31-.34,2-.51a3.62,3.62,0,0,1,4.27,1.77c1.12,2.45,2.19,4.92,3.23,7.42q16.26,39.26,32.5,78.54,49.57,119.69,99.18,239.34c1.55,3.74,3.27,7.41,4.9,11.1-1.83.82-3.63,1.75-5.51,2.45a1045.69,1045.69,0,0,1-129.46,38.64c-22.31,5.13-44.76,9.51-67.33,13.28-12,2-24,3.35-36,5-2.28-3.09-2.51-6.91-3.61-10.41q-14.73-46.74-55.76-73.45a129.91,129.91,0,0,0-59.71-20.39,133,133,0,0,0-140.16,96c-.81,2.89-1.08,6-3,8.55-14.42-1.51-28.72-3.86-43-6.17-24.64-4-49-9-73.31-14.83a1056.76,1056.76,0,0,1-119.81-36.44C916.25,2234.58,914.78,2233.73,913.27,2233Z"/><path class="cls-2" d="M1810.71,1592.26c11.2,16.29,22.47,31.86,33.56,47.56q16.35,23.17,32.79,46.27l33,46.62a4.6,4.6,0,0,1-1.52,4.14c-1.62,1.72-3.29,3.39-5,5.07q-61.23,61.24-122.48,122.47c-9.14,9.12-6.9,8.73-17,1.56q-62.43-44.13-124.79-88.36c-2.73-1.94-5.2-4.35-8.69-5.25-3.28.78-5.92,2.94-8.75,4.7-16.93,10.48-34.15,20.46-51.91,29.48a618.25,618.25,0,0,1-135.4,49.92c-5.24,1.26-10.42,3-15.73,3.71-5.1.68-6.71,3.53-7.4,8-1.51,9.67-3.23,19.31-4.87,28.95q-5.71,33.44-11.43,66.85-4.42,25.95-8.81,51.9c-.51,3-1.16,6-1.56,9-1.33,10-1.6,9.34-11.57,9.34H1197.92c-2.36,0-4.73-.09-7.08-.2a3.3,3.3,0,0,1-3-2.27c-.66-3-1.36-5.92-1.88-8.9q-7-40.9-14-81.83-6.29-36.92-12.55-73.84a29.56,29.56,0,0,0-.57-3,3.92,3.92,0,0,0-2.68-2.81c-3.56-1-7.14-2-10.75-2.78a619.34,619.34,0,0,1-191-78.36c-4-2.49-8.08-4.89-12.15-7.29a3.56,3.56,0,0,0-3.83.15c-2.28,1.45-4.49,3-6.7,4.55l-123.92,87.83c-2.2,1.56-4.39,3.15-6.63,4.65-2.46,1.64-3.92,1.45-6.24-.76-1.71-1.64-3.35-3.34-5-5q-60.88-60.87-121.75-121.76c-2.39-2.38-4.66-4.87-6.89-7.4a2,2,0,0,1-.22-1.87,51.08,51.08,0,0,1,3.21-5.12q24.27-34.31,48.59-68.59l43.9-62c1.16-1.64,2.24-3.34,3-4.4a5.28,5.28,0,0,0-1-4.5c-2.81-4.61-5.66-9.2-8.48-13.81a620.77,620.77,0,0,1-75.54-183.63c-1.3-5.54-2.06-11.27-4.32-16.24a10.89,10.89,0,0,0-5.85-2.38c-13.3-2.25-26.61-4.42-39.91-6.66-13.64-2.3-27.26-4.65-40.89-7q-21-3.59-41.89-7.15c-13-2.2-25.94-4.36-38.91-6.56-3.33-.57-4.31-1.88-4.42-5.64,0-1,0-2,0-3,0-1.69,0-3.38,0-5.07q0-85.08,0-170.17c0-3.68-.33-7.4.31-10.64,2-2.37,4.46-2.54,6.7-2.92,13.29-2.31,26.61-4.46,39.91-6.72,14-2.37,27.92-4.81,41.88-7.2q20.45-3.48,40.9-6.93c13-2.19,25.94-4.35,38.9-6.57a4.79,4.79,0,0,0,4.1-3.91c1.76-7.21,3.6-14.4,5.36-21.61a615.78,615.78,0,0,1,74.53-177.55c2.48-4,5-8,7.39-12.09.68-1.13,1.15-2.39,1.78-3.73-3.18-5.74-7.25-10.7-10.87-16s-7.42-10.47-11.13-15.7-7.4-10.48-11.11-15.71l-11.14-15.69q-5.57-7.85-11.11-15.71t-11.14-15.69q-5.57-7.84-11.11-15.71c-3.71-5.23-7.48-10.42-11.13-15.69s-7.63-10.28-10.9-15.79a16.29,16.29,0,0,1,1.58-2.79c1.57-1.75,3.27-3.41,4.94-5.08q61.59-61.61,123.2-123.19c1.9-1.91,3.87-3.76,5.83-5.62a3.28,3.28,0,0,1,3.74-.46c2.81,1.87,5.62,3.74,8.37,5.69q61.14,43.32,122.26,86.66c3,2.15,6.07,4.25,8.68,6.07,2.42.29,3.8-.79,5.22-1.64,3.76-2.25,7.47-4.59,11.21-6.9a615.09,615.09,0,0,1,184.23-76.29c5.9-1.38,11.75-3,17.82-4.49a22.28,22.28,0,0,0,1.39-3.78c3.49-20.28,6.91-40.58,10.39-60.87,3.07-18,6.21-35.9,9.28-53.86,2.33-13.64,4.57-27.29,6.9-40.93.56-3.33,1.27-6.62,2-9.93a3.12,3.12,0,0,1,2.85-2.39c1-.1,2-.22,3-.24,2.37,0,4.73,0,7.09,0q85.1,0,170.17,0c3.37,0,6.74.19,10.1.35a3.41,3.41,0,0,1,2.75,2.59c1.48,8.3,3,16.61,4.4,24.92q5.82,33.91,11.57,67.85,5.52,32.44,10.95,64.89a80.73,80.73,0,0,0,2.25,10.28c1.93,2.09,4.11,1.92,6,2.47s3.91,1,5.88,1.49A648.61,648.61,0,0,1,1508.91,660a627.21,627.21,0,0,1,106,52.22c5.15,3.17,10.15,6.6,15.4,9.2,3.63-1.17,6.11-3.54,8.85-5.47q62-43.86,124-87.76c11.49-8.12,8.65-8.35,18.57,1.56q60.6,60.45,121,121c2.61,2.61,5.55,4.94,7.44,8.24-.67,3.48-3.13,5.89-5,8.59q-26.31,37.23-52.67,74.39-18.15,25.61-36.3,51.23c-1.56,2.2-3.12,4.41-4.47,6.74a3.83,3.83,0,0,0-.2,2.88,25.4,25.4,0,0,0,2.34,4.47c3.32,5.48,6.73,10.91,10,16.41a622.77,622.77,0,0,1,72.7,179.4c1,4.27,2,8.55,3,12.8a5.58,5.58,0,0,0,4.79,4.56c17.3,2.87,34.61,5.72,51.89,8.66,17.62,3,35.22,6.13,52.84,9.15,13.63,2.34,27.27,4.6,40.9,6.89,5.32.9,10.66,1.7,16,2.68a60,60,0,0,1,6.05,1.75,27.32,27.32,0,0,1,.72,3.89c.12,2.7.06,5.4.06,8.1q0,85.09,0,170.17c0,3,0,6.08-.11,9.12a4.15,4.15,0,0,1-3.68,4.15c-4.64.86-9.29,1.66-13.95,2.46q-28.92,4.93-57.84,9.84c-17.63,3-35.26,5.87-52.89,8.82q-19,3.18-37.91,6.41c-.33.06-.66.16-1,.21-3.34.48-5.51,2.15-6.19,5.64-.65,3.31-1.54,6.57-2.3,9.86a619.69,619.69,0,0,1-78.86,190.9C1815.66,1583.21,1812.94,1587.08,1810.71,1592.26ZM1286,936.1c-175,.13-310.25,142-311.11,309.06s133,311.14,308.83,312.19c174.48,1,311.4-139.7,312.48-308.52C1597.31,1077.88,1459.68,936.62,1286,936.1Z"/><path class="cls-1" d="M1284.71,2411.59c-46.78.45-90.6-37.72-90.66-91-.06-48.46,38.16-90.81,90.85-90.89,54.23-.07,91.56,44.23,91.19,91.58C1375.69,2372.29,1333.41,2412.32,1284.71,2411.59Z"/><path class="cls-1" d="M512,1925c48.21-.44,90.45,40.19,90.33,91.31-.1,45.27-36.11,90.53-91.24,90.5a90.26,90.26,0,0,1-90.78-91.92C421.1,1959.54,467.3,1923.65,512,1925Z"/><path class="cls-1" d="M2055.18,1927.12c48.63-.62,90.74,39.87,90.94,90.73.18,46-36.22,90.8-90.65,91.12a90.41,90.41,0,0,1-91.4-91.34C1964.44,1963.22,2009.5,1926.23,2055.18,1927.12Z"/><path class="cls-1" d="M196.69,1335.89c-48.07.77-91.31-39.46-90.89-91.74.38-46.81,37.76-90.43,91.67-90.06,53.34.38,90.71,43.8,90.39,91.35C287.49,1298.41,243.5,1336.83,196.69,1335.89Z"/><path class="cls-1" d="M2370.4,1155.28a91,91,0,1,1,.44,182c-52.34,0-90.94-42.38-91-90.77C2279.8,1194.86,2321.91,1155.26,2370.4,1155.28Z"/><path class="cls-1" d="M1965.46,474.23c-.44-50,41.18-90.8,90.68-91,45.54-.22,91.4,36,91.21,91.58a90.34,90.34,0,0,1-91.25,90.46C2002.2,565,1964.83,520.6,1965.46,474.23Z"/><path class="cls-1" d="M514.27,568.07c-48.92.81-90.76-40.46-91-90.64-.18-45.49,36.07-91.38,91.61-91.14a90.26,90.26,0,0,1,90.4,91.28C605,533.29,558.61,569.21,514.27,568.07Z"/><path class="cls-1" d="M1284.12,250.06c-49.65.85-90.93-40.63-91.28-90.29-.33-46.71,36.9-91.67,91.22-91.49,55.14.17,90.87,46,90.79,90.91C1374.77,208.54,1334,250.6,1284.12,250.06Z"/></svg>