<svg width="38" height="36" viewBox="0 0 38 36" fill="none" xmlns="http://www.w3.org/2000/svg">
<path d="M28.39 20.7711C28.926 21.0213 29.4115 21.2273 29.8776 21.4692C31.7291 22.431 33.2393 23.7354 34.2122 25.5678C34.5201 26.1476 34.699 26.7574 34.6637 27.4225C34.6169 28.2789 33.9549 28.7104 33.2107 28.7551C32.4313 28.8022 31.7024 28.5785 31.0343 28.2254C30.0772 27.7227 29.1542 27.16 28.2172 26.622C28.1009 26.5549 27.9872 26.4825 27.8271 26.463C27.902 26.5443 27.9732 26.6296 28.0535 26.7067C28.8372 27.4619 29.5746 28.2519 30.0656 29.2266C30.5062 30.1019 30.727 31.016 30.4861 31.9825C30.1879 33.1803 29.1402 33.8496 27.9148 33.6241C25.9543 33.2633 24.5622 32.0543 23.3355 30.6387C22.4934 29.6663 21.8984 28.542 21.3654 27.3878C21.3557 27.3651 21.3408 27.3449 21.3218 27.3287C21.3028 27.3125 21.2803 27.3007 21.2558 27.2942C21.2449 27.3722 21.2398 27.4509 21.2406 27.5296C21.3374 28.575 21.4232 29.6186 21.2528 30.6669C20.9741 32.3928 20.4588 34.022 19.1597 35.3052C18.8711 35.5912 18.5148 35.805 18.1217 35.928C17.2267 36.1887 16.7283 35.6972 16.404 35.1628C16.0895 34.646 15.9714 34.0656 15.882 33.4711C15.7049 32.3027 15.8583 31.1408 15.8911 29.9765C15.9026 29.8499 15.8817 29.7226 15.8303 29.6057C15.6891 30.066 15.5589 30.5298 15.4044 30.9854C14.9644 32.2803 14.3286 33.4576 13.0971 34.2228C12.4278 34.6418 11.6977 34.8508 10.9067 34.6348C10.185 34.4388 9.73479 33.9326 9.45307 33.281C9.17136 32.6294 9.15736 31.9272 9.1671 31.232C9.19691 29.0959 10.0086 27.2212 11.2091 25.4748C11.4312 25.151 11.6611 24.832 11.8522 24.4618C11.7853 24.5012 11.7141 24.5353 11.6514 24.5795C10.5726 25.3653 9.42812 26.0375 8.13942 26.4554C6.98944 26.8274 5.81209 27.0587 4.59579 26.9704C4.02628 26.9292 3.45981 26.8262 2.94019 26.5513C2.02751 26.0687 1.84497 25.2411 2.35303 24.3888C2.74974 23.726 3.33386 23.238 3.99585 22.8548C4.91279 22.3251 5.86259 21.8465 6.79778 21.3456C6.91297 21.2912 7.01626 21.2159 7.10201 21.1237C6.74363 21.2091 6.38708 21.3003 6.02687 21.378C5.0211 21.5976 4.01898 21.7859 2.97244 21.6076C2.14433 21.4663 1.39046 21.2097 0.770445 20.657C-0.180567 19.8111 -0.256624 18.568 0.572697 17.6062C1.20488 16.8739 2.03603 16.4189 2.92011 16.0375C4.40352 15.3983 5.96238 15.1357 7.5766 15.2034C8.21243 15.2299 8.84766 15.2794 9.48349 15.3159C9.55668 15.3167 9.62985 15.313 9.70254 15.3047C8.88234 14.8815 8.04085 14.5083 7.26446 14.035C5.68553 13.0762 4.43151 11.8071 3.64052 10.1484C3.36519 9.57733 3.26894 8.94069 3.36367 8.31724C3.42756 7.86813 3.89485 7.44373 4.36275 7.31659C5.17078 7.09822 5.93074 7.29481 6.6189 7.63444C7.72141 8.17891 8.771 8.82286 9.8437 9.42442L10.2282 9.64044L10.3189 9.54509C10.0494 9.31729 9.76156 9.10598 9.51209 8.85876C8.73144 8.08179 8.05545 7.23183 7.67639 6.19528C7.3679 5.35121 7.27846 4.49301 7.63562 3.64658C7.99278 2.80015 8.73083 2.29983 9.82605 2.34869C10.687 2.38695 11.419 2.74306 12.1297 3.16568C14.0226 4.2917 15.2936 5.93217 16.2537 7.82987C16.3998 8.1177 16.5397 8.4073 16.6839 8.69572C16.6839 8.69984 16.701 8.69572 16.7691 8.70749C16.7545 8.41318 16.7648 8.12182 16.7204 7.83987C16.5586 6.80803 16.6638 5.79326 16.8482 4.77378C17.0469 3.62619 17.4769 2.52759 18.1138 1.54052C18.4278 1.05785 18.8026 0.622867 19.3045 0.304426C20.1296 -0.223561 20.9942 -0.0575714 21.529 0.746476C21.8704 1.25739 22.0091 1.83424 22.0992 2.42756C22.2659 3.52415 22.1831 4.61956 22.1052 5.71615C22.087 5.94034 22.1061 6.1659 22.1618 6.38423C22.3018 5.92864 22.4289 5.46834 22.5877 5.01746C23.069 3.62421 23.7517 2.3687 25.153 1.62646C26.1265 1.10906 27.3903 1.16204 28.0924 1.98963C28.4927 2.46213 28.7356 3.04084 28.7891 3.64952C29.0246 6.02341 28.3431 8.17185 27.0246 10.1549C26.7739 10.5334 26.505 10.9001 26.2458 11.2733C26.1879 11.3475 26.1582 11.4388 26.1618 11.5317C26.4526 11.3351 26.7447 11.1402 27.0343 10.943C28.2013 10.1321 29.5224 9.55198 30.9217 9.23607C31.9604 9.00062 33.0215 8.90821 34.0814 9.11246C34.4166 9.18196 34.7409 9.29398 35.0458 9.44561C35.9542 9.88472 36.1532 10.7406 35.6591 11.574C35.1651 12.4075 34.3777 12.9543 33.5417 13.4229C32.7057 13.8914 31.8381 14.3099 30.9862 14.7514C30.9637 14.7626 30.9467 14.7826 30.9442 14.8544C31.0221 14.8385 31.1018 14.8273 31.1779 14.8067C32.5067 14.4382 33.8551 14.1504 35.2357 14.4153C36.3455 14.6284 37.3403 15.0792 37.8271 16.1764C38.1684 16.9452 37.9786 17.648 37.4845 18.2954C36.8931 19.0683 36.0522 19.518 35.1797 19.9141C34.2566 20.3326 33.2709 20.6074 32.2591 20.7282C31.5588 20.8129 30.8438 20.7959 30.135 20.7965C29.619 20.7965 29.1006 20.7511 28.5859 20.7288C28.5193 20.7368 28.4537 20.7509 28.39 20.7711ZM16.7472 19.98C16.721 20.0342 16.617 20.1472 16.6407 20.2202C16.7289 20.4868 16.544 20.5875 16.3833 20.7246C15.0448 21.8624 13.6252 22.9125 12.5312 24.2969C11.1926 25.9945 10.0177 27.7668 9.66055 29.9359C9.50114 30.9012 9.42995 31.8583 9.67881 32.8166C10.0262 34.1533 11.2188 34.7643 12.5775 34.1115C13.5887 33.6247 14.2519 32.8166 14.6681 31.8336C15.007 31.0354 15.2595 30.1996 15.5047 29.3685C15.6782 28.7798 15.7743 28.1694 15.9075 27.5696C16.011 27.1029 16.115 26.6361 16.2245 26.1705C16.2525 26.0528 16.2854 25.8727 16.4606 25.9621C16.544 26.0051 16.6018 26.1858 16.5908 26.2971C16.5367 26.861 16.4345 27.4207 16.39 27.9846C16.3061 29.0394 16.2185 30.096 16.1929 31.1531C16.1669 32.0143 16.1982 32.8763 16.2866 33.7336C16.3353 34.1751 16.5367 34.6165 16.7521 35.0209C16.9955 35.4795 17.4396 35.7997 18.0907 35.5895C18.6109 35.4224 18.9802 35.0598 19.2997 34.6477C20.4557 33.1515 20.9102 31.4221 20.979 29.5998C21.0106 28.7557 20.8652 27.904 20.7733 27.0587C20.7058 26.4372 20.6401 25.8103 20.4953 25.2034C20.2184 24.0462 19.8868 22.9025 19.5777 21.7524C19.5136 21.5283 19.4634 21.3007 19.4274 21.0708C19.4207 21.0207 19.5364 20.953 19.596 20.8942C19.756 21.0896 20.0827 21.1114 20.1326 21.4322C20.2428 22.1067 20.376 22.7783 20.5172 23.447C20.6583 24.1157 20.7898 24.7873 20.9979 25.4359C21.5941 27.2953 22.4326 29.0506 23.7298 30.5527C24.8469 31.8477 26.1569 32.8984 27.9281 33.2898C28.5317 33.4228 29.5302 33.1232 29.8752 32.5105C30.3796 31.6199 30.2792 30.7258 29.936 29.8252C29.571 28.8581 28.9345 28.0594 28.1849 27.353C27.1268 26.36 26.0225 25.4059 24.9443 24.427C24.8664 24.3558 24.8536 24.2181 24.8104 24.1109C24.9352 24.1233 25.0891 24.0945 25.1804 24.1545C25.6489 24.4618 26.0876 24.8126 26.5616 25.111C27.9847 26.0045 29.403 26.9063 30.856 27.7527C31.5728 28.17 32.3662 28.4555 33.2381 28.4031C33.7182 28.3743 34.2421 28.037 34.2926 27.4949C34.3723 26.6432 34.0492 25.9203 33.6093 25.2305C32.514 23.4964 30.9351 22.2933 29.0459 21.4604C27.8551 20.936 26.6504 20.4445 25.3745 20.1319C24.682 19.9624 24.0006 19.7511 23.3124 19.5633C22.8865 19.4456 22.4569 19.3414 22.0347 19.2213C21.9652 19.195 21.9086 19.144 21.8765 19.0789C21.8582 19.0418 21.8959 18.9358 21.9288 18.927C22.1503 18.8629 22.4058 18.7245 22.5981 18.781C23.473 19.0377 24.3212 19.3797 25.1968 19.6345C26.0516 19.8864 26.9191 20.0956 27.7961 20.2614C28.4186 20.3762 29.0635 20.3791 29.6987 20.4297C31.577 20.5793 33.3878 20.3326 35.1079 19.561C35.894 19.2078 36.629 18.7863 37.1827 18.1183C37.7035 17.4879 37.7832 16.6968 37.3792 16.0711C36.8694 15.2823 36.0632 14.938 35.1736 14.7543C34.0139 14.5153 32.873 14.7284 31.7583 15.0157C30.6199 15.31 29.5034 15.682 28.3784 16.024C28.1387 16.097 27.9068 16.2006 27.6635 16.2594C27.5795 16.2794 27.4712 16.2006 27.3738 16.1705C27.4243 16.0887 27.4566 15.9792 27.5308 15.9316C27.6446 15.8574 27.7918 15.8333 27.9184 15.775C29.8971 14.8673 31.9074 14.0186 33.7595 12.8784C34.438 12.4617 35.0604 11.9778 35.4273 11.2556C35.695 10.7294 35.5867 10.1861 35.0848 9.88825C34.75 9.69178 34.3844 9.54943 34.0023 9.4668C33.3379 9.32495 32.6637 9.33554 31.9804 9.42501C31.0695 9.54091 30.1781 9.77124 29.3288 10.1102C27.4961 10.8453 25.9884 12.0526 24.5305 13.3063C23.5406 14.1587 22.6364 15.104 21.6927 16.0069C21.6428 16.0546 21.5777 16.1387 21.5339 16.1311C21.4445 16.1158 21.2869 16.0198 21.2905 16.0081C21.3903 15.7626 21.2601 15.4295 21.6033 15.2711C21.745 15.2058 21.857 15.0781 21.9775 14.9733C22.8512 14.214 23.7913 13.5124 24.5786 12.6777C25.3848 11.8218 26.0894 10.8648 26.7526 9.89708C27.8399 8.31194 28.4563 6.55905 28.4727 4.63604C28.4782 4.01034 28.4459 3.38524 28.18 2.79839C27.7127 1.76596 26.8378 1.43457 25.7706 1.76066C24.7453 2.0738 24.0864 2.80663 23.5692 3.6766C23.108 4.45239 22.8323 5.3 22.6042 6.15879C22.4064 6.90397 22.2537 7.66034 22.0827 8.41201C21.9744 8.88761 21.8783 9.36556 21.756 9.83763C21.7347 9.91945 21.6094 9.97654 21.5327 10.0448C21.4822 9.94417 21.3915 9.8441 21.3903 9.74286C21.3903 9.591 21.4676 9.43973 21.481 9.2861C21.5376 8.60272 21.5856 7.91816 21.6331 7.23419C21.739 5.69143 21.9525 4.15338 21.7463 2.59944C21.6708 2.02966 21.5461 1.48931 21.2552 0.987808C20.8798 0.340332 20.16 0.160216 19.5321 0.589905C19.2338 0.790207 18.9674 1.03153 18.7411 1.30625C17.5345 2.80839 17.0691 4.56953 17.0174 6.42366C16.9894 7.42431 17.1512 8.43261 17.2571 9.43443C17.315 9.9296 17.4033 10.421 17.5218 10.906C17.6435 11.4357 17.8144 11.9566 17.9532 12.4835C18.129 13.1521 18.2908 13.8243 18.4661 14.4936C18.5269 14.729 18.6285 14.9209 18.9528 14.8785C19.0928 14.8609 19.2449 14.9374 19.3915 14.9715C21.0484 15.3541 22.261 17.1 21.6014 18.907C21.0502 20.4168 19.4074 20.986 18.0177 20.561C17.5869 20.4256 17.1889 20.1843 16.7472 19.98ZM16.6042 19.7446C16.0189 19.1295 15.6994 18.4185 15.7335 17.5856C15.742 17.3713 15.6611 17.2995 15.4695 17.2389C14.6785 16.9869 13.8923 16.705 13.0965 16.4637C12.3292 16.2282 11.5626 15.9657 10.774 15.838C9.79076 15.6785 8.78681 15.6166 7.78895 15.5625C6.22583 15.4771 4.70288 15.6802 3.25293 16.2841C2.36703 16.6526 1.50911 17.0705 0.879967 17.8051C0.0433445 18.7787 0.235006 19.85 1.23652 20.5863C1.93746 21.1025 2.75765 21.3062 3.61983 21.3344C5.02657 21.381 6.35239 20.9742 7.67456 20.5846C8.5696 20.3203 9.45003 20.0112 10.3414 19.7364C10.4175 19.7134 10.5282 19.7952 10.6225 19.8305C10.5863 19.9089 10.5446 19.9848 10.4978 20.0577C10.4625 20.0934 10.4186 20.1199 10.37 20.1349C9.96356 20.305 9.54373 20.4509 9.1531 20.6464C7.49568 21.4704 5.83217 22.2839 4.19969 23.1533C3.51822 23.517 2.92741 24.0268 2.57877 24.7372C2.27819 25.3506 2.4443 25.8603 3.04789 26.2117C3.52856 26.4919 4.06826 26.5878 4.60978 26.6308C5.63929 26.7126 6.64932 26.5437 7.63015 26.2612C9.00707 25.865 10.2331 25.1781 11.3837 24.3493C12.5811 23.487 13.6818 22.5246 14.7381 21.5063C15.3405 20.9171 15.9629 20.3444 16.6042 19.7422V19.7446ZM15.8333 16.7509C16.2294 15.838 16.8482 15.2134 17.8199 14.9527C17.871 14.9392 17.9203 14.7814 17.9063 14.7014C17.8132 14.1639 17.7055 13.6289 17.5978 13.0938C17.4664 12.4422 17.3928 11.7724 17.1816 11.1461C16.8463 10.1243 16.4506 9.12203 15.9964 8.14419C15.1001 6.25473 13.8552 4.62309 11.997 3.49884C11.3344 3.09623 10.6505 2.7566 9.84674 2.69773C8.98517 2.63416 8.28971 3.03266 7.96723 3.79432C7.62649 4.59955 7.76157 5.38358 8.05059 6.16173C8.40349 7.11293 9.02411 7.90403 9.75425 8.59683C10.8336 9.61513 11.9611 10.5852 13.0612 11.5858C13.133 11.6506 13.1427 11.7795 13.1829 11.8801C13.0642 11.8719 12.9164 11.9054 12.8312 11.8501C12.2629 11.4752 11.7244 11.0572 11.1458 10.6994C9.72505 9.81997 8.29762 8.94941 6.85254 8.11299C6.27958 7.77279 5.62096 7.59157 4.94869 7.58912C4.17231 7.59265 3.632 7.947 3.68919 8.81991C3.71378 9.17956 3.79355 9.53366 3.92588 9.87059C4.40291 11.0796 5.25718 12.0279 6.238 12.8761C7.69342 14.1316 9.4628 14.8232 11.2602 15.4554C12.0147 15.7208 12.7923 15.9263 13.5644 16.1446C14.3091 16.3536 15.0587 16.5419 15.8333 16.7486V16.7509ZM18.6133 15.2205C18.2792 15.2084 17.9461 15.2627 17.6345 15.3801C17.323 15.4975 17.0396 15.6756 16.802 15.9031C16.5644 16.1307 16.3776 16.403 16.2532 16.7033C16.1287 17.0035 16.0693 17.3252 16.0785 17.6485C16.1089 19.1825 17.3131 20.3203 18.8664 20.3438C20.3426 20.3662 21.4128 19.3567 21.4299 17.9305C21.4481 16.426 20.101 15.1764 18.6133 15.2152V15.2205Z" fill="black"/>
<path d="M16.7474 19.98C17.1891 20.1843 17.587 20.4256 18.0209 20.558C19.4106 20.983 21.0534 20.4138 21.6047 18.904C22.2642 17.097 21.0516 15.3512 19.3948 14.9686C19.2481 14.9344 19.096 14.8579 18.9561 14.8756C18.6293 14.9179 18.5302 14.7278 18.4693 14.4906C18.2941 13.8214 18.1322 13.1492 17.9564 12.4805C17.8177 11.9537 17.6485 11.4333 17.525 10.903C17.4066 10.418 17.3182 9.92663 17.2603 9.43146C17.1544 8.43082 16.9926 7.42193 17.0206 6.4207C17.0723 4.56656 17.5378 2.80543 18.7443 1.30328C18.9706 1.02856 19.237 0.787241 19.5353 0.586939C20.1651 0.15725 20.883 0.337367 21.2585 0.984843C21.5493 1.48634 21.674 2.02669 21.7495 2.59647C21.9557 4.15041 21.7422 5.68846 21.6363 7.23122C21.5888 7.91519 21.5408 8.59975 21.4842 9.28313C21.4708 9.43676 21.3923 9.58803 21.3935 9.7399C21.3935 9.84114 21.4854 9.9412 21.5359 10.0419C21.6126 9.97358 21.7379 9.91648 21.7592 9.83466C21.8809 9.36377 21.9776 8.88464 22.086 8.40904C22.2569 7.65738 22.4096 6.90101 22.6074 6.15582C22.8356 5.29703 23.1112 4.44884 23.5724 3.67363C24.0896 2.80366 24.7485 2.07084 25.7738 1.75769C26.841 1.4316 27.716 1.76299 28.1833 2.79542C28.4491 3.38404 28.4814 4.00738 28.4759 4.63308C28.4607 6.55608 27.8431 8.30897 26.7558 9.89411C26.0926 10.8618 25.388 11.8189 24.5818 12.6747C23.7945 13.5106 22.8544 14.2122 21.9807 14.9703C21.859 15.0751 21.7483 15.2028 21.6065 15.2682C21.2633 15.4265 21.3935 15.7597 21.2937 16.0051C21.2889 16.0169 21.4465 16.1128 21.5371 16.1281C21.5809 16.1358 21.646 16.0516 21.6959 16.0039C22.6396 15.101 23.5438 14.1557 24.5338 13.3034C25.994 12.0479 27.4994 10.8424 29.332 10.1072C30.1813 9.76827 31.0727 9.53795 31.9837 9.42204C32.6688 9.33258 33.3411 9.32198 34.0055 9.46384C34.3873 9.54677 34.7524 9.68932 35.0868 9.88587C35.5887 10.1837 35.6952 10.727 35.4293 11.2532C35.0643 11.9755 34.44 12.4593 33.7616 12.876C31.907 14.0162 29.8967 14.865 27.9204 15.7726C27.7938 15.8315 27.6466 15.855 27.5328 15.9292C27.4586 15.9769 27.4263 16.0863 27.3758 16.1682C27.4732 16.2005 27.5815 16.2771 27.6655 16.257C27.9088 16.1982 28.1407 16.0963 28.3804 16.0216C29.5054 15.6796 30.6219 15.3064 31.7604 15.0133C32.875 14.7261 34.0159 14.513 35.1756 14.752C36.0652 14.9356 36.8714 15.2817 37.3812 16.0687C37.7853 16.6944 37.7055 17.4855 37.1847 18.1159C36.6322 18.784 35.896 19.206 35.1099 19.5586C33.3898 20.3303 31.5809 20.5769 29.7007 20.4274C29.0655 20.3768 28.423 20.3738 27.7981 20.259C26.9199 20.0934 26.0511 19.8841 25.1951 19.6322C24.3196 19.3773 23.4714 19.0353 22.5964 18.7787C22.4048 18.7198 22.1492 18.8605 21.9271 18.9246C21.8943 18.9335 21.8566 19.0394 21.8748 19.0765C21.907 19.1417 21.9635 19.1926 22.033 19.2189C22.4589 19.3367 22.8848 19.4444 23.3108 19.5609C23.9989 19.7487 24.6804 19.96 25.3728 20.1295C26.6506 20.4421 27.8535 20.9336 29.0442 21.458C30.9353 22.2909 32.5124 23.4941 33.6076 25.2281C34.0445 25.918 34.3706 26.6408 34.2909 27.4925C34.2404 28.0346 33.7165 28.3719 33.2365 28.4007C32.3645 28.4531 31.5711 28.1653 30.8544 27.7503C29.4014 26.9039 27.9831 26.0021 26.5599 25.1086C26.0859 24.8102 25.6472 24.4611 25.1787 24.1521C25.0874 24.0933 24.9353 24.1209 24.8088 24.1086C24.852 24.2157 24.8648 24.3534 24.9426 24.4247C26.0208 25.4035 27.127 26.3547 28.1875 27.3518C28.9371 28.0582 29.5736 28.8569 29.9386 29.824C30.2788 30.7246 30.3792 31.6187 29.8778 32.5093C29.5316 33.122 28.5331 33.4216 27.9307 33.2886C26.1602 32.8972 24.8502 31.8441 23.7324 30.5515C22.4352 29.0494 21.5968 27.2942 21.0005 25.4347C20.7924 24.7872 20.6634 24.1127 20.5198 23.4458C20.3762 22.7789 20.2454 22.1055 20.1353 21.431C20.0829 21.1102 19.7586 21.0884 19.5986 20.893C19.5377 20.9518 19.4234 21.0178 19.4301 21.0696C19.466 21.2995 19.5162 21.5271 19.5803 21.7512C19.8846 22.9013 20.221 24.0468 20.4979 25.2022C20.6427 25.8091 20.7084 26.4383 20.7759 27.0575C20.8678 27.9028 21.0132 28.7545 20.9816 29.5986C20.9129 31.4233 20.4589 33.1503 19.3023 34.6465C18.9828 35.0586 18.6135 35.4212 18.0933 35.5883C17.4416 35.7985 16.9981 35.4782 16.7547 35.0197C16.5393 34.6183 16.3379 34.1739 16.2892 33.7324C16.2008 32.8751 16.1695 32.0131 16.1955 31.1519C16.2211 30.0924 16.3087 29.0382 16.3927 27.9834C16.4371 27.4195 16.5393 26.8598 16.5934 26.2959C16.6044 26.1846 16.5466 26.0016 16.4632 25.9609C16.2868 25.8715 16.2551 26.0492 16.2272 26.1693C16.1176 26.6349 16.0136 27.1017 15.9102 27.5684C15.7769 28.1682 15.6808 28.7786 15.5074 29.3673C15.264 30.1984 15.0096 31.0342 14.6707 31.8324C14.2546 32.8124 13.5913 33.6235 12.5801 34.1103C11.2214 34.7637 10.0288 34.1527 9.68142 32.8154C9.43256 31.8571 9.50375 30.9 9.66316 29.9347C10.0203 27.7656 11.1922 25.991 12.5338 24.2957C13.6291 22.9113 15.0498 21.8612 16.386 20.7234C16.5466 20.5863 16.7316 20.488 16.6433 20.219C16.6172 20.1472 16.7224 20.0342 16.7474 19.98Z" fill="#FDD835"/>
<path d="M16.6041 19.7424C15.9628 20.3445 15.3404 20.9196 14.7319 21.5041C13.6757 22.5206 12.575 23.4848 11.3775 24.3471C10.2269 25.1759 9.00091 25.8628 7.62399 26.2589C6.64316 26.5414 5.63313 26.7104 4.60362 26.6286C4.0621 26.5856 3.5224 26.4896 3.04173 26.2095C2.43814 25.8563 2.27203 25.3483 2.57261 24.735C2.92125 24.0245 3.51206 23.5148 4.19353 23.151C5.82601 22.2816 7.48952 21.4682 9.14694 20.6441C9.54061 20.4487 9.96044 20.3027 10.3638 20.1326C10.4124 20.1177 10.4564 20.0912 10.4916 20.0555C10.5396 19.9821 10.5823 19.9056 10.6194 19.8265C10.5251 19.793 10.4144 19.7088 10.3383 19.7323C9.44691 20.0072 8.56648 20.3163 7.67144 20.5805C6.34928 20.9702 5.02346 21.3769 3.61671 21.3304C2.75514 21.3022 1.93434 21.0985 1.2334 20.5823C0.23189 19.8459 0.0402262 18.7747 0.876849 17.8011C1.50842 17.0665 2.36634 16.6486 3.24982 16.2801C4.69976 15.6768 6.22272 15.4731 7.78583 15.5585C8.7837 15.6126 9.78764 15.6762 10.7709 15.834C11.5619 15.9617 12.3261 16.2266 13.0934 16.4596C13.8898 16.701 14.6753 16.9829 15.4663 17.2349C15.658 17.2937 15.7389 17.3673 15.7304 17.5815C15.6994 18.4138 16.0188 19.1273 16.6041 19.7424Z" fill="#FDD835"/>
<path d="M15.8328 16.7486C15.0583 16.542 14.3117 16.3513 13.5651 16.1417C12.793 15.9239 12.0154 15.7179 11.2609 15.4525C9.46415 14.8203 7.69416 14.1287 6.23874 12.8732C5.2567 12.025 4.40243 11.0767 3.92662 9.86769C3.79411 9.53157 3.71393 9.17828 3.68872 8.81937C3.63152 7.94645 4.17183 7.59211 4.94822 7.58857C5.62048 7.59102 6.27911 7.77225 6.85207 8.11244C8.29714 8.95181 9.72396 9.82237 11.1441 10.7023C11.7227 11.0602 12.2612 11.4781 12.8295 11.8531C12.9147 11.9084 13.0625 11.8749 13.1812 11.8831C13.1423 11.7842 13.1325 11.6553 13.0595 11.5888C11.9594 10.5882 10.832 9.61694 9.75195 8.59746C9.01816 7.90466 8.39997 7.11356 8.04828 6.16236C7.75927 5.38421 7.62237 4.60018 7.96492 3.79495C8.28741 3.03329 8.98287 2.63479 9.84444 2.69836C10.65 2.75723 11.3339 3.09803 11.9965 3.49947C13.8548 4.62372 15.0996 6.25536 15.9959 8.14482C16.4501 9.12266 16.8459 10.125 17.1812 11.1468C17.3923 11.773 17.4659 12.4417 17.5973 13.0945C17.705 13.6295 17.8127 14.1646 17.9058 14.702C17.9198 14.782 17.8705 14.9374 17.8194 14.9533C16.8477 15.2111 16.2289 15.8357 15.8328 16.7486Z" fill="#FDD835"/>
<path d="M18.6131 15.2151C20.1008 15.178 21.4479 16.4259 21.4296 17.9316C21.4126 19.3572 20.3423 20.3667 18.8662 20.3449C17.3128 20.3213 16.1087 19.1835 16.0783 17.6496C16.0681 17.3257 16.1269 17.0033 16.2509 16.7023C16.3749 16.4013 16.5616 16.1282 16.7993 15.8999C17.037 15.6717 17.3206 15.4931 17.6327 15.3753C17.9447 15.2575 18.2784 15.2029 18.6131 15.2151Z" fill="#E1FF74"/>
</svg>
