<svg width="37" height="33" viewBox="0 0 37 33" fill="none" xmlns="http://www.w3.org/2000/svg">
<path d="M17.5646 31.351C17.5716 31.29 17.5846 31.23 17.6036 31.1717C17.7736 30.4238 17.898 29.6665 17.9762 28.9037C18.0638 28.1041 18.0712 27.2949 18.1247 26.4807C18.1661 25.8677 18.2294 25.2547 18.2781 24.6417C18.2952 24.4188 18.2781 24.1813 18.0176 24.1013C17.757 24.0214 17.6596 24.2346 17.5305 24.4357C17.2383 24.9373 16.9144 25.4219 16.6027 25.9113C16.3203 26.3547 16.0621 26.8175 15.748 27.2367C15.3324 27.8087 14.887 28.3587 14.4135 28.8843C13.9669 29.3712 13.4833 29.8232 12.967 30.2364C12.5496 30.5606 12.0941 30.8332 11.6106 31.0481C11.0424 31.2894 10.4601 31.4965 9.86701 31.6684C9.62932 31.7351 9.38343 31.7686 9.13645 31.7677C8.62749 31.7677 8.11611 31.7798 7.60715 31.7677C6.89723 31.703 6.20625 31.5039 5.57133 31.1814C4.90146 30.8941 4.29245 30.483 3.7766 29.9699C3.28687 29.4397 2.82984 28.8806 2.40802 28.2956C2.19789 28.0105 2.00984 27.71 1.8455 27.3966C1.68234 27.0962 1.5411 26.7836 1.40716 26.4686C1.26963 26.1525 1.15012 25.8289 1.04919 25.4994C0.766407 24.6724 0.581704 23.8153 0.498837 22.9456C0.474485 22.5361 0.34542 22.1218 0.374643 21.7171C0.40257 21.0151 0.510407 20.3185 0.696088 19.6406C0.919622 19.0165 1.22154 18.423 1.59467 17.8742C2.16983 16.986 2.96589 16.2607 3.90567 15.7686C4.80182 15.284 5.75641 14.8721 6.82789 14.8964C7.80197 14.9158 8.77604 14.8794 9.75012 14.9909C10.5683 15.0878 11.3646 15.3616 12.1731 15.5554C12.3815 15.6237 12.5973 15.6668 12.816 15.6838C12.9694 15.6572 13.1101 15.5825 13.2178 15.4706C13.2495 15.4415 13.1813 15.2647 13.1253 15.1823C12.6772 14.5329 12.195 13.9054 11.7738 13.2439C11.4778 12.7534 11.2158 12.2434 10.9896 11.7174C10.7127 11.1879 10.4978 10.6286 10.3492 10.0504C10.2339 9.25468 10.1664 8.45286 10.1471 7.64917C10.1471 7.50379 10.1811 7.35357 10.1836 7.20334C10.2293 6.1413 10.5837 5.11527 11.2039 4.2497C11.4617 3.82754 11.7593 3.4308 12.0928 3.06486C12.4328 2.72228 12.8237 2.4338 13.2519 2.20954C13.9419 1.8469 14.6553 1.5304 15.3876 1.26214C15.7796 1.11919 16.2302 1.13372 16.6514 1.06346C17.6815 0.891425 18.7116 0.741198 19.7587 0.889001C20.462 0.95356 21.16 1.06527 21.8481 1.22338C22.5111 1.44305 23.1552 1.7153 23.7744 2.0375C24.6228 2.44159 25.3487 3.06187 25.8784 3.83537C26.2348 4.39081 26.5451 4.97427 26.8062 5.57993C27.2348 6.48129 27.2396 7.45291 27.2153 8.41969C27.2312 8.92753 27.1788 9.4352 27.0594 9.92922C26.8303 10.622 26.5528 11.2981 26.229 11.9524C25.9855 12.5121 25.6762 13.0525 25.3694 13.5855C25.1799 13.8853 24.9734 14.1741 24.7509 14.4505C24.539 14.734 24.3101 15.0054 24.1007 15.2913C23.9789 15.4585 24.1396 15.696 24.41 15.6887C24.6748 15.6683 24.9368 15.6204 25.1916 15.5457C25.5374 15.4609 25.8808 15.3592 26.2242 15.2622C27.5383 14.9304 28.8961 14.802 30.2495 14.8818C30.6316 14.8674 31.0141 14.8975 31.3892 14.9715C31.911 15.135 32.4211 15.3333 32.9161 15.5651C33.1961 15.6838 33.4591 15.8486 33.7343 15.9794C34.5319 16.3711 35.1997 16.9825 35.6581 17.741C36.0456 18.3344 36.3719 18.9651 36.6322 19.6236C36.8096 20.1255 36.8969 20.6545 36.8903 21.1865C36.8984 22.078 36.8398 22.9689 36.715 23.8518C36.5703 24.5303 36.3716 25.1963 36.1208 25.8435C35.9917 26.2433 35.8505 26.6431 35.6849 27.0283C35.5584 27.335 35.401 27.6281 35.2149 27.903C34.8423 28.4361 34.4575 28.9643 34.0387 29.4634C33.4822 30.1631 32.7625 30.7171 31.942 31.0772C31.4915 31.2613 31.0531 31.4794 30.5953 31.6417C30.3711 31.7031 30.1382 31.7269 29.9062 31.712C29.143 31.7476 28.3782 31.7322 27.6171 31.666C27.0546 31.5884 26.5213 31.2928 25.9709 31.1135C25.0431 30.8106 24.3272 30.1831 23.6307 29.5531C23.0425 28.9907 22.4926 28.3901 21.9845 27.7552C21.6399 27.3414 21.3211 26.9068 21.0299 26.4541C20.7304 25.9986 20.4869 25.5091 20.1898 25.0512C20.0382 24.854 19.8623 24.6765 19.6662 24.5229C19.6419 24.4987 19.486 24.5569 19.4592 24.6102C19.3999 24.7225 19.3674 24.8468 19.3642 24.9736C19.3642 25.3976 19.4008 25.8265 19.3642 26.2505C19.3655 26.2602 19.3655 26.27 19.3642 26.2796C19.3034 27.2658 19.1646 28.2738 18.9965 29.3399C18.8626 30.2 18.6215 31.6926 18.5558 31.8259C18.3122 32.1578 17.964 32.2862 17.7668 32.1845C17.4745 32.0342 17.5549 31.4212 17.5646 31.351ZM19.6833 14.2615C19.6443 13.2415 19.6175 12.2383 19.5639 11.2376C19.544 11.0358 19.4541 10.8471 19.3097 10.7039C19.1653 10.5607 18.9754 10.4718 18.7725 10.4526C18.2855 10.4211 17.9324 10.6343 17.8374 11.0923C17.7517 11.4842 17.7044 11.8834 17.6961 12.2844C17.6767 13.932 17.6961 15.5821 17.6718 17.2297C17.6614 17.3208 17.6315 17.4087 17.584 17.4873C17.5365 17.5659 17.4726 17.6334 17.3966 17.6852C16.9607 17.9275 16.4956 18.1456 16.0402 18.3637C15.7626 18.4969 15.4752 18.606 15.2025 18.7489C14.8421 18.9355 14.4963 19.1463 14.1335 19.3305C13.7706 19.5146 13.4029 19.6769 13.023 19.8611C12.6431 20.0452 12.3265 20.2512 11.9588 20.4038C11.8221 20.4532 11.7019 20.5393 11.6116 20.6527C11.5213 20.7661 11.4645 20.9023 11.4474 21.0459C11.3914 21.4094 11.4109 21.7728 11.7397 22.0151C11.898 22.1314 12.1293 22.2768 12.2876 22.2405C12.6754 22.1371 13.051 21.9925 13.4078 21.8092C13.9459 21.5523 14.4646 21.2543 15.0004 20.9926C15.6506 20.6752 16.3129 20.3845 16.9485 20.0622C17.4526 19.8199 17.9226 19.5219 18.4364 19.2699C18.555 19.2214 18.688 19.2214 18.8066 19.2699C19.0972 19.3899 19.3809 19.5258 19.6565 19.6769C20.426 20.0816 21.1931 20.4935 21.9626 20.8884C22.0015 20.9078 22.0527 20.9103 22.0941 20.9272C22.4715 21.092 22.8563 21.2446 23.224 21.4118C23.7695 21.6783 24.2979 21.9764 24.8458 22.2381C24.909 22.2665 24.9775 22.2812 25.0468 22.2812C25.116 22.2812 25.1845 22.2665 25.2477 22.2381C25.5277 22.0757 25.8686 21.957 25.9125 21.5523C25.9563 21.1477 25.9344 20.7091 25.5034 20.4644C25.0723 20.2197 24.6194 19.9798 24.1713 19.7521C23.9083 19.6139 23.6356 19.488 23.3653 19.362C22.9951 19.1899 22.6177 19.03 22.2499 18.8507C21.6022 18.5333 20.9666 18.182 20.3018 17.8815C19.7149 17.6125 19.6005 17.4551 19.6759 16.8105C19.6759 16.7766 19.6759 16.7427 19.6759 16.7063L19.6833 14.2615Z" fill="#FFAB40"/>
</svg>
