<svg width="17" height="17" viewBox="0 0 17 17" fill="none"
    xmlns="http://www.w3.org/2000/svg">
    <path d="M14.9512 16.9998C10.6636 16.9998 6.37595 16.9998 2.08832 16.9998C2.06404 16.9901 2.03976 16.9756 2.01549 16.9707C1.11231 16.8056 0.451932 16.0675 0.427653 15.1498C0.403374 14.3437 0.417942 13.5377 0.417942 12.7316C0.417942 10.6582 0.422797 8.58968 0.413086 6.51627C0.413086 6.27348 0.485922 6.11324 0.670441 5.96272C1.28227 5.46743 1.87952 4.96243 2.48164 4.46229C2.56419 4.39431 2.59332 4.32633 2.58846 4.22436C2.58361 3.49114 2.58846 2.75306 2.58846 2.01984C2.58846 1.61681 2.71957 1.48571 3.1226 1.48085C4.0549 1.48085 4.99206 1.48571 5.92437 1.476C6.01177 1.476 6.1186 1.4323 6.18658 1.37888C6.54591 1.09239 6.89066 0.791336 7.24999 0.504847C8.0609 -0.145825 9.04176 -0.136113 9.84296 0.529125C10.1829 0.810759 10.5179 1.1021 10.8627 1.37403C10.9355 1.4323 11.0472 1.476 11.1394 1.476C12.0718 1.48571 13.0089 1.48085 13.9412 1.48085C14.2763 1.48085 14.4268 1.63138 14.4268 1.96643C14.4268 2.7045 14.4268 3.44743 14.4268 4.18551C14.4268 4.29234 14.4608 4.35546 14.5385 4.42344C15.1406 4.91873 15.7281 5.42858 16.3351 5.91416C16.5536 6.08897 16.641 6.27348 16.6362 6.55997C16.6265 9.32775 16.6313 12.0955 16.6265 14.8633C16.6265 14.9701 16.6265 15.0721 16.6167 15.1789C16.5585 15.9073 16.204 16.4511 15.5582 16.7862C15.3688 16.8882 15.1552 16.9319 14.9512 16.9998ZM1.19972 7.16694C1.19486 7.21064 1.19001 7.23492 1.19001 7.26406C1.19001 9.86189 1.19001 12.4549 1.19001 15.0527C1.19001 15.3198 1.2677 15.5625 1.43279 15.7762C1.69986 16.121 2.06404 16.2326 2.48164 16.2326C6.5022 16.2326 10.5276 16.2326 14.5482 16.2326C14.5822 16.2326 14.6162 16.2326 14.6453 16.2326C15.3688 16.2084 15.8398 15.7325 15.8447 15.009C15.8495 12.4403 15.8447 9.8716 15.8447 7.3029C15.8447 7.26406 15.835 7.22521 15.8301 7.1718C15.7718 7.21064 15.733 7.23978 15.6893 7.26891C13.7179 8.74021 11.7416 10.2164 9.77013 11.6877C8.96407 12.2898 8.07061 12.2898 7.26456 11.6877C5.29312 10.2115 3.31683 8.74021 1.34539 7.26891C1.30654 7.23492 1.26284 7.20579 1.19972 7.16694ZM3.3751 2.2772C3.37024 2.32575 3.36539 2.35975 3.36539 2.39859C3.36539 4.16609 3.36539 5.93358 3.37024 7.70108C3.37024 7.76906 3.42365 7.85646 3.48192 7.89531C4.90952 8.96357 6.34196 10.027 7.76956 11.0904C8.26484 11.4546 8.78926 11.4594 9.28455 11.0904C10.6976 10.0415 12.1106 8.98785 13.5236 7.93901C13.6159 7.87103 13.645 7.80305 13.645 7.69136C13.6402 5.93844 13.645 4.19036 13.6402 2.43744C13.6402 2.38402 13.6353 2.33061 13.6305 2.27234C10.2023 2.2772 6.79355 2.2772 3.3751 2.2772ZM14.4365 5.3606C14.4365 6.00642 14.4365 6.6231 14.4365 7.2592C14.8444 6.95329 15.2377 6.66194 15.6407 6.36574C15.228 6.02098 14.8395 5.69565 14.4365 5.3606ZM2.57875 5.38488C2.17087 5.71993 1.79212 6.03555 1.40366 6.35603C1.80669 6.65223 2.18058 6.93387 2.57875 7.23007C2.57875 6.60853 2.57875 6.01613 2.57875 5.38488ZM9.72643 1.48085C8.7747 0.504847 8.1046 0.665087 7.32283 1.48085C8.12403 1.48085 8.91551 1.48085 9.72643 1.48085Z" />
    <path d="M8.50235 8.08454C7.74485 8.08454 6.99221 8.08454 6.23471 8.08454C6.15216 8.08454 6.06962 8.07483 5.99192 8.0554C5.83654 8.0117 5.73457 7.85146 5.73942 7.68637C5.74428 7.51641 5.86567 7.36103 6.03077 7.32704C6.10361 7.31247 6.18615 7.30762 6.25899 7.30762C7.76913 7.30762 9.28413 7.30762 10.7943 7.30762C10.8671 7.30762 10.9399 7.31247 11.0079 7.32218C11.1779 7.35617 11.2993 7.49699 11.309 7.6718C11.3187 7.84661 11.2167 8.00199 11.0516 8.05055C10.9739 8.07483 10.8865 8.07968 10.8088 8.07968C10.0368 8.08454 9.26956 8.08454 8.50235 8.08454Z" />
    <path d="M7.1629 6.13242C6.80357 6.13242 6.44425 6.13727 6.08492 6.13242C5.92468 6.12756 5.81785 6.0353 5.75959 5.88963C5.70132 5.74881 5.72074 5.60314 5.83242 5.50602C5.91983 5.43319 6.04607 5.37006 6.1529 5.37006C6.82785 5.3555 7.49795 5.36035 8.1729 5.36521C8.42054 5.36521 8.58563 5.52545 8.59049 5.74396C8.59535 5.97218 8.43025 6.12756 8.16804 6.13242C7.83299 6.13727 7.49309 6.13242 7.15804 6.13242C7.1629 6.13727 7.1629 6.13727 7.1629 6.13242Z"/>
</svg>
