<?xml version="1.0" encoding="UTF-8" standalone="no"?>
<svg
   xmlns:dc="http://purl.org/dc/elements/1.1/"
   xmlns:cc="http://creativecommons.org/ns#"
   xmlns:rdf="http://www.w3.org/1999/02/22-rdf-syntax-ns#"
   xmlns:svg="http://www.w3.org/2000/svg"
   xmlns="http://www.w3.org/2000/svg"
   xmlns:sodipodi="http://sodipodi.sourceforge.net/DTD/sodipodi-0.dtd"
   xmlns:inkscape="http://www.inkscape.org/namespaces/inkscape"
   width="340.51001"
   height="340.51001"
   viewBox="0 0 340.51001 340.51001"
   fill="none"
   version="1.1"
   id="svg16"
   sodipodi:docname="km.svg"
   inkscape:version="1.0.1 (c497b03c, 2020-09-10)">
  <metadata
     id="metadata22">
    <rdf:RDF>
      <cc:Work
         rdf:about="">
        <dc:format>image/svg+xml</dc:format>
        <dc:type
           rdf:resource="http://purl.org/dc/dcmitype/StillImage" />
        <dc:title></dc:title>
      </cc:Work>
    </rdf:RDF>
  </metadata>
  <defs
     id="defs20" />
  <sodipodi:namedview
     pagecolor="#ffffff"
     bordercolor="#666666"
     borderopacity="1"
     objecttolerance="10"
     gridtolerance="10"
     guidetolerance="10"
     inkscape:pageopacity="0"
     inkscape:pageshadow="2"
     inkscape:window-width="1920"
     inkscape:window-height="1147"
     id="namedview18"
     showgrid="false"
     inkscape:zoom="1.2332215"
     inkscape:cx="170.62"
     inkscape:cy="170.62"
     inkscape:window-x="0"
     inkscape:window-y="25"
     inkscape:window-maximized="1"
     inkscape:current-layer="svg16" />
  <path
     d="M 309.62,0 H 30.89 C 13.83,0 0,13.83 0,30.89 v 278.73 c 0,17.06 13.83,30.89 30.89,30.89 h 278.73 c 17.06,0 30.89,-13.83 30.89,-30.89 V 30.89 C 340.51,13.83 326.68,0 309.62,0 Z"
     fill="#1d1d1b"
     id="path10" />
  <path
     d="m 58.62,103.14 h 16.77 v 56.42 H 76 c 3.41,-4.54 7,-8.62 10.26,-12.44 l 39.71,-44 h 20.78 l -47,49.75 50.73,67.3 H 130.52 L 87.81,162.76 75.34,175.62 V 220.2 H 58.62 Z"
     fill="#ffffff"
     id="path12" />
  <path
     d="m 272.79,168.79 c -1,-16.26 -2.19,-36 -2.08,-50.48 h -0.53 c -4.47,13.58 -9.86,28.33 -16.35,44.37 l -22.95,56.77 H 218.2 l -21.18,-55.73 c -6.19,-16.54 -11.24,-31.55 -14.88,-45.41 h -0.46 c -0.45,14.58 -1.29,34.07 -2.55,51.63 l -3.46,50.25 h -15.95 l 9,-117 h 21.5 l 22.13,56.65 c 5.36,14.33 9.72,27.22 13.1,39.44 h 0.5 c 3.42,-11.86 8,-24.76 13.75,-39.42 l 23.19,-56.67 h 21.47 l 8.06,117 h -16.51 z"
     fill="#ffffff"
     id="path14" />
</svg>
