<svg width="596" height="596" viewBox="0 0 596 596" fill="none" xmlns="http://www.w3.org/2000/svg">
<path d="M437 127.38H158.27C141.21 127.38 127.38 141.21 127.38 158.27V437C127.38 454.06 141.21 467.89 158.27 467.89H437C454.06 467.89 467.89 454.06 467.89 437V158.27C467.89 141.21 454.06 127.38 437 127.38Z" fill="#1D1D1B"/>
<path d="M186 230.52H202.77V286.94H203.38C206.79 282.4 210.38 278.32 213.64 274.5L253.35 230.5H274.13L227.13 280.25L277.86 347.55H257.9L215.19 290.14L202.72 303V347.58H186V230.52Z" fill="white"/>
<path d="M400.17 296.17C399.17 279.91 397.98 260.17 398.09 245.69H397.56C393.09 259.27 387.7 274.02 381.21 290.06L358.26 346.83H345.58L324.4 291.1C318.21 274.56 313.16 259.55 309.52 245.69H309.06C308.61 260.27 307.77 279.76 306.51 297.32L303.05 347.57H287.1L296.1 230.57H317.6L339.73 287.22C345.09 301.55 349.45 314.44 352.83 326.66H353.33C356.75 314.8 361.33 301.9 367.08 287.24L390.27 230.57H411.74L419.8 347.57H403.29L400.17 296.17Z" fill="white"/>
</svg>
