<svg width="111" height="111" viewBox="0 0 111 111" fill="none" xmlns="http://www.w3.org/2000/svg">
<g filter="url(#filter0_d_4489_28524)">
<circle cx="55.5" cy="51.5" r="47.5" fill="url(#paint0_radial_4489_28524)" shape-rendering="crispEdges"/>
<circle cx="55.5" cy="51.5" r="49.5" stroke="#FDD835" stroke-width="4" shape-rendering="crispEdges"/>
</g>
<g clip-path="url(#clip0_4489_28524)">
<path d="M43.8187 30.5253C42.2747 29.2463 40.7449 27.9532 39.1781 26.6954C38.6582 26.2812 38.2836 25.884 38.5272 25.1812C38.5468 25.0886 38.5554 24.994 38.5528 24.8994C38.6867 23.5219 38.8234 22.1443 38.9545 20.7667C39.0114 20.1709 39.0812 19.575 39.1097 18.9778C39.1354 18.4341 38.7166 18.1862 38.2337 18.4369C38.013 18.551 37.8064 18.6848 37.5942 18.8158C35.8679 19.8863 34.1458 20.9611 32.4138 22.0217C32.3395 22.0685 32.2565 22.1002 32.1697 22.115C32.0829 22.1297 31.994 22.1272 31.9081 22.1077C31.0393 21.764 30.1861 21.3865 29.3272 21.0202C28.0666 20.4878 26.8104 19.9399 25.5455 19.4117C25.0356 19.1975 24.6695 19.475 24.7151 20.0187C24.7253 20.1242 24.7434 20.2287 24.7692 20.3314C24.9411 21.0132 25.1149 21.6945 25.2906 22.3753C25.6495 23.7839 26.0027 25.1924 26.3702 26.601C26.4094 26.7108 26.4169 26.8292 26.3917 26.9429C26.3665 27.0566 26.3098 27.1612 26.2278 27.2447C25.4031 28.1504 24.5912 29.0759 23.7765 29.983C23.0458 30.8028 22.3151 31.6268 21.5402 32.4987C21.5117 32.5409 21.479 32.5297 21.4434 32.5635V33.0339C21.459 33.0579 21.5359 33.0607 21.5858 33.0832C21.6019 33.0899 21.6176 33.0974 21.6328 33.1058C21.8337 33.1881 22.0435 33.2472 22.2581 33.2818C23.6825 33.3889 25.0968 33.4748 26.5169 33.5636C27.3103 33.6171 28.1023 33.6748 28.8942 33.7284C29.1264 33.7453 29.3215 33.796 29.4511 34.0284C30.065 35.0848 30.6989 36.1286 31.3256 37.178C31.8478 38.055 32.3701 38.9326 32.8924 39.8106C33.0248 40.0317 33.2 40.2571 33.4764 40.1754C33.6744 40.1162 33.8382 39.9261 34.0034 39.7796C34.0534 39.7139 34.0888 39.6386 34.1074 39.5584C34.9392 37.5315 35.7568 35.5032 36.5986 33.4805C36.6384 33.4014 36.6944 33.3314 36.7631 33.2749C36.8317 33.2184 36.9115 33.1766 36.9974 33.1523C39.1667 32.6607 41.3417 32.1916 43.5138 31.7099C43.7888 31.6493 44.0836 31.5817 44.1634 31.2436C44.2431 30.9056 44.0466 30.714 43.8187 30.5253Z" fill="#FDD835"/>
<path d="M93.0448 37.3611C92.8191 37.2596 92.5845 37.1785 92.344 37.1188C90.8247 36.8878 89.3007 36.6676 87.7719 36.4582C87.4727 36.4174 87.279 36.3173 87.1494 36.0356C86.8916 35.4722 86.5953 34.9215 86.3176 34.3651C85.8988 33.5199 85.5 32.6748 85.0542 31.8494C84.9321 31.6443 84.7354 31.4931 84.5044 31.4268C84.2309 31.3662 84.0286 31.5817 83.9189 31.8494C83.8876 31.924 83.8435 31.9902 83.8064 32.0677C83.1427 33.4016 82.486 34.744 81.8038 36.0652C81.7551 36.1526 81.6894 36.2296 81.6104 36.2918C81.5314 36.3539 81.4408 36.3999 81.3437 36.4272C80.5988 36.5681 79.8438 36.6498 79.0932 36.7582C78.2144 36.885 77.3341 37.0075 76.4581 37.1498C76.0522 37.216 75.8457 37.5625 76.0009 37.8992C76.0804 38.0426 76.185 38.1709 76.31 38.2781C77.4267 39.3627 78.552 40.4388 79.6615 41.5291C79.7213 41.5867 79.7687 41.6558 79.8008 41.732C79.8328 41.8083 79.8489 41.8902 79.8481 41.9728C79.6587 43.1531 79.4379 44.3293 79.2314 45.5069C79.153 45.9463 79.0704 46.3844 79.022 46.8267C78.9622 47.3901 79.3581 47.6592 79.8766 47.4267C79.9407 47.3986 80.0048 47.369 80.0689 47.3366C81.4192 46.6323 82.7752 45.928 84.1198 45.2237C84.2247 45.1543 84.3477 45.1161 84.474 45.1139C84.6003 45.1116 84.7245 45.1454 84.832 45.2111C85.3746 45.5209 85.9358 45.7998 86.4913 46.0886C87.3616 46.5407 88.2276 46.9971 89.1036 47.4394C89.568 47.6732 89.9682 47.4084 89.9511 46.8929C89.944 46.7643 89.9283 46.6363 89.9041 46.5098C89.6468 45.0308 89.3875 43.5522 89.1264 42.0742C89.1022 41.9665 89.1082 41.8543 89.1439 41.7498C89.1795 41.6452 89.2434 41.5523 89.3287 41.4812C90.5479 40.3219 91.7501 39.1514 92.995 37.9597L93.052 37.909C93.1192 37.8134 93.1462 37.6958 93.1274 37.5808" fill="#FDD835"/>
<path d="M75.2815 49.9721C74.6847 50.4862 74.0978 50.9792 73.5252 51.4863C71.2733 53.4851 69.3632 55.7782 67.6412 58.2319C65.3352 61.5167 63.5105 65.0565 61.9437 68.7371C60.8031 71.4126 59.8391 74.1585 59.058 76.9575C58.4042 79.3295 57.8373 81.7241 57.232 84.1088C57.1522 84.4257 57.0895 84.7497 56.9898 85.061C56.9459 85.2216 56.8435 85.3604 56.7023 85.4509C56.5611 85.5414 56.3911 85.5771 56.2249 85.5512C56.0654 85.53 55.9173 85.4578 55.8031 85.3457C55.689 85.2335 55.615 85.0876 55.5925 84.93C55.5794 84.8253 55.5742 84.7199 55.5768 84.6145C55.5768 81.786 55.611 78.9576 55.9671 76.1461C56.2321 74.0544 56.487 71.9556 56.8759 69.8836C57.222 68.0328 57.702 66.203 58.2005 64.3902C59.092 61.1556 60.3182 58.0205 61.8597 55.0345C64.3523 50.1862 67.5372 45.8436 71.6679 42.2165C71.9613 41.9601 72.2604 41.7122 72.5481 41.4502C72.5704 41.4194 72.5998 41.3943 72.6338 41.377C72.6679 41.3596 72.7057 41.3506 72.744 41.3506C72.7823 41.3506 72.82 41.3596 72.8541 41.377C72.8882 41.3943 72.9175 41.4194 72.9398 41.4502C73.5309 42.0277 74.1406 42.5855 74.7103 43.1814C74.8228 43.3011 74.8371 43.5673 74.81 43.7532C74.6932 44.5773 74.5337 45.3942 74.4112 46.2168C74.2153 47.4208 74.4722 48.654 75.1333 49.6833C75.1818 49.7678 75.2202 49.8538 75.2815 49.9721Z" fill="#FDD835"/>
<path d="M51.808 78.3563V83.2145C51.813 83.3203 51.8087 83.4263 51.7952 83.5314C51.7496 83.792 51.6286 84.0146 51.3294 84.023C51.0303 84.0315 50.8779 83.8202 50.8323 83.561C50.6828 82.706 50.5475 81.8468 50.4136 80.9918C50.1985 79.6846 49.9863 78.3761 49.7612 77.0717C49.5205 75.6984 49.2798 74.3236 49.0049 72.9559C48.6687 71.2778 48.3126 69.6044 47.9366 67.9357C47.609 66.4722 47.2643 65.013 46.8911 63.5607C46.4909 62.0113 46.0792 60.4548 45.6177 58.9124C45.1064 57.2081 44.568 55.5093 43.9783 53.8289C42.7733 50.4019 41.3489 47.0649 39.4973 43.9154C39.1412 43.3083 38.7181 42.7392 38.3578 42.1335C38.3093 42.0461 38.2788 41.9501 38.268 41.851C38.2573 41.7519 38.2665 41.6516 38.2951 41.556C38.8278 40.1925 39.3919 38.8403 39.9402 37.4824C39.971 37.3898 40.0273 37.3075 40.1028 37.2448C40.1783 37.1821 40.27 37.1415 40.3675 37.1275C41.7444 36.8317 43.1185 36.5237 44.4897 36.2035C44.8044 36.1302 44.9668 36.2105 45.0594 36.5218C45.7716 38.791 46.5422 41.0419 47.1959 43.3266C47.7657 45.2986 48.2357 47.2945 48.6858 49.2933C49.0348 50.8427 49.3125 52.4203 49.5689 53.9923C49.9521 56.3418 50.3181 58.6927 50.6343 61.0506C50.8437 62.6001 50.9691 64.1763 51.1072 65.7412C51.2497 67.3427 51.3921 68.9443 51.4747 70.5486C51.5958 72.8685 51.6642 75.1969 51.751 77.5126C51.761 77.7943 51.751 78.076 51.751 78.3577L51.808 78.3563Z" fill="#FDD835"/>
<path d="M75.2712 69.7471C75.4478 70.957 76.0404 71.9304 76.7568 72.8459C76.828 72.9389 76.8081 73.1051 76.8195 73.2375C76.8195 73.2812 76.7882 73.3277 76.7839 73.3784C76.7098 74.1742 76.0831 74.2235 75.4891 74.332C73.0813 74.8106 70.7972 75.7691 68.7761 77.1491C66.1439 78.9126 63.9646 81.1199 62.1258 83.6708C61.997 83.8532 61.8572 84.0277 61.707 84.1934C61.5582 84.3718 61.3498 84.4918 61.1194 84.5316C60.889 84.5714 60.6519 84.5283 60.4507 84.4103C60.2494 84.2942 60.0935 84.1145 60.008 83.9001C59.9225 83.6858 59.9124 83.4492 59.9793 83.2285C60.6278 80.9543 61.722 78.8284 63.1997 76.9716C65.0998 74.6207 67.4728 72.8868 70.1976 71.5782C71.712 70.8588 73.2842 70.2652 74.898 69.8034C75.0213 69.7778 75.1459 69.759 75.2712 69.7471Z" fill="#FDD835"/>
<path d="M25.3763 57.4629L27.7236 57.8151C28.072 57.8813 28.4239 57.9284 28.7776 57.9559C28.9464 57.9417 29.1038 57.8659 29.2192 57.7433C29.9186 57.0263 30.6023 56.2938 31.2902 55.567C31.4825 55.3642 31.6905 55.1754 32.0024 55.274C32.3143 55.3726 32.3784 55.6262 32.4297 55.9079C32.5935 56.9037 32.7602 57.8982 32.9524 58.887C32.9728 58.9713 33.0101 59.0508 33.0623 59.1205C33.1144 59.1902 33.1802 59.2488 33.2558 59.2927C34.1105 59.7153 34.985 60.1097 35.8525 60.5139C35.9379 60.5534 36.0205 60.5984 36.1074 60.6365C36.351 60.7463 36.5746 60.9308 36.5176 61.1872C36.4563 61.4178 36.308 61.6164 36.1031 61.7422C35.2158 62.2324 34.3056 62.6845 33.3968 63.1409C33.299 63.1789 33.2141 63.2435 33.1518 63.3273C33.0896 63.411 33.0525 63.5105 33.045 63.6142C32.9311 64.6002 32.7915 65.5862 32.6718 66.582C32.6362 66.875 32.5693 67.1455 32.2645 67.2666C31.9597 67.3877 31.7489 67.2032 31.5523 67.006C30.8259 66.3017 30.0938 65.5974 29.3702 64.8861C29.3067 64.8105 29.2227 64.7545 29.128 64.7248C29.0333 64.6951 28.932 64.6929 28.836 64.7185C27.7948 64.9368 26.7508 65.1509 25.7024 65.327C25.5941 65.3388 25.4845 65.326 25.382 65.2893C25.2796 65.2527 25.187 65.1933 25.1113 65.1157C25.0576 65.0247 25.0252 64.9228 25.0166 64.8178C25.008 64.7127 25.0233 64.607 25.0615 64.5086C25.4888 63.5846 25.956 62.6775 26.4274 61.7704C26.4962 61.6632 26.5328 61.5388 26.5328 61.4119C26.5328 61.2849 26.4962 61.1606 26.4274 61.0534C25.9189 60.1674 25.4204 59.2744 24.9547 58.3658C24.8729 58.158 24.8775 57.9266 24.9675 57.7221C25.0287 57.5813 25.2737 57.5221 25.3763 57.4629Z" fill="#FDD835"/>
<path d="M82.1561 68.6272C82.666 68.6272 83.176 68.6131 83.6845 68.6342C83.7956 68.6448 83.9075 68.6239 84.007 68.574C84.1066 68.5241 84.1899 68.4473 84.2471 68.3525C84.8296 67.5398 85.4165 66.7299 86.0332 65.9425C86.1848 65.7446 86.4068 65.6111 86.6543 65.5692C86.969 65.5509 87.1044 65.8396 87.1884 66.1326C87.459 67.0665 87.7496 67.9947 88.0259 68.9272C88.0504 69.0513 88.11 69.166 88.1977 69.258C88.2855 69.35 88.3977 69.4155 88.5216 69.447C89.4503 69.7287 90.3733 70.0344 91.2905 70.333C91.3347 70.3471 91.396 70.3428 91.4259 70.371C91.5939 70.5358 91.8532 70.6893 91.8888 70.8809C91.9201 71.0485 91.7463 71.326 91.584 71.4443C90.755 72.05 89.9089 72.6318 89.0515 73.198C88.9456 73.259 88.8596 73.3487 88.8038 73.4566C88.748 73.5645 88.7247 73.6859 88.7367 73.8065C88.7495 74.7686 88.7466 75.7306 88.7367 76.6927C88.7453 76.8787 88.7092 77.0641 88.6313 77.2336C88.4575 77.5434 88.0914 77.5491 87.7083 77.2631C86.9135 76.6701 86.1187 76.0771 85.3381 75.4672C85.2471 75.3848 85.1346 75.3292 85.0133 75.3066C84.892 75.2839 84.7668 75.2952 84.6516 75.339C83.7429 75.6391 82.8313 75.932 81.9211 76.2264C81.8309 76.2558 81.7391 76.2802 81.6462 76.2997C81.1049 76.4124 80.7702 76.063 80.9468 75.5503C81.2659 74.6193 81.5878 73.6882 81.9353 72.767C82.0061 72.6216 82.0326 72.4589 82.0116 72.2989C81.9907 72.1388 81.9231 71.9883 81.8171 71.8655C81.2388 71.1246 80.6947 70.3555 80.1392 69.5963C79.9768 69.3751 79.8073 69.1455 79.9654 68.8582C80.1236 68.5709 80.3928 68.5244 80.6976 68.5314C81.1833 68.5441 81.6704 68.5314 82.1561 68.5314V68.6272Z" fill="#FDD835"/>
<path d="M69.2657 19.9753C69.1674 20.3979 69.0648 20.8613 68.9495 21.3275C68.7942 21.953 68.6119 22.5727 68.4823 23.2038C68.4781 23.2924 68.4917 23.3809 68.5223 23.4643C68.5528 23.5477 68.5997 23.6243 68.6603 23.6897C69.2885 24.4081 69.9422 25.1053 70.5789 25.8138C70.683 25.9255 70.7747 26.0478 70.8524 26.1787C70.8985 26.2443 70.9275 26.3202 70.937 26.3996C70.9464 26.479 70.936 26.5594 70.9066 26.6339C70.8772 26.7083 70.8297 26.7745 70.7683 26.8265C70.707 26.8786 70.6336 26.9149 70.5547 26.9323C70.3854 26.9841 70.2103 27.0158 70.0334 27.0266C69.1574 27.0928 68.2829 27.1675 67.4069 27.1999C67.243 27.1921 67.0805 27.2329 66.9402 27.317C66.7999 27.401 66.6881 27.5245 66.6192 27.6718C66.1677 28.4944 65.672 29.293 65.1948 30.1015C65.0524 30.3509 64.8915 30.5917 64.5482 30.565C64.2049 30.5382 64.0781 30.2832 63.967 30.0198C63.5924 29.1212 63.215 28.2253 62.8518 27.3224C62.8184 27.2121 62.7537 27.1136 62.6653 27.0387C62.5769 26.9638 62.4686 26.9156 62.3532 26.8999C61.3434 26.7012 60.3378 26.4773 59.3393 26.2364C59.1209 26.1699 58.9361 26.0239 58.8222 25.8279C58.6912 25.5828 58.8692 25.3603 59.0701 25.1913C59.8535 24.5292 60.6369 23.8602 61.4246 23.208C61.5196 23.1407 61.5927 23.0474 61.6347 22.9395C61.6768 22.8316 61.6859 22.7139 61.661 22.6009C61.5342 21.6008 61.4217 20.5979 61.3505 19.5922C61.3362 19.3823 61.4616 19.0654 61.6254 18.9682C61.7892 18.871 62.1196 18.9189 62.3077 19.0259C63.1908 19.5246 64.0568 20.0556 64.9157 20.5965C65.0113 20.664 65.124 20.7039 65.2413 20.7116C65.3585 20.7193 65.4756 20.6946 65.5794 20.6402C66.5394 20.2176 67.5009 19.795 68.468 19.3725C68.8782 19.2048 69.2728 19.4823 69.2657 19.9753Z" fill="#FDD835"/>
<path d="M56.049 29.7607C56.4364 29.9734 56.7768 30.2199 57.1585 30.358C57.7781 30.5819 58.4276 30.7242 59.0558 30.9214C59.2147 30.9724 59.3501 31.0778 59.4375 31.2186C59.6896 31.6947 59.9161 32.1849 60.1226 32.6821C60.1737 32.831 60.1712 32.9927 60.1155 33.1399C59.4774 34.764 58.7666 36.3641 58.1955 38.0107C57.7126 39.4024 57.3409 40.8363 57.0004 42.2717C56.6315 43.8211 56.3267 45.386 56.0433 46.9538C55.8467 48.0482 55.7285 49.1582 55.5832 50.2625C55.4835 51.0189 55.398 51.7767 55.2983 52.5331C55.2956 52.5953 55.28 52.6562 55.2524 52.7121C55.2248 52.7681 55.1859 52.8178 55.1381 52.8582C55.0903 52.8987 55.0346 52.9289 54.9744 52.9471C54.9142 52.9654 54.8509 52.9711 54.7884 52.9641C54.5035 52.9641 54.3397 52.8092 54.3027 52.5077C53.8754 48.9258 53.6475 45.324 53.8027 41.7251C53.8886 39.8507 54.0717 37.9819 54.3511 36.1261C54.6492 34.0602 55.1628 32.0304 55.8837 30.0692C55.9334 29.9637 55.9886 29.8607 56.049 29.7607Z" fill="#FDD835"/>
<path d="M40.2777 64.1914C40.8816 65.1478 41.4613 66.0225 41.9869 66.9156C43.4027 69.3102 44.4753 71.8625 45.3328 74.4937C45.9509 76.3854 46.4309 78.3222 46.9166 80.2533C47.2329 81.5126 47.4536 82.7972 47.7129 84.072C47.7619 84.2438 47.7405 84.4278 47.6533 84.5841C47.5661 84.7405 47.4202 84.8565 47.2471 84.9072C46.8839 85.0199 46.5506 84.8467 46.3725 84.4382C45.9452 83.4592 45.5336 82.4761 45.1006 81.5013C43.3429 77.5348 41.2463 73.7739 38.6269 70.3032C38.1867 69.7215 37.7024 69.1763 37.2281 68.6129C37.1596 68.5424 37.1112 68.4552 37.088 68.3602C37.0647 68.2651 37.0673 68.1657 37.0957 68.072C37.2047 67.6158 37.2855 67.1534 37.3378 66.6874C37.3458 66.5484 37.3947 66.4148 37.4784 66.3029C37.5622 66.1911 37.6772 66.1059 37.8093 66.0578C38.5876 65.7345 39.2877 65.2515 39.8632 64.6407L40.2777 64.1914Z" fill="#FDD835"/>
</g>
<defs>
<filter id="filter0_d_4489_28524" x="0" y="0" width="111" height="111" filterUnits="userSpaceOnUse" color-interpolation-filters="sRGB">
<feFlood flood-opacity="0" result="BackgroundImageFix"/>
<feColorMatrix in="SourceAlpha" type="matrix" values="0 0 0 0 0 0 0 0 0 0 0 0 0 0 0 0 0 0 127 0" result="hardAlpha"/>
<feOffset dy="4"/>
<feGaussianBlur stdDeviation="2"/>
<feComposite in2="hardAlpha" operator="out"/>
<feColorMatrix type="matrix" values="0 0 0 0 0 0 0 0 0 0 0 0 0 0 0 0 0 0 0.25 0"/>
<feBlend mode="normal" in2="BackgroundImageFix" result="effect1_dropShadow_4489_28524"/>
<feBlend mode="normal" in="SourceGraphic" in2="effect1_dropShadow_4489_28524" result="shape"/>
</filter>
<radialGradient id="paint0_radial_4489_28524" cx="0" cy="0" r="1" gradientUnits="userSpaceOnUse" gradientTransform="translate(55.5 51.5) rotate(89.7838) scale(141.434)">
<stop stop-color="white"/>
<stop offset="1" stop-color="#FFF4CD" stop-opacity="0"/>
</radialGradient>
<clipPath id="clip0_4489_28524">
<rect width="71.6981" height="67.217" fill="white" transform="translate(21.4434 18.3398)"/>
</clipPath>
</defs>
</svg>
