<?xml version="1.0" encoding="utf-8"?>
<!-- Generator: Adobe Illustrator 24.1.2, SVG Export Plug-In . SVG Version: 6.00 Build 0)  -->
<svg version="1.1"
	 id="svg146" xmlns:cc="http://creativecommons.org/ns#" xmlns:dc="http://purl.org/dc/elements/1.1/" xmlns:inkscape="http://www.inkscape.org/namespaces/inkscape" xmlns:rdf="http://www.w3.org/1999/02/22-rdf-syntax-ns#" xmlns:sodipodi="http://sodipodi.sourceforge.net/DTD/sodipodi-0.dtd" xmlns:svg="http://www.w3.org/2000/svg"
	 xmlns="http://www.w3.org/2000/svg" xmlns:xlink="http://www.w3.org/1999/xlink" x="0px" y="0px" viewBox="0 0 48.1 79.5"
	 style="enable-background:new 0 0 48.1 79.5;" xml:space="preserve">
<style type="text/css">
	.st0{fill:#FFFFFF;stroke:#7F7FFE;stroke-width:0.1371;stroke-miterlimit:5.3333;}
	.st1{fill:#FFFFFF;stroke:#7F7FFE;stroke-width:0.1174;stroke-miterlimit:5.3333;}
</style>
<sodipodi:namedview  bordercolor="#666666" borderopacity="1" fit-margin-bottom="0" fit-margin-left="0" fit-margin-right="0" fit-margin-top="0" gridtolerance="10" guidetolerance="10" id="namedview148" inkscape:current-layer="svg146" inkscape:cx="83.394426" inkscape:cy="65.392927" inkscape:pageopacity="0" inkscape:pageshadow="2" inkscape:window-height="995" inkscape:window-maximized="1" inkscape:window-width="1920" inkscape:window-x="0" inkscape:window-y="24" inkscape:zoom="5.397974" objecttolerance="10" pagecolor="#ffffff" showgrid="false" units="px">
	</sodipodi:namedview>
<path id="path979" class="st0" d="M26.4,38.1c0-0.8,0.1-1.2,0.2-1.2c0.1,0,0.7-0.3,1.4-0.6c5.1-2.4,8.8-7.1,10-12.7
	c0.4-1.8,0.4-5.1,0.1-6.8c-1.3-6.4-5.7-11.6-11.7-13.6c-2.1-0.7-3.8-1-6.1-1c-2.4,0-4,0.3-6.2,1.1C8.4,5.3,4,10.2,2.6,16
	c-1.2,5.5,0.1,11.1,3.6,15.4c1.7,2.1,3.7,3.6,6.3,4.9L14,37l0,1.1l0,1.1l-0.4-0.1c-0.6-0.2-2.4-1-3.4-1.6c-5.7-3.3-9.6-9.4-10-15.8
	c-0.8-10.3,6-19.2,16.3-21.4C18.3,0,22.4,0,24.3,0.4c8,1.8,14,7.8,15.8,15.8c0.4,1.6,0.4,6.1,0,7.8c-0.9,4.1-2.7,7.4-5.6,10.3
	c-2.2,2.2-4.6,3.7-7.3,4.7l-0.9,0.3L26.4,38.1L26.4,38.1z"/>
<path id="path981" class="st0" d="M12.6,33c-6-3.6-8.7-10.4-6.8-17C7.3,11,11.1,7.3,16.3,5.7c1.2-0.4,1.4-0.4,4-0.4
	c2.6,0,2.8,0,3.9,0.4c2.7,0.8,4.9,2.1,6.7,4c1.4,1.4,2.1,2.5,2.9,4.1c2.3,4.9,1.8,10.3-1.3,14.9c-0.8,1.1-2.6,2.9-3.8,3.7
	c-1,0.6-2.1,1.3-2.3,1.3c0,0-0.1-0.5-0.1-1.1l0-1.1l0.8-0.5c1.9-1.3,3.6-3.1,4.6-5.2c1-2,1.2-3.1,1.2-5.5c0-1.8,0-2.3-0.3-3.3
	c-1.2-4.4-4.8-8-9.3-9.2c-1.3-0.3-3.6-0.5-5-0.3c-4.2,0.6-8.1,3.4-9.9,7.3c-0.8,1.7-1,2.8-1.1,4.9c-0.1,1.4,0,2.1,0.2,3
	c0.3,1.5,1.1,3.4,1.9,4.6c0.7,1.1,2.6,2.9,3.7,3.7l0.8,0.5v1.1c0,0.6,0,1.1-0.1,1.1C13.8,33.7,13.2,33.4,12.6,33z"/>
<path id="path983" class="st0" d="M13.1,27.2c-2.2-2.4-3-4.5-2.9-7.5c0.1-2.6,0.9-4.6,2.8-6.5C17,8.9,23.7,9,27.8,13.5
	c1,1.1,2.1,3.2,2.4,4.7c0.4,2.2,0,4.8-1.1,6.8c-0.5,1-1.8,2.5-2.3,2.9l-0.4,0.3v-1.4c0-1.3,0-1.5,0.4-1.9c0.9-1.2,1.4-2.8,1.4-4.6
	c0-2.4-0.7-4.2-2.4-5.8c-1.7-1.6-3.3-2.2-5.6-2.2c-3.4,0-6.5,2.2-7.5,5.5c-0.7,2.3-0.3,5.2,1.1,7.1c0.2,0.3,0.3,0.6,0.2,1.8l0,1.5
	L13.1,27.2z"/>
<path id="path1041" class="st1" d="M21.2,77.7v-1.8l-2.9-4.6c-1.6-2.5-3.1-4.9-3.3-5.2c-0.3-0.4-2.7-3-5.5-5.9
	C2.6,53.2,3,53.7,3,52.5c0-2.1,2.8-3.5,5.1-2.6c0.9,0.3,1.2,0.6,5.1,4.6c1.6,1.6,3,3,3,3c0.1,0,0.1-6.5,0.2-16.3l0-16.3l0.3-0.5
	c1.5-2.3,5.2-2.3,6.7,0l0.3,0.4l0.1,10.7l0.1,10.7l0.3,0c0.4,0,0.4-0.3,0.4-2.8c0-2.4,0.1-2.6,1-3.4c1.9-1.5,4.8-1.1,5.9,0.9
	c0.3,0.5,0.3,0.7,0.3,2.6c0,1.1,0.1,2.6,0.1,3.2c0.1,1,0.1,1.2,0.3,1.2c0.2,0,0.2-0.1,0.2-1.9c0-1.9,0-2,0.3-2.5
	c1.2-1.9,4.2-2.3,6-0.7c0.8,0.7,0.9,1,0.9,2.1c0,0.5,0,1.7,0.1,2.8c0.1,1.7,0.1,1.8,0.3,1.8c0.3,0,0.4-0.2,0.4-1.8
	c0-1.4,0.1-1.7,0.9-2.4c0.7-0.6,1.4-0.9,2.5-1c1.2-0.1,2,0.2,2.9,0.9c1.1,1,1,0.4,1,8.8l0,7.5l-1.2,7.2c-0.9,5.6-1.2,7.6-1.3,9
	l-0.1,1.8H33.3H21.2L21.2,77.7z M21.2,26.8c1.2-0.7,1.2-2.1,0-2.8c-0.5-0.3-1.5-0.3-2.1-0.1c-1.1,0.5-1.4,1.7-0.5,2.5
	c0.2,0.2,0.6,0.4,0.8,0.5C20,27.2,20.8,27.1,21.2,26.8z"/>
</svg>
