<svg width="82" height="67" viewBox="0 0 82 67" fill="none"
  xmlns="http://www.w3.org/2000/svg">
  <path d="M78.7578 28.0712C73.8036 23.2879 68.1377 19.3587 61.7599 16.2837C55.3821 13.2087 48.4634 11.6712 41.0036 11.6712C38.9536 11.6712 36.9464 11.8136 34.9818 12.0983C33.0172 12.383 31.38 12.6962 30.0703 13.0379L23.9203 6.97331C26.3689 6.17609 29.0453 5.52122 31.9495 5.00872C34.8536 4.49622 37.8717 4.23997 41.0036 4.23997C49.0898 4.23997 56.8342 5.89136 64.237 9.19414C71.6398 12.4969 78.2168 17.0809 83.9682 22.9462L78.7578 28.0712ZM63.212 43.7025C61.7314 42.2789 60.379 41.1115 59.1547 40.2004C57.9304 39.2893 56.4071 38.3782 54.5849 37.4671L46.2995 29.1816C50.2286 29.5233 53.8873 30.591 57.2755 32.3848C60.6637 34.1785 63.9238 36.6129 67.0557 39.6879L63.212 43.7025ZM68.8495 66.9358L37.7578 35.9296C34.1134 36.4421 30.8106 37.524 27.8495 39.1754C24.8884 40.8268 22.3259 42.7344 20.162 44.8983L14.9516 39.7733C17.0585 37.6664 19.4929 35.716 22.2547 33.9223C25.0165 32.1285 28.1627 30.7476 31.6932 29.7796L18.9661 16.9671C16.1759 18.2198 13.3714 19.8855 10.5526 21.9639C7.73385 24.0424 5.29948 26.0782 3.24948 28.0712L-1.96094 22.9462C0.146007 20.7823 2.58038 18.6612 5.34219 16.5827C8.10399 14.5042 10.7377 12.7816 13.2432 11.415L6.4099 4.58164L9.9974 0.994141L72.3516 63.3483L68.8495 66.9358ZM41.0036 65.8254L31.3516 56.0879C32.6043 54.8351 34.0564 53.8528 35.7078 53.141C37.3592 52.4292 39.1245 52.0733 41.0036 52.0733C42.8828 52.0733 44.6481 52.4292 46.2995 53.141C47.9509 53.8528 49.4314 54.8351 50.7411 56.0879L41.0036 65.8254Z" fill="#262625"/>
</svg>
