<svg id="Layer_1" data-name="Layer 1" xmlns="http://www.w3.org/2000/svg" viewBox="0 0 2500 2500"><defs><style>.cls-1{fill:#fff;}</style></defs><path class="cls-1" d="M1041,154.54c.62.31,1.4.45,1.64.88a2.3,2.3,0,0,1-.06,1.82c-.68,1.44-1.5,2.81-2.31,4.18a235,235,0,0,0-27,68.39c-2.46,10.89-4.48,21.89-5,33.13-.33,7-1.48,14-1.25,21.05a326.21,326.21,0,0,0,3.09,35.31,234.79,234.79,0,0,0,19,64.12,238.88,238.88,0,0,0,36,56.45c2.28,2.67,4.55,5.36,6.78,8.07a2.12,2.12,0,0,1-.35,3,2.45,2.45,0,0,1-.38.24,34.24,34.24,0,0,1-4.53,1.48A788.42,788.42,0,0,0,943.2,491.29a815.87,815.87,0,0,0-397.94,345,800.29,800.29,0,0,0-75.82,174.64c-6.15,20.51-11.6,41.21-15.82,62.21-.57,2.81-1.35,5.59-2.05,8.37a2.13,2.13,0,0,1-2.8,1.14,1.83,1.83,0,0,1-.39-.21c-1-.77-2-1.58-3-2.39-3.21-2.64-6.36-5.36-9.61-7.94A239.07,239.07,0,0,0,336,1025.3a222.87,222.87,0,0,0-38-4.69c-10.9-.42-21.74.06-32.58.51a144.36,144.36,0,0,0-19,2.34c-30.21,5.31-58.6,15.57-84.83,31.61a43.52,43.52,0,0,1-5.08,2.62,2,2,0,0,1-1.7-.33,2.21,2.21,0,0,1-.57-1.7c.57-3.78,1.18-7.57,1.89-11.33,16.9-90.59,44-178,82.48-261.74A1110.51,1110.51,0,0,1,899.23,190.92c33.39-11,67.26-20.3,101.5-28.26,12.43-2.89,25-5.32,37.48-7.93A18.6,18.6,0,0,1,1041,154.54Z"/><path class="cls-1" d="M1463.87,2331.94c-.38-.52-1.1-1.11-1-1.47a25.72,25.72,0,0,1,1.65-4.41,252,252,0,0,0,15.64-40.15,281.65,281.65,0,0,0,7.8-37.47c2.38-16.92,1.57-33.82,1.29-50.76-2.82-27.2-9.14-53.47-20.46-78.48a245.42,245.42,0,0,0-49.19-71.55c-1.78-1.82-3.46-3.74-5.15-5.65-.82-.93-.16-2.64,1.15-3.09a21.51,21.51,0,0,1,2.7-.93,795.1,795.1,0,0,0,204.79-74.17A812.56,812.56,0,0,0,2035.77,1436c1.75-7.13,3.29-14.31,5-21.46.26-1.12,2.29-1.94,3.15-1.27,1.5,1.18,3,2.35,4.4,3.66a278.07,278.07,0,0,0,21,18.25c30.09,23.27,63.67,38.88,101,46.18,9.42,1.84,18.83,3.53,28.46,3.81,4.46.13,8.9.92,13.37,1.08a111.49,111.49,0,0,0,21.06-.79c1.26-.19,2.54-.29,3.82-.36,18.94-1,37.29-5.12,55.29-10.91A229.87,229.87,0,0,0,2326,1460.3a44.72,44.72,0,0,1,5.21-2.41,3.07,3.07,0,0,1,2.58.23c.56.53.57,1.72.67,2.63a6.08,6.08,0,0,1-.18,1.9c-5.2,24-10.51,48.06-17,71.8a1110.26,1110.26,0,0,1-704.72,757.28,1139.78,1139.78,0,0,1-118.71,34.15c-9.33,2.15-18.72,4-28.09,6A8.54,8.54,0,0,1,1463.87,2331.94Z"/><path class="cls-1" d="M1474.8,158.67a1110.08,1110.08,0,0,1,828,746.6,1042.29,1042.29,0,0,1,28.45,107.41c1,4.69,2.14,9.34,3.07,14a10,10,0,0,1-.21,3.77,1.94,1.94,0,0,1-1.38,1.09,3,3,0,0,1-1.81-.26c-2.05-.9-4.07-1.86-6.07-2.85a236.89,236.89,0,0,0-64.35-21.3c-12.31-2.19-24.62-3.78-37.14-3.63-4.15,0-8.31,0-12.47,0-22.56,0-44.47,4.11-65.92,10.84a237.68,237.68,0,0,0-97.49,59,15.83,15.83,0,0,1-1.34,1.37c-1.16,1-2.18,2.58-4,1.71-1.25-.58-1.47-2-1.74-3.23a799.87,799.87,0,0,0-78.1-212.54,816.27,816.27,0,0,0-305.67-317.27,794.3,794.3,0,0,0-192.79-81.52c-12.63-3.46-25.3-6.74-38.06-9.63a2.36,2.36,0,0,1-1.66-2.88,2.48,2.48,0,0,1,.49-.92c.41-.49.83-1,1.26-1.43,1.08-1.18,2.18-2.34,3.24-3.54a240.61,240.61,0,0,0,56-111.91c2.86-13.76,4.85-27.7,4.57-41.86-.12-5.75-.19-11.52,0-17.27.24-9-1.2-17.89-2.56-26.7a239.13,239.13,0,0,0-30.1-84.37,31.89,31.89,0,0,1-2.14-4.25c-.18-.45.16-1.16.39-1.69a1,1,0,0,1,.8-.35C1462.27,156.28,1468.53,157.48,1474.8,158.67Z"/><path class="cls-1" d="M1030.35,2332.2c-.9-.13-2.17-.24-3.42-.5-24.68-5.2-49.25-10.87-73.58-17.55A1110.28,1110.28,0,0,1,191.19,1583.9c-10.67-33.17-19.57-66.82-27.25-100.79-.78-3.43-1.45-6.87-2.07-10.33a3.71,3.71,0,0,1,.52-1.77c.28-.67,1.61-.9,2.55-.48s1.78.72,2.62,1.17c1.69.91,3.32,1.92,5,2.83a239.28,239.28,0,0,0,73.08,25.12c8.15,1.4,16.38,2.87,24.75,2.7,2.54,0,5.09.41,7.65.54a69.52,69.52,0,0,0,9.57.3c10.82-.89,21.66-1,32.47-2.54A243.41,243.41,0,0,0,375.52,1486a238.68,238.68,0,0,0,73.55-46.07c1.65-1.51,3.24-3.09,4.9-4.58s3.3-1.09,4.12,1.46c.5,1.51,1,3,1.41,4.57a790.84,790.84,0,0,0,59.67,162.56,814.18,814.18,0,0,0,479.41,413.52,729,729,0,0,0,77.72,20.66,43.28,43.28,0,0,1,6.38,2,1.72,1.72,0,0,1,.4,1.55c-1.63,1.95-3.33,3.86-5.12,5.66a240.86,240.86,0,0,0-37,47.62,237.52,237.52,0,0,0-28.81,74.77,214.31,214.31,0,0,0-4,29.41c-.4,6.69-1.32,13.37-1.12,20.09.13,4.47.49,8.94.78,13.4.1,1.59.38,3.18.47,4.77,1.81,29.41,9.75,57.2,22.12,83.83,1.34,2.89,2.58,5.83,3.84,8.76.28.65-.82,2-1.58,2.06Z"/><path class="cls-1" d="M1266,742.59c-7.36,0-14.73.32-22.06-.06-22.52-1.18-42.37-9-58.71-24.81a65.7,65.7,0,0,1-18.8-32.84,44.78,44.78,0,0,1-1.25-7.54c-.41-8-.58-15.92,1.5-23.81a73.51,73.51,0,0,1,17.5-31.55c11.8-12.8,26.36-21.15,43-25.86a96.7,96.7,0,0,1,28.39-3.86c9,.19,17.9,0,26.82,1a68.94,68.94,0,0,0,8.62.44c11.87-.14,23.63,1.42,35.37,2.65,11.41,1.2,22.79,2.95,34.14,4.82q28.86,4.76,57.13,12.14a626.24,626.24,0,0,1,104.55,37.41,654.77,654.77,0,0,1,81.43,44.82c8.37,5.41,7.43,5.12,16.81,2,10.36-3.47,21-5.28,31.75-7.16a24.55,24.55,0,0,1,3.83-.24c7-.11,14.07-.22,21.1-.29,11.92-.13,23.54,2,35,5a161.6,161.6,0,0,1,116.14,118.88c3.35,14.14,4.33,28.38,4.21,42.81-.16,20.44-4.77,39.9-12.59,58.68-.86,2.07-1.86,4.08-2.71,6.15a6.49,6.49,0,0,0,.29,5.56c1.15,2.29,2.25,4.6,3.45,6.86,26.72,50.63,45.77,104.08,58.28,159.88a483.84,483.84,0,0,1,8.53,48.11c.92,7.61,2.11,15.19,3.13,22.79.25,1.9.29,3.83.42,5.74.18,2.88.24,5.76.56,8.62,2.32,20.72,1.93,41.52,1.9,62.31a9.26,9.26,0,0,1-.41,2.82c-.16.49-.8.86-1.3,1.17a1,1,0,0,1-.88-.19c-1.46-1.22-2.91-2.47-4.32-3.75a105.31,105.31,0,0,0-50.67-25.76,101.61,101.61,0,0,0-35.25-1.29,120.81,120.81,0,0,0-48.05,18c-1.88,1.19-3.8,2.32-5.71,3.46a1.61,1.61,0,0,1-2.06-1,2.86,2.86,0,0,1-.07-.28c-.08-3.51-.16-7-.22-10.54-.16-9.91.13-19.85-1.54-29.68a21.21,21.21,0,0,1-.22-2.87c-.38-10.89-2.07-21.61-3.62-32.37a480,480,0,0,0-13.85-63.63,489.38,489.38,0,0,0-27.64-73.52c-1-2-2-4-3.05-6a4.84,4.84,0,0,0-4.61-2.84c-1.91,0-3.83.12-5.75.15q-8.16.15-16.31.26c-20.11.26-39.38-3.94-57.9-11.5-33-13.47-59.1-35.26-77.8-65.71A165.64,165.64,0,0,1,1509,840c.45-7,1.94-13.91,3-20.86.36-2.42-.22-4.46-2.32-5.85s-4.27-2.81-6.48-4.11a491.1,491.1,0,0,0-130-53,458.11,458.11,0,0,0-46-9c-7.88-1.13-15.77-2.48-23.79-2.76-6.06-.21-12.08-1.31-18.14-1.58-6.38-.29-12.79-.07-19.18-.07Zm404.37,212.95c5.42-.3,10.92-.14,16.26-1a105,105,0,0,0,30-9.48c42.26-20.78,65.63-67.79,56.21-113.52-6.65-32.26-24.78-56.35-53.81-72.1a101,101,0,0,0-48.83-12,104.36,104.36,0,0,0-100.77,128c12.58,53.76,60.87,81.43,100.86,80.1Z"/><path class="cls-1" d="M647.56,1319.86a104.92,104.92,0,0,0,85.62.64,114.36,114.36,0,0,0,31.46-20c1.66-1.47,3.45-2.79,5.21-4.14.69-.53,2.1.16,2.26,1.07,1.31,7.22,2.63,14.45,3.9,21.68a468.57,468.57,0,0,0,21.87,80.36,480.6,480.6,0,0,0,54.66,106.38c1.8,2.63,3.78,5.14,5.82,7.59a3.83,3.83,0,0,0,3.47,1.28,26.78,26.78,0,0,0,2.81-.54,173.29,173.29,0,0,1,24.6-3.82,124.71,124.71,0,0,1,29.66.41,220.9,220.9,0,0,1,24.48,4.5c50.39,13.15,100.57,53,116.44,119.74a145.88,145.88,0,0,1,4.36,36.09c-.13,8-.17,8.72,7.93,12.08a483.73,483.73,0,0,0,60.83,20.4,436.52,436.52,0,0,0,43.08,9.2q18.42,3,37.06,4.71c13.09,1.22,26.15,1.67,39.26,1.58,7.77,0,15.24,1.81,22.58,4a89.39,89.39,0,0,1,39.8,24,70.49,70.49,0,0,1,19.49,38.82,62.33,62.33,0,0,1-2.67,29.34,70.55,70.55,0,0,1-21.93,32,87.77,87.77,0,0,1-46.7,20.56c-1.91.24-3.8.54-5.69.87a55.55,55.55,0,0,1-13.39.33c-5.74-.4-11.48-.84-17.22-1.12-8.94-.43-17.86-.84-26.79-1.64-8.59-.78-17.15-1.87-25.73-2.73-8.88-.89-17.74-2.3-26.52-3.94-16-3-32-6.25-47.76-10.26a645.16,645.16,0,0,1-98.72-33.82c-4.09-1.78-8.27-3.36-12.41-5-4.57.69-8.14,3.6-12.07,5.63a163.72,163.72,0,0,1-51.83,16.5c-10.11,1.46-20.39,1.43-30.65,1.16-61.68-1.65-130.53-45.2-149.48-123.53-3.57-14.75-4.49-29.65-4.24-44.73A145.71,145.71,0,0,1,747.3,1624c1.28-4.08,1.26-7.41-1.58-10.67-1.26-1.44-2.3-3.08-3.43-4.62a632,632,0,0,1-94.43-186.58,586.67,586.67,0,0,1-18.46-74.37c-1.65-9.44-3.49-18.85-4.92-28.32-.7-4.71-1.36-9.52-.13-14.29M1006,1671.92c.41-57.12-46.78-103.66-103.39-104-52.63-.28-103.23,40.45-104.86,103.82,1.13,59.34,46.68,103.53,104.26,104.64C967.79,1775.06,1007.24,1721.45,1006,1671.92Z"/><path class="cls-1" d="M444.55,1262.17v1.92c.38,40-16.82,77.85-40.6,103.87-21.72,23.77-48.16,39.75-79.43,47.57a148.43,148.43,0,0,1-48.47,4.47c-39.33-3.24-73.5-18.18-101.61-46.24-22.09-22-36.29-48.44-43.08-78.84-2.73-12.23-3.18-24.69-3.1-37.19.45-67.24,47.14-128.48,112.19-147.83a147.19,147.19,0,0,1,27.17-5.55c6-.61,12-1.48,18.13-1.45,79.18.45,140,55.74,155,123.15C443.87,1239.88,444.57,1245.56,444.55,1262.17Z"/><path class="cls-1" d="M1248.11,2376.52c-86.11.42-158.58-71-157.95-159.26a159.26,159.26,0,0,1,47-112c30.93-30.37,68.46-44.92,111.47-46.11,43.37,1.29,81.2,15.95,112.07,46.92s45.47,68.83,46.64,112.22c-1.24,43.05-15.75,80.68-46.36,111.37C1329.91,2360.85,1292,2376.13,1248.11,2376.52Z"/><path class="cls-1" d="M2375.55,1248.57c-.19,3.58-.09,10.67-1,17.61a160.9,160.9,0,0,1-6.17,27.06,158.14,158.14,0,0,1-151.64,109.89,156.27,156.27,0,0,1-67.62-15.42c-44.45-21.31-75.67-61.66-85.94-107-2.34-10.31-4-20.7-3.86-31.31.09-7-.27-14.12.47-21.09a154.24,154.24,0,0,1,6-30c18.4-58.87,64-93.7,107.49-105.93,9.23-2.6,18.54-4.81,28.19-5.25,2.23-.1,4.44-.53,6.67-.69a102.67,102.67,0,0,1,10.52-.56c37.29,1.13,70.88,12.58,99.76,36.56,28.29,23.5,46.19,53.46,54.2,89.31C2375,1222.71,2375.6,1233.9,2375.55,1248.57Z"/><path class="cls-1" d="M1248.94,124.85c7,.36,14.12.22,21,1.2a158.61,158.61,0,0,1,133.3,122.59c1.41,6.21,2.72,12.49,2.79,18.94,0,2.55.55,5.09.75,7.64a79.86,79.86,0,0,1,.49,8.61c-1.06,36.22-11.65,69.14-34.43,97.67-22.93,28.73-52.27,47.51-88.08,56a123.82,123.82,0,0,1-29.37,3.84c-7,0-14.08.15-21.09-.3a143.71,143.71,0,0,1-33.73-6.72A158.48,158.48,0,0,1,1094.89,322c-3-11.78-4.94-23.78-4.61-36v-2.87c-.67-69.07,45.89-133.54,117-153A152.62,152.62,0,0,1,1248.94,124.85Z"/><path class="cls-1" d="M750.86,844.14c1.44,6.46,2.62,13.07,4.41,19.52C767,906,801.2,932.91,836.21,939.84c4.4.87,8.74,1.88,13.26,1.89a36.3,36.3,0,0,1,4.77.44c5.45.72,6.16,2.18,3,6.62a502.63,502.63,0,0,0-34.78,57.36,485.34,485.34,0,0,0-42.74,116.68c-2.67,11.85-5,23.76-6.79,35.76-1.1,7.56-2.21,15.15-2.77,22.82-.54,7.33-1.12,14.66-1.79,22-2.28,24.65-10.93,46.55-29.3,63.87-8.74,8.25-18.73,14.46-30.42,17.54-6.79,1.79-13.71,3.36-20.81,2.73-16.46-1.46-30.9-7.53-42.85-19.19-11-10.76-18.27-23.74-22.63-38.4-2.28-7.69-3-15.68-3.84-23.61a24.32,24.32,0,0,1,0-6.71c1.79-10.1,1.26-20.4,2.83-30.54,1-6.61,1.49-13.32,2.24-20,1.2-10.49,2.89-20.89,4.75-31.25a638.16,638.16,0,0,1,86.23-224.11q14.38-23.25,30.77-45.17A46.58,46.58,0,0,1,749,844.2C749.38,843.88,750.24,844.14,750.86,844.14Z"/><path class="cls-1" d="M1144.35,603.48c0,2.08-1.6,3.4-2.63,4.93a108.74,108.74,0,0,0-7.65,109.39,111.83,111.83,0,0,0,19.28,27.32c1.53,1.61,3,3.26,4.43,5a1.73,1.73,0,0,1-.29,1.58c-2.72.88-5.46,1.73-8.25,2.36-77.42,17.59-146.67,51.66-207.49,102.76-5.88,4.94-11.6,10-17,15.51A96.19,96.19,0,0,1,884.24,897a80.8,80.8,0,0,1-36,2.67c-26.41-3.82-47.48-23.94-53.41-49.93-4.51-19.78-1.88-38.75,6.66-57a103.73,103.73,0,0,1,24.21-33,637,637,0,0,1,219-130.93,607.91,607.91,0,0,1,85.8-23.49c4.07-.79,8.14-1.58,12.23-2.29C1143.18,602.9,1143.78,603.3,1144.35,603.48Z"/><path class="cls-1" d="M1885.22,1335.29c.58,6.87-1.5,13.4-2,20.09a5,5,0,0,1-.55,1.84c-3.61,7.26-4.52,15.29-6.38,23a642.22,642.22,0,0,1-142.62,273.66c-2.75,3.12-5.57,6.18-8.41,9.21-1.06,1.13-2.09,3-3.76,2.54-1.9-.5-1.28-2.63-1.45-4.15a17.38,17.38,0,0,1,0-1.91c-1.16-45.18-33-87.25-79.25-99.34-5.55-1.46-11.22-2.46-16.83-3.67-2-.42-2.23-1.58-.69-3.41,3.29-3.9,6.65-7.77,9.89-11.72a493,493,0,0,0,95.54-186.3c2.23-8.33,4-16.76,6-25.16a125,125,0,0,1,7.9-23.58,90.94,90.94,0,0,1,29.83-36.85,80.77,80.77,0,0,1,15-8.52,65.23,65.23,0,0,1,22.24-5.35c23.47-1.53,42.53,7,57.16,25.27a80.45,80.45,0,0,1,16.85,39.18C1884.41,1325.19,1885.76,1330.19,1885.22,1335.29Z"/><path class="cls-1" d="M1609.17,1597.92a67,67,0,0,1,34.14,7.94c17.33,9.2,28.49,23.39,33.1,42.46,4.28,17.67,2.24,34.89-4.8,51.55a94.54,94.54,0,0,1-18.18,28,124.71,124.71,0,0,1-17,15.39,633.81,633.81,0,0,1-169.58,89.7,601.65,601.65,0,0,1-77.4,21.58c-8.13,1.67-16.24,3.37-24.37,5a22.18,22.18,0,0,1-3.81.39c-1.49,0-3.34.73-4.18-1.13-.57-1.26.34-2.43,1-3.5a105.37,105.37,0,0,0,14.92-33c2-7.76,3.57-15.56,3.35-23.63v-2.88c.47-27.83-9.37-51.82-27.16-72.82-2.27-2.68-4.78-5.15-7.16-7.74-1.32-1.44-.8-3.28,1-3.63a501.61,501.61,0,0,0,49.33-11.71,483.64,483.64,0,0,0,146-70.34,75.27,75.27,0,0,0,8.18-6.61,92.37,92.37,0,0,1,43.52-22.93,69.39,69.39,0,0,1,8.46-1.63C1602.13,1598,1605.65,1598.05,1609.17,1597.92Z"/></svg>