<svg width="18" height="21" viewBox="0 0 18 21" fill="none" xmlns="http://www.w3.org/2000/svg">
<path d="M18 5.73899C17.9732 6.30159 17.9554 6.86863 17.9197 7.43123C17.8929 7.8122 17.8439 8.19318 17.7859 8.57415C17.7279 8.9507 17.6476 9.31838 17.5673 9.6905C17.4959 10.0183 17.4111 10.3417 17.3263 10.6651C17.2728 10.8822 17.2148 11.0992 17.1479 11.3163C17.081 11.5289 17.0051 11.7327 16.9293 11.9409C16.8847 12.0694 16.8401 12.1978 16.791 12.3263C16.6438 12.694 16.501 13.0661 16.3359 13.4294C16.1976 13.735 16.0326 14.0318 15.872 14.3331C15.7649 14.5369 15.6578 14.7362 15.5374 14.9311C15.4303 15.1127 15.3143 15.2855 15.1983 15.4627C15.1002 15.6133 15.002 15.7639 14.8949 15.9101C14.6942 16.1848 14.4934 16.455 14.2837 16.7208C14.083 16.9733 13.8733 17.2214 13.6592 17.4695C13.5565 17.5891 13.4495 17.6998 13.3379 17.8062C13.0123 18.1162 12.6955 18.4308 12.3609 18.7232C12.0665 18.9801 11.7631 19.2282 11.4508 19.463C11.1162 19.7155 10.7727 19.9635 10.4203 20.1939C10.1615 20.3667 9.8849 20.5084 9.62168 20.6679C9.45215 20.7698 9.28262 20.8761 9.10863 20.9691C9.0551 20.9957 8.96141 21.0134 8.91234 20.9869C8.5822 20.8008 8.25653 20.6103 7.93085 20.411C7.62748 20.2205 7.31965 20.0344 7.02967 19.8262C6.69953 19.5914 6.38278 19.3478 6.07049 19.0953C5.77604 18.8605 5.49498 18.6124 5.21392 18.3555C5.00424 18.165 4.80794 17.9656 4.61164 17.7619C4.38858 17.5271 4.17444 17.2923 3.96475 17.0486C3.79969 16.8581 3.648 16.6588 3.49632 16.4594C3.33571 16.2512 3.1751 16.0475 3.02788 15.8304C2.86728 15.6 2.72005 15.3653 2.56837 15.126C2.45684 14.9488 2.34976 14.7672 2.24715 14.5856C2.1267 14.3685 2.01071 14.147 1.89917 13.9211C1.78764 13.6996 1.68057 13.4781 1.57796 13.2522C1.50212 13.0927 1.43966 12.9288 1.36828 12.7649C1.29244 12.5877 1.22106 12.4105 1.14968 12.2333C1.09614 12.1004 1.04707 11.9631 1.00245 11.8302C0.939995 11.6441 0.886459 11.458 0.828462 11.272C0.75262 11.0239 0.676778 10.7803 0.609858 10.5322C0.538478 10.2487 0.476019 9.9563 0.418022 9.66835C0.34218 9.30952 0.266338 8.94627 0.208342 8.58301C0.163729 8.31279 0.150345 8.03813 0.114654 7.7679C-0.0370298 6.58954 -0.0147233 5.41117 0.0477349 4.23281C0.0611188 3.95815 0.105732 3.6835 0.136961 3.40884C0.150345 3.2848 0.194958 3.25379 0.319874 3.24936C0.859691 3.23607 1.39951 3.23164 1.93486 3.20063C2.30069 3.17848 2.66652 3.12089 3.02788 3.05888C3.39817 2.99243 3.76846 2.91712 4.13428 2.81523C4.46888 2.7222 4.79456 2.59373 5.12469 2.47855C5.27638 2.42539 5.4236 2.37223 5.57082 2.30579C5.90542 2.15074 6.24002 1.99126 6.56569 1.81849C6.83337 1.67673 7.08766 1.51283 7.34642 1.35335C7.48472 1.26475 7.61856 1.16286 7.74794 1.05654C7.98439 0.861624 8.21191 0.657846 8.4439 0.454069C8.58666 0.325601 8.72496 0.192702 8.86326 0.0598042C8.94803 -0.0199347 9.05064 -0.0199347 9.13986 0.0598042C9.38523 0.285731 9.62614 0.516088 9.87598 0.733155C10.1124 0.936933 10.3533 1.14071 10.6076 1.32234C10.8396 1.49068 11.0939 1.628 11.3437 1.77419C11.5445 1.88937 11.7497 2.00012 11.9549 2.10644C12.0665 2.16403 12.1825 2.21276 12.2985 2.26149C12.5795 2.37223 12.8561 2.47855 13.1416 2.58044C13.3379 2.65132 13.5342 2.71777 13.7305 2.77536C13.9491 2.83738 14.1722 2.90383 14.3997 2.9437C14.9083 3.0323 15.4169 3.11646 15.9255 3.18734C16.1352 3.21835 16.3493 3.21835 16.559 3.22278C16.9248 3.23607 17.2951 3.2405 17.6609 3.24936C17.7948 3.25379 17.8394 3.28923 17.8572 3.42213C17.9554 4.18851 17.9911 4.95932 18 5.73899ZM17.0721 5.92062C17.0542 5.34915 17.0408 4.84857 17.023 4.34356C17.0185 4.17965 16.9962 4.1575 16.8311 4.15307C16.3582 4.13535 15.8898 4.12206 15.4214 4.03789C15.0065 3.96701 14.5826 3.92271 14.1677 3.82968C13.7528 3.73666 13.3469 3.60376 12.9409 3.47529C12.6643 3.38669 12.3832 3.28923 12.1155 3.17405C11.7809 3.02787 11.4553 2.87282 11.1385 2.70005C10.7995 2.51399 10.4604 2.3235 10.1392 2.10644C9.7689 1.85836 9.40754 1.59256 9.09079 1.27804C9.05956 1.24703 8.95695 1.25589 8.90341 1.27804C8.84095 1.30462 8.80526 1.3755 8.74727 1.41537C8.42159 1.66344 8.10038 1.91595 7.77024 2.1596C7.60964 2.27478 7.43565 2.38109 7.26612 2.47855C7.05644 2.59816 6.84675 2.71334 6.63261 2.81966C6.40955 2.93041 6.18648 3.0323 5.95449 3.12975C5.67789 3.24493 5.40129 3.35568 5.11577 3.45757C4.90163 3.53288 4.68302 3.59047 4.46442 3.65249C4.29489 3.70122 4.1209 3.74552 3.94691 3.78539C3.63908 3.85626 3.33571 3.94486 3.02342 3.9803C2.49699 4.04675 1.96609 4.08219 1.43966 4.13092C1.34151 4.13978 1.2389 4.14421 1.14075 4.14421C1.02476 4.14421 0.975685 4.19737 0.971224 4.31255C0.962301 4.83085 0.935533 5.35359 0.935533 5.87189C0.935533 6.59397 0.975685 7.31605 1.08276 8.0337C1.14521 8.44569 1.19429 8.8621 1.27905 9.26965C1.36828 9.70822 1.48873 10.1424 1.60473 10.5765C1.70288 10.9397 1.81887 11.2986 1.9304 11.6574C1.97055 11.7903 2.02409 11.9188 2.07763 12.0517C2.1847 12.3042 2.29177 12.5611 2.4033 12.8136C2.51483 13.0661 2.6219 13.3231 2.75574 13.5623C2.98773 13.9831 3.22418 14.3951 3.47847 14.8027C3.67477 15.1172 3.88891 15.4228 4.11198 15.7241C4.29043 15.9633 4.4778 16.1981 4.6741 16.4196C4.96855 16.7563 5.26299 17.0885 5.57528 17.4075C5.79835 17.6378 6.04372 17.8505 6.28909 18.0587C6.58354 18.3112 6.88691 18.5504 7.19474 18.7896C7.38211 18.9314 7.57841 19.0643 7.77917 19.1927C8.14945 19.4364 8.5242 19.6756 8.89895 19.9059C8.94356 19.9325 9.03725 19.9325 9.08633 19.9059C9.22909 19.8351 9.36293 19.7509 9.49677 19.6667C9.83136 19.4497 10.1704 19.237 10.4916 19.0067C10.8084 18.7807 11.1207 18.5371 11.424 18.289C11.6516 18.103 11.8746 17.9036 12.0888 17.6998C12.3431 17.4606 12.6018 17.2214 12.8383 16.9645C13.1461 16.6234 13.445 16.269 13.7261 15.9057C13.9804 15.5823 14.2257 15.2456 14.4533 14.9001C14.6719 14.5679 14.8592 14.2179 15.0555 13.8679C15.3634 13.3231 15.6311 12.756 15.8452 12.1668C15.8943 12.0295 15.9523 11.8922 16.0058 11.7549C16.0772 11.5688 16.153 11.3872 16.2066 11.1967C16.3181 10.8157 16.4162 10.4303 16.5189 10.0449C16.5947 9.75252 16.6795 9.46014 16.7285 9.16334C16.8222 8.5963 16.9159 8.02484 16.9739 7.45338C17.0364 6.93064 17.0453 6.39019 17.0721 5.92062Z" fill="#FFAB40"/>
<path d="M17.0729 5.9206C17.0461 6.39017 17.0372 6.93063 16.9837 7.46665C16.9257 8.03811 16.8365 8.60958 16.7383 9.17661C16.6892 9.47341 16.6045 9.76579 16.5286 10.0582C16.4305 10.4436 16.3279 10.829 16.2163 11.21C16.1628 11.4004 16.0825 11.5821 16.0156 11.7681C15.962 11.9055 15.904 12.0428 15.855 12.1801C15.6408 12.7693 15.3732 13.3363 15.0653 13.8812C14.869 14.2267 14.6817 14.5767 14.463 14.9134C14.24 15.2589 13.9946 15.5912 13.7359 15.919C13.4503 16.2822 13.1559 16.6366 12.8481 16.9777C12.6116 17.2391 12.3529 17.4739 12.0986 17.7131C11.8844 17.9169 11.6614 18.1162 11.4338 18.3023C11.1305 18.5504 10.8226 18.7896 10.5014 19.0199C10.1757 19.2503 9.84114 19.4629 9.50654 19.68C9.37271 19.7686 9.23887 19.8483 9.09611 19.9192C9.04257 19.9458 8.95334 19.9458 8.90873 19.9192C8.52952 19.6889 8.15923 19.4496 7.78894 19.206C7.59265 19.0775 7.39189 18.9446 7.20451 18.8029C6.89668 18.5681 6.59332 18.3244 6.29887 18.0719C6.0535 17.8637 5.81259 17.6511 5.58506 17.4207C5.27277 17.1018 4.97833 16.7651 4.68388 16.4329C4.48758 16.2069 4.29575 15.9766 4.12176 15.7374C3.90315 15.4361 3.68455 15.1349 3.48825 14.8159C3.23396 14.4084 2.99751 13.9964 2.76552 13.5755C2.63168 13.3319 2.52907 13.0794 2.41308 12.8269C2.30155 12.5744 2.19448 12.3219 2.08741 12.0649C2.03387 11.9365 1.98033 11.808 1.94018 11.6707C1.82865 11.3118 1.71266 10.953 1.61451 10.5898C1.49405 10.1556 1.37806 9.72149 1.28883 9.28293C1.20407 8.87537 1.15499 8.45896 1.09254 8.04697C0.985464 7.32932 0.945312 6.60724 0.945312 5.88516C0.945312 5.36686 0.967619 4.84412 0.981003 4.32582C0.985464 4.21064 1.03454 4.15748 1.15053 4.15748C1.24868 4.15748 1.35129 4.15305 1.44944 4.14419C1.98033 4.09546 2.50677 4.06003 3.0332 3.99358C3.34549 3.95371 3.64886 3.86511 3.95669 3.79866C4.13068 3.75879 4.30021 3.71449 4.4742 3.66576C4.6928 3.60374 4.91141 3.54615 5.12555 3.47084C5.40661 3.36895 5.68767 3.25821 5.96427 3.14303C6.1918 3.04557 6.41933 2.94368 6.64239 2.83293C6.85653 2.72661 7.07067 2.61143 7.27589 2.49183C7.44989 2.39437 7.61942 2.28805 7.78002 2.17287C8.11016 1.92922 8.43137 1.68115 8.75705 1.42864C8.81058 1.38434 8.85073 1.31789 8.91319 1.29131C8.96673 1.26916 9.06934 1.2603 9.10057 1.29131C9.41732 1.60584 9.77868 1.87163 10.149 2.11971C10.4702 2.33678 10.8092 2.5317 11.1483 2.71332C11.4651 2.88609 11.7952 3.04114 12.1253 3.18733C12.393 3.30251 12.6696 3.39996 12.9507 3.48856C13.3566 3.61703 13.7626 3.74993 14.1775 3.84296C14.588 3.93599 15.0118 3.98029 15.4311 4.05117C15.8996 4.1309 16.368 4.14419 16.8409 4.16634C17.006 4.1752 17.0283 4.19735 17.0328 4.35683C17.0417 4.84855 17.0551 5.34914 17.0729 5.9206ZM1.86434 6.03578C1.85542 6.03578 1.84649 6.03578 1.83757 6.03578C1.86434 6.91291 1.90449 7.79004 2.05171 8.65831C2.0651 8.7469 2.07402 8.8355 2.09187 8.91967C2.15879 9.2342 2.23017 9.55315 2.30155 9.86768C2.35954 10.1202 2.422 10.3683 2.48892 10.6208C2.52461 10.7625 2.56922 10.9043 2.61384 11.0416C2.6763 11.2232 2.74768 11.4004 2.8146 11.5776C2.92167 11.8612 3.02874 12.1402 3.13581 12.4238C3.18042 12.5389 3.23396 12.6541 3.28749 12.7649C3.40795 13.0041 3.5284 13.2477 3.65778 13.4825C3.79608 13.735 3.93438 13.9831 4.08607 14.2267C4.23775 14.466 4.40282 14.6963 4.56789 14.9267C4.75972 15.188 4.9471 15.4538 5.15678 15.6975C5.49584 16.0829 5.84382 16.4639 6.20518 16.8227C6.47732 17.0929 6.77623 17.3366 7.07068 17.5802C7.25359 17.7308 7.44542 17.8682 7.6328 18.0099C7.78448 18.1251 7.92724 18.2447 8.08339 18.3466C8.34661 18.5194 8.60982 18.6877 8.88196 18.8427C8.9355 18.8738 9.03365 18.8693 9.08718 18.8427C9.26117 18.7497 9.42624 18.639 9.59131 18.5238C9.89468 18.3156 10.2025 18.1118 10.5014 17.8947C10.6977 17.753 10.8806 17.6024 11.0635 17.4429C11.3491 17.1948 11.6435 16.9467 11.9112 16.6765C12.2279 16.362 12.5268 16.0297 12.8168 15.6886C13.0265 15.445 13.2139 15.1747 13.4057 14.9178C13.5262 14.7583 13.6377 14.5944 13.7492 14.4305C13.8518 14.2799 13.95 14.1337 14.0392 13.9742C14.1552 13.7705 14.2667 13.5623 14.3738 13.3496C14.5344 13.0307 14.6995 12.7161 14.8467 12.3883C14.9716 12.1092 15.0698 11.8213 15.1769 11.5333C15.2928 11.21 15.4178 10.891 15.507 10.5632C15.6364 10.0626 15.739 9.55315 15.855 9.04371C15.8594 9.02599 15.8639 9.00827 15.8639 8.99055C15.9308 8.56085 16.0111 8.13114 16.0557 7.70144C16.1003 7.24515 16.1271 6.78001 16.136 6.3193C16.145 5.91174 16.1271 5.49976 16.1182 5.0922C16.1182 4.99917 16.0691 4.94158 15.9665 4.93272C15.6631 4.90614 15.3598 4.88842 15.0564 4.84412C14.5924 4.78211 14.1329 4.7068 13.6734 4.62706C13.4905 4.59605 13.312 4.54289 13.1336 4.48973C12.915 4.42328 12.6964 4.3524 12.4822 4.28152C12.3082 4.22393 12.1342 4.15748 11.9603 4.09103C11.8443 4.04674 11.7238 4.00244 11.6123 3.94928C11.3758 3.83853 11.1394 3.72335 10.9029 3.60374C10.7111 3.50628 10.5193 3.39996 10.3319 3.28922C10.1624 3.18733 9.99283 3.07658 9.83222 2.9614C9.59577 2.79306 9.36378 2.61586 9.13179 2.43867C9.03811 2.36779 8.92658 2.35893 8.84181 2.4431C8.81504 2.46968 8.79274 2.49626 8.76151 2.51841C8.48045 2.71775 8.20385 2.93039 7.9094 3.11202C7.57034 3.32465 7.22682 3.524 6.87438 3.70563C6.62455 3.8341 6.36579 3.94042 6.10257 4.04231C5.66537 4.20621 5.23262 4.37455 4.78649 4.50302C4.39836 4.6182 4.0013 4.70237 3.60425 4.76439C3.0912 4.83969 2.56922 4.87956 2.05618 4.93272C1.90895 4.94601 1.86434 4.97259 1.85988 5.11435C1.85988 5.43331 1.86434 5.73454 1.86434 6.03578Z" fill="white"/>
<path d="M1.8641 6.03579C1.8641 5.73456 1.85964 5.43332 1.8641 5.12766C1.86856 4.9859 1.91318 4.95932 2.0604 4.94603C2.57791 4.8973 3.09542 4.85743 3.60847 4.77769C4.00553 4.7201 4.40704 4.6315 4.79071 4.51632C5.23684 4.38343 5.66959 4.21952 6.1068 4.05561C6.37001 3.95815 6.63323 3.85183 6.8786 3.71894C7.23105 3.53288 7.57903 3.33353 7.91362 3.12532C8.20807 2.93927 8.48467 2.73106 8.76573 2.53171C8.79696 2.50956 8.81927 2.48298 8.84604 2.4564C8.9308 2.37666 9.04679 2.38109 9.13602 2.45197C9.36801 2.62917 9.59999 2.80637 9.83644 2.97471C9.99705 3.08988 10.1666 3.20063 10.3361 3.30252C10.5235 3.41327 10.7153 3.51959 10.9072 3.61705C11.1391 3.73666 11.3756 3.85183 11.6165 3.96258C11.728 4.01574 11.8485 4.06004 11.9645 4.10434C12.1385 4.17079 12.3125 4.23281 12.4865 4.29483C12.7006 4.37014 12.9192 4.44102 13.1378 4.50304C13.3163 4.55619 13.4947 4.60935 13.6776 4.64036C14.1371 4.7201 14.6011 4.79541 15.0606 4.85743C15.364 4.8973 15.6674 4.91945 15.9707 4.94603C16.0733 4.95489 16.118 5.01248 16.1224 5.10551C16.1313 5.51306 16.1536 5.92505 16.1403 6.3326C16.1313 6.79331 16.109 7.25403 16.06 7.71474C16.0153 8.14445 15.935 8.57415 15.8681 9.00386C15.8637 9.02158 15.8637 9.03929 15.8592 9.05701C15.7432 9.56203 15.6451 10.0715 15.5112 10.5765C15.4265 10.9043 15.2971 11.2277 15.1811 11.5466C15.0785 11.8346 14.9759 12.1225 14.8509 12.4016C14.7082 12.7294 14.5431 13.044 14.378 13.3629C14.271 13.5711 14.1639 13.7838 14.0434 13.9875C13.9542 14.1426 13.8516 14.2932 13.7535 14.4438C13.6419 14.6077 13.5304 14.7716 13.4099 14.9311C13.2181 15.1925 13.0307 15.4583 12.8211 15.7019C12.5311 16.043 12.2277 16.3708 11.9154 16.6898C11.6477 16.96 11.3533 17.2037 11.0678 17.4562C10.8848 17.6112 10.7019 17.7663 10.5056 17.908C10.2067 18.1251 9.90336 18.3333 9.59553 18.5371C9.43047 18.6478 9.2654 18.7586 9.09141 18.856C9.03787 18.8871 8.93972 18.8871 8.88619 18.856C8.61405 18.701 8.35083 18.5327 8.08762 18.3599C7.93147 18.258 7.78425 18.134 7.63702 18.0232C7.44965 17.8815 7.25335 17.7441 7.0749 17.5935C6.78045 17.3454 6.48155 17.1062 6.20941 16.836C5.84358 16.4727 5.4956 16.0962 5.161 15.7108C4.94686 15.4671 4.75949 15.2013 4.57211 14.94C4.40704 14.7096 4.24198 14.4793 4.09029 14.24C3.93861 13.9964 3.79585 13.7483 3.66201 13.4958C3.53263 13.261 3.41217 13.0174 3.29172 12.7782C3.23372 12.6674 3.18465 12.5522 3.14003 12.4371C3.0285 12.158 2.92589 11.8745 2.81882 11.5909C2.7519 11.4137 2.68052 11.2365 2.61806 11.0549C2.56899 10.9176 2.52884 10.7758 2.49315 10.6341C2.42623 10.386 2.36377 10.1335 2.30577 9.88098C2.23439 9.56646 2.16301 9.2475 2.09609 8.93298C2.07825 8.84881 2.06932 8.76021 2.05594 8.67161C1.90872 7.80334 1.86856 6.92621 1.8418 6.04908C1.84626 6.03579 1.85518 6.03579 1.8641 6.03579Z" fill="#FFAB40"/>
</svg>
