<svg width="32" height="40" viewBox="0 0 32 40"  xmlns="http://www.w3.org/2000/svg">
<path d="M14.9073 36.9222C11.8666 36.9222 8.83542 36.9222 5.79476 36.9222C4.89767 36.9222 4.71825 36.7431 4.71825 35.8479C4.71825 33.4919 4.71825 31.136 4.71825 28.7801C4.71825 27.9037 4.93544 27.6963 5.8042 27.6963C6.37078 27.6963 6.93736 27.6586 7.50395 27.7058C8.76931 27.8189 9.63807 27.2063 10.3085 26.2168C11.3189 24.7373 11.6683 23.0693 11.7155 21.3071C11.725 20.7228 11.8855 20.0537 11.6494 19.5919C11.4323 19.1679 10.7429 19.0077 10.2896 18.6873C9.58142 18.1784 8.84486 17.6789 8.21217 17.0758C7.68336 16.5763 7.10734 16.1711 6.47465 15.813C4.07612 14.4654 2.16863 12.6278 0.978802 10.1117C0.374447 8.83004 0.0533823 7.47302 0.0156102 6.06888C-0.012719 5.03227 0.00616654 3.99566 0.00616654 2.95905C0.00616654 2.28997 0.280016 2.0261 0.959915 2.0261C1.60204 2.0261 2.25361 2.00726 2.89574 2.03553C3.31123 2.05437 3.51898 1.93186 3.47177 1.47952C3.44344 1.23451 3.46232 0.980066 3.47177 0.725626C3.5001 0.254439 3.70784 0.0471192 4.17999 0.00942431C4.30275 5.74806e-07 4.43496 0 4.55772 0C11.4511 0 18.3446 0 25.238 0C25.3607 0 25.4929 0 25.6157 0C26.1162 0.0282712 26.3334 0.235592 26.3523 0.73505C26.3617 1.01776 26.3712 1.30047 26.3523 1.58319C26.3334 1.91302 26.4845 2.0261 26.7961 2.0261C27.4854 2.01668 28.1842 2.01668 28.8736 2.0261C29.5251 2.0261 29.8179 2.28997 29.8084 2.93078C29.7801 4.37261 29.8179 5.82387 29.6668 7.25627C29.4307 9.49912 28.3731 11.3933 26.8716 13.0519C25.6818 14.3712 24.2465 15.3795 22.6789 16.2088C22.4523 16.3313 22.2257 16.4915 22.0462 16.68C21.0358 17.7355 19.9121 18.6213 18.5618 19.2056C18.2029 19.3563 18.0802 19.5731 18.0802 19.9595C18.0802 21.4861 18.1085 23.0033 18.6373 24.464C18.9961 25.4629 19.4683 26.3959 20.2993 27.0932C20.762 27.4796 21.2719 27.7058 21.8952 27.6963C22.6695 27.6775 23.4344 27.6869 24.2087 27.6963C24.8225 27.7058 25.0869 27.9414 25.0869 28.5539C25.0963 31.07 25.0963 33.5768 25.0869 36.0929C25.0869 36.7243 24.8414 36.9128 24.152 36.9222C21.0736 36.9222 17.9952 36.9222 14.9073 36.9222ZM14.9545 1.38529C11.7816 1.38529 8.59934 1.38529 5.42648 1.38529C5.1243 1.38529 4.85989 1.36644 4.85989 1.79993C4.85989 4.34434 4.78435 6.88875 5.46425 9.37661C6.07805 11.6477 7.06012 13.7304 8.62767 15.502C9.90248 16.9439 11.4323 18.0182 13.3492 18.4328C15.7761 18.9605 17.948 18.3386 19.8366 16.8025C22.8678 14.3335 24.3031 10.9975 24.7847 7.228C25.0019 5.50346 24.9358 3.75064 24.9925 2.01668C25.0114 1.39471 24.983 1.38529 24.3598 1.38529C21.2153 1.38529 18.0802 1.38529 14.9545 1.38529ZM14.9073 35.5463C17.6647 35.5463 20.4126 35.5369 23.17 35.5557C23.576 35.5557 23.7177 35.4332 23.7177 35.0186C23.6988 33.2281 23.6988 31.4376 23.7177 29.6471C23.7271 29.223 23.5571 29.1193 23.1605 29.1193C17.6647 29.1288 12.1783 29.1288 6.6824 29.1193C6.25746 29.1193 6.10638 29.2418 6.11582 29.6848C6.1347 31.4281 6.12526 33.1715 6.12526 34.9149C6.12526 35.5463 6.12526 35.5463 6.78628 35.5463C9.48699 35.5463 12.1971 35.5463 14.9073 35.5463ZM18.7695 27.6492C18.6845 27.4796 18.6562 27.4042 18.609 27.3477C17.8346 26.3488 17.2869 25.2367 17.0792 24.0022C16.8809 22.8054 16.7959 21.5803 16.7015 20.3647C16.6731 19.9689 16.5882 19.8841 16.1727 19.9218C15.3794 19.9877 14.5768 19.9877 13.7741 19.95C13.1414 19.9218 13.1414 19.8746 13.1414 20.5343C13.1414 20.5626 13.1414 20.6003 13.1414 20.6285C13.1603 23.0976 12.6976 25.4347 11.1584 27.4513C11.1301 27.4984 11.1301 27.5644 11.1017 27.6586C13.6514 27.6492 16.1727 27.6492 18.7695 27.6492ZM24.4731 13.2215C24.492 13.2403 24.5203 13.2592 24.5392 13.278C24.6714 13.1838 24.8131 13.099 24.9264 12.9953C27.7687 10.5546 28.6941 7.39763 28.3731 3.78834C28.3636 3.65641 28.1464 3.44908 28.0048 3.43024C27.5893 3.38312 27.1549 3.41139 26.73 3.41139C26.4561 3.41139 26.3334 3.56217 26.3428 3.82604C26.3523 4.03336 26.3428 4.23126 26.3428 4.43858C26.3806 6.76624 26.0406 9.02794 25.2474 11.2237C25.0114 11.9022 24.7375 12.5618 24.4731 13.2215ZM5.30372 13.2875C5.3226 13.2592 5.35093 13.2309 5.36982 13.2121C5.31316 13.0707 5.26594 12.9199 5.19984 12.7786C4.43496 11.1483 3.8967 9.44258 3.6984 7.65207C3.5662 6.42698 3.52842 5.18305 3.48121 3.94854C3.46232 3.56217 3.34901 3.40197 2.96184 3.42081C2.61245 3.43966 2.2725 3.43966 1.92311 3.42081C1.54538 3.40197 1.42262 3.58102 1.43207 3.92969C1.44151 4.42915 1.44151 4.93803 1.43207 5.43749C1.35652 8.58502 2.70688 11.0635 5.01098 13.099C5.08653 13.1744 5.19984 13.2215 5.30372 13.2875Z"/>
</svg>
