<svg width="43" height="30" viewBox="0 0 43 30" fill="none" xmlns="http://www.w3.org/2000/svg">
<path d="M37.5458 17.3079C37.166 17.7018 36.838 18.0545 36.4985 18.4013C36.0669 18.848 35.6237 19.283 35.2036 19.7357C35.1116 19.8356 35.0425 20.0061 35.0425 20.1413C35.0367 21.5109 34.162 22.5338 32.8327 22.6984C32.6715 22.716 32.5564 22.7395 32.5737 22.9511C32.6831 24.3032 31.4976 25.6963 29.8747 25.5317C29.8402 25.5259 29.7999 25.5376 29.7366 25.5435C29.6848 26.4076 29.3683 27.1248 28.6432 27.6009C27.9181 28.0771 27.1527 28.1006 26.3356 27.7714C26.2838 27.9595 26.2492 28.13 26.1974 28.2887C25.7486 29.7289 24.1948 30.4225 22.8827 29.7289C21.9677 29.241 21.0815 28.6943 20.1895 28.1535C19.9765 28.0242 19.8384 28.0359 19.6658 28.2123C19.3953 28.4886 19.0961 28.7354 18.8026 28.9941C17.3927 30.2168 15.4245 29.6407 14.8548 27.8361C14.8375 27.7831 14.8088 27.7361 14.7742 27.6538C13.9858 28.0536 13.1974 28.1123 12.4205 27.6832C11.6609 27.2659 11.2466 26.584 11.1372 25.7257C10.8553 25.7257 10.5905 25.7551 10.3316 25.7198C9.06553 25.567 8.16778 24.603 8.07571 23.298C8.05844 23.0863 8.00665 23.0217 7.79372 23.004C6.00399 22.863 4.99116 20.9936 5.81984 19.3594C5.92918 19.1478 5.91767 19.0361 5.72201 18.9068C5.47456 18.7422 5.25012 18.5482 4.9854 18.3425C4.8588 18.5424 4.74946 18.7246 4.64012 18.9009C4.40417 19.2713 4.09917 19.3594 3.72511 19.1478C2.60293 18.513 1.48651 17.8663 0.364332 17.2197C0.0363106 17.0316 -0.0557657 16.8024 0.0305556 16.432C0.675088 13.5634 1.32538 10.6889 1.96991 7.82022C2.49359 5.48063 3.01727 3.14692 3.54096 0.807327C3.67332 0.225369 4.12794 0.0372607 4.59408 0.407598C6.95353 2.27104 9.31298 4.13448 11.6724 5.99792C11.9889 6.24481 12.0292 6.55637 11.8681 6.93846C12.0292 6.93846 12.1501 6.94434 12.2767 6.93846C14.6476 6.84441 17.0013 6.60927 19.3435 6.24482C19.9305 6.15076 20.4887 6.3036 21.0239 6.53286C21.2656 6.63867 21.4555 6.62103 21.6684 6.49171C22.313 6.09198 23.0035 5.79806 23.7632 5.92738C24.3271 6.02732 24.8738 6.2213 25.4205 6.39177C26.2262 6.64454 27.0204 6.93258 27.8318 7.16772C28.9367 7.49103 29.9783 7.23238 30.9796 6.74448C31.0372 6.71508 31.0832 6.58576 31.066 6.5211C30.9912 6.19779 31.1005 5.96853 31.3422 5.78043C33.6901 3.92286 36.0381 2.05942 38.3918 0.201855C38.8752 -0.180239 39.3298 -0.00388801 39.4622 0.595705C40.1412 3.61719 40.826 6.64455 41.5051 9.66603C41.9943 11.8528 42.4834 14.0337 42.9726 16.2204C43.0531 16.5849 42.9611 16.82 42.633 17.0081C41.5166 17.6547 40.4002 18.3013 39.2722 18.9362C38.8924 19.1537 38.6047 19.0655 38.363 18.6834C38.1098 18.2543 37.8508 17.8134 37.5458 17.3079ZM12.2939 18.3249C12.363 18.2955 12.4378 18.2602 12.5126 18.2249C13.3701 17.8311 14.1988 17.884 14.9642 18.4424C15.6144 18.9186 15.9827 19.5711 16.0288 20.3999C16.0345 20.5351 16.0403 20.6527 16.2244 20.6527C17.5768 20.6644 18.6299 21.846 18.6184 23.0863C18.6184 23.2627 18.7047 23.2862 18.8544 23.298C20.6614 23.4332 21.68 25.2261 20.8916 26.872C20.7995 27.0719 20.8513 27.1424 21.0124 27.2365C21.7605 27.6715 22.5029 28.1182 23.2568 28.5532C23.4179 28.6473 23.6078 28.7237 23.792 28.7472C24.3329 28.8177 24.8451 28.5003 25.035 28.0006C25.2306 27.4834 25.0983 26.9661 24.6321 26.6192C23.9991 26.149 23.3431 25.7022 22.6985 25.2378C21.8814 24.6559 21.0642 24.0739 20.2528 23.4802C19.9708 23.2744 19.896 23.0099 20.0053 22.7395C20.1607 22.3515 20.5693 22.2281 20.9376 22.4867C21.9619 23.1921 22.9805 23.9093 23.9934 24.6265C24.8738 25.2496 25.7486 25.8903 26.6348 26.5075C27.193 26.8955 27.8375 26.8132 28.2461 26.3312C28.718 25.7669 28.5799 24.9909 27.9181 24.5089C26.0651 23.1686 24.212 21.8225 22.3648 20.4822C22.0022 20.2177 21.9159 19.8532 22.1231 19.5534C22.336 19.2419 22.7158 19.2125 23.0899 19.477C23.8898 20.0531 24.6839 20.6292 25.4838 21.2053C26.7499 22.1282 28.0102 23.0452 29.2705 23.974C29.656 24.2561 30.0646 24.3678 30.5193 24.215C30.9739 24.0563 31.2559 23.7153 31.3422 23.2392C31.4285 22.763 31.2904 22.3398 30.8933 22.0459C29.7884 21.217 28.672 20.4058 27.5671 19.5828C26.3816 18.707 25.1961 17.8252 24.0049 16.9434C23.7747 16.773 23.6596 16.5496 23.7402 16.2557C23.8668 15.7913 24.3271 15.6796 24.776 16.0088C27.124 17.7311 29.4719 19.4594 31.8198 21.1876C32.4241 21.6285 33.1607 21.5521 33.5865 20.9936C34.0066 20.4469 33.9088 19.6886 33.3391 19.2184C30.2891 16.673 27.2275 14.1336 24.1775 11.5883C24.0336 11.4707 23.9301 11.4766 23.7689 11.5471C23.1244 11.8175 22.4856 12.1232 21.8123 12.3054C20.0456 12.7874 18.3307 12.6405 16.7424 11.6529C16.5237 11.5177 16.3108 11.312 16.1784 11.0827C15.7813 10.4008 16.0288 9.57197 16.7366 9.17224C17.6401 8.66082 18.5609 8.1788 19.4759 7.67914C19.5622 7.63211 19.6428 7.5792 19.7291 7.5263C19.7233 7.50279 19.7118 7.47339 19.7061 7.44988C19.6255 7.45576 19.5507 7.45576 19.4701 7.46751C16.8057 7.88488 14.124 8.12589 11.425 8.18468C11.1718 8.19055 11.0337 8.28461 10.9013 8.49623C9.33025 11.118 7.75344 13.7339 6.17664 16.3556C5.99248 16.6613 5.81409 16.967 5.62418 17.2903C5.97522 17.5665 6.30324 17.8134 6.62551 18.078C6.78089 18.2073 6.89598 18.2073 7.04561 18.0662C7.47721 17.6665 7.91457 17.2668 8.3692 16.8905C9.4626 15.9911 11.0337 16.2263 11.8336 17.4078C12.0177 17.6782 12.1328 17.9957 12.2939 18.3249ZM34.5418 18.6482C34.6051 18.5894 34.6742 18.5306 34.7317 18.4718C35.3878 17.8017 36.0438 17.1257 36.7056 16.4614C36.8668 16.2968 36.8725 16.1851 36.7574 15.9911C35.9805 14.7214 35.2209 13.4399 34.4498 12.1643C33.6096 10.7712 32.7694 9.38386 31.9407 7.98481C31.8256 7.7967 31.722 7.7438 31.5263 7.84961C31.3595 7.94366 31.1753 8.00245 30.9969 8.07887C29.8114 8.57265 28.6087 8.69609 27.3714 8.30812C26.3183 7.97893 25.2709 7.63799 24.2293 7.27941C23.6308 7.07367 23.0784 7.10306 22.5144 7.41461C20.8398 8.33751 19.1479 9.24278 17.4675 10.1598C17.3639 10.2186 17.2891 10.3185 17.197 10.4008C17.2833 10.4949 17.3524 10.6183 17.4617 10.683C18.5724 11.3414 19.7694 11.4883 21.0182 11.2532C21.9389 11.0827 22.8021 10.73 23.6136 10.248C23.9588 10.0481 24.2523 10.0658 24.5573 10.3303C25.6622 11.2649 26.7844 12.1878 27.9008 13.1166C30.1049 14.9566 32.3148 16.7906 34.5418 18.6482ZM4.53653 1.90658C4.31785 2.87063 4.11068 3.76414 3.90926 4.65766C3.37407 7.04427 2.84463 9.42501 2.30944 11.8116C1.98717 13.2518 1.65915 14.692 1.34264 16.1322C1.32538 16.2204 1.36566 16.3791 1.43472 16.4203C2.23463 16.8964 3.04605 17.3608 3.88049 17.837C4.11068 17.4607 4.32361 17.108 4.54229 16.7495C6.51041 13.4811 8.47854 10.2127 10.4467 6.95022C10.5675 6.75035 10.5445 6.64454 10.3603 6.49758C8.96769 5.41009 7.58655 4.30495 6.19966 3.21158C5.65871 2.78834 5.11776 2.36509 4.53653 1.90658ZM38.4954 1.71847C38.409 1.77138 38.3457 1.79489 38.2997 1.83604C36.4121 3.32915 34.5303 4.82225 32.637 6.30948C32.4816 6.43292 32.4701 6.52698 32.5737 6.69157C33.9951 9.0488 35.4051 11.4119 36.8322 13.7691C37.2811 14.5098 37.7587 15.227 38.2076 15.9676C38.4896 16.432 38.7428 16.914 39.0018 17.3902C39.0939 17.5607 39.1802 17.6077 39.3643 17.5019C40.0952 17.0728 40.8375 16.6613 41.5626 16.2263C41.6375 16.1793 41.7065 16.0147 41.6835 15.9265C41.1656 13.5869 40.6419 11.2532 40.1124 8.91947C39.7211 7.1736 39.3298 5.42772 38.9385 3.68773C38.8004 3.03523 38.6507 2.38861 38.4954 1.71847ZM9.24968 23.0452C9.30147 23.733 9.54893 24.1444 10.0266 24.3855C10.4985 24.6265 10.9473 24.5442 11.3387 24.1973C12.3745 23.2803 13.3989 22.3574 14.4174 21.4169C14.9526 20.929 14.9757 20.2118 14.5095 19.6651C14.0491 19.1243 13.324 19.0303 12.7889 19.5005C11.7185 20.4352 10.6653 21.3875 9.62949 22.3633C9.42232 22.5573 9.336 22.8865 9.24968 23.0452ZM12.3515 25.5082C12.363 26.0138 12.5932 26.3959 13.0306 26.6134C13.4852 26.8367 13.9398 26.7956 14.3196 26.4546C15.2404 25.6434 16.1554 24.8204 17.0531 23.9857C17.5365 23.5331 17.5423 22.7983 17.1107 22.2928C16.6733 21.7872 15.9367 21.7226 15.436 22.1693C14.5325 22.9688 13.6406 23.7859 12.7428 24.5971C12.4723 24.844 12.34 25.1438 12.3515 25.5082ZM6.73485 20.5351C6.73485 21.0171 6.99957 21.4639 7.43117 21.6638C7.88005 21.8695 8.32316 21.8401 8.69722 21.5109C9.37628 20.9231 10.0496 20.3294 10.6941 19.7004C10.8783 19.5182 11.0106 19.2301 11.0624 18.9656C11.1603 18.4483 10.884 17.9722 10.4352 17.7194C9.99204 17.4725 9.47987 17.5195 9.07128 17.8781C8.40948 18.4601 7.75919 19.0479 7.10891 19.6416C6.84994 19.8767 6.72909 20.1824 6.73485 20.5351ZM15.977 27.1953C15.9885 27.6891 16.2129 28.0594 16.6388 28.2828C17.0819 28.5121 17.5308 28.4709 17.9048 28.1476C18.4918 27.6479 19.073 27.1306 19.6313 26.5957C20.0801 26.1666 20.0801 25.42 19.6658 24.9439C19.2457 24.4619 18.5321 24.3737 18.0602 24.7793C17.4675 25.2907 16.892 25.8256 16.3165 26.3547C16.0691 26.5722 15.9712 26.8602 15.977 27.1953Z" fill="#262625"/>
</svg>
