<svg width="43" height="42" viewBox="0 0 43 42" fill="none" xmlns="http://www.w3.org/2000/svg">
<path fill-rule="evenodd" clip-rule="evenodd" d="M35.9761 6.46262C36.4047 6.37568 36.6827 5.95282 36.597 5.51813C36.5113 5.08344 36.0943 4.80153 35.6656 4.88847L30.0686 6.02361C29.6399 6.11055 29.3619 6.53341 29.4477 6.9681C29.5334 7.40279 29.9504 7.6847 30.3791 7.59776L35.9761 6.46262ZM25.5161 19.5305C25.207 19.844 25.207 20.3522 25.5161 20.6657C25.8252 20.9791 26.3264 20.9791 26.6355 20.6657L35.2611 11.9188C35.5703 11.6053 35.5703 11.0971 35.2611 10.7837C34.952 10.4702 34.4508 10.4702 34.1417 10.7837L25.5161 19.5305Z" fill="#262625"/>
<path fill-rule="evenodd" clip-rule="evenodd" d="M17.5879 20.7592C17.897 20.4457 17.897 19.9375 17.5879 19.6241C17.2788 19.3106 16.7776 19.3106 16.4685 19.6241L12.873 23.2701C12.5639 23.5835 12.5639 24.0918 12.873 24.4052C13.1821 24.7187 13.6833 24.7187 13.9924 24.4052L17.5879 20.7592ZM30.7835 7.37819C31.0926 7.06473 31.0926 6.55651 30.7835 6.24305C30.4743 5.9296 29.9732 5.9296 29.6641 6.24305L21.1926 14.8336C20.8835 15.147 20.8835 15.6552 21.1926 15.9687C21.5017 16.2822 22.0029 16.2822 22.312 15.9687L30.7835 7.37819ZM33.9252 11.1937C33.8395 11.6284 34.1175 12.0513 34.5461 12.1382C34.9748 12.2252 35.3918 11.9433 35.4775 11.5086L36.5969 5.8329C36.6827 5.39821 36.4047 4.97535 35.976 4.88841C35.5473 4.80147 35.1303 5.08338 35.0446 5.51807L33.9252 11.1937ZM17.3506 27.8106C17.0415 28.1241 17.0415 28.6323 17.3506 28.9458C17.6597 29.2592 18.1609 29.2592 18.47 28.9458L21.9793 25.3871C22.2885 25.0737 22.2885 24.5655 21.9793 24.252C21.6702 23.9385 21.169 23.9385 20.8599 24.252L17.3506 27.8106Z" fill="#262625"/>
<path fill-rule="evenodd" clip-rule="evenodd" d="M11.7517 23.2671L18.4748 30.0846C18.7835 30.3977 18.7834 30.9 18.4714 31.2164C18.1651 31.5271 17.658 31.5266 17.3554 31.2198L10.6323 24.4022C10.3236 24.0892 10.3236 23.5868 10.6356 23.2705C10.942 22.9598 11.4491 22.9602 11.7517 23.2671ZM9.51288 25.5374L16.236 32.3549C17.1564 33.2883 18.6659 33.2895 19.5908 32.3515C20.521 31.4083 20.5212 29.8896 19.5942 28.9495L12.8711 22.1319C11.9507 21.1986 10.4412 21.1973 9.51621 22.1353C8.58608 23.0785 8.58585 24.5973 9.51288 25.5374Z" fill="#262625"/>
<path fill-rule="evenodd" clip-rule="evenodd" d="M8.3957 30.0807L9.5151 31.2158L12.8733 27.8104L11.7539 26.6753L8.3957 30.0807Z" fill="#262625"/>
<path fill-rule="evenodd" clip-rule="evenodd" d="M15.1116 30.0809L13.9922 28.9458L10.634 32.3512L11.7534 33.4863L15.1116 30.0809Z" fill="#262625"/>
<path fill-rule="evenodd" clip-rule="evenodd" d="M10.6344 36.8919C12.18 35.3246 12.18 32.7836 10.6344 31.2163C9.08887 29.649 6.583 29.649 5.03743 31.2163C3.49185 32.7836 3.49185 35.3246 5.03743 36.8919C6.583 38.4592 9.08887 38.4592 10.6344 36.8919ZM6.15683 32.3514C7.08418 31.411 8.5877 31.411 9.51504 32.3514C10.4424 33.2918 10.4424 34.8164 9.51504 35.7568C8.5877 36.6972 7.08418 36.6972 6.15683 35.7568C5.22949 34.8164 5.22949 33.2918 6.15683 32.3514Z" fill="#262625"/>
<path fill-rule="evenodd" clip-rule="evenodd" d="M23.1899 17.3474C22.8808 17.6609 22.8808 18.1691 23.1899 18.4825C23.499 18.796 24.0002 18.796 24.3093 18.4825L30.7824 11.9185C31.0915 11.6051 31.0915 11.0968 30.7824 10.7834C30.4732 10.4699 29.9721 10.4699 29.663 10.7834L23.1899 17.3474ZM15.1107 25.5401C14.8016 25.8536 14.8016 26.3618 15.1107 26.6753C15.4198 26.9887 15.921 26.9887 16.2301 26.6753L19.7779 23.0776C20.087 22.7642 20.087 22.256 19.7779 21.9425C19.4688 21.6291 18.9676 21.6291 18.6585 21.9425L15.1107 25.5401Z" fill="#262625"/>
<path fill-rule="evenodd" clip-rule="evenodd" d="M7.02393 6.46262C6.59526 6.37568 6.31726 5.95282 6.403 5.51813C6.48873 5.08344 6.90573 4.80153 7.3344 4.88847L12.9314 6.02361C13.3601 6.11054 13.6381 6.53341 13.5523 6.9681C13.4666 7.40279 13.0496 7.68469 12.6209 7.59776L7.02393 6.46262ZM25.6493 27.8107C25.9584 28.1241 25.9584 28.6324 25.6493 28.9458C25.3402 29.2593 24.839 29.2593 24.5299 28.9458L7.73886 11.9188C7.42975 11.6053 7.42975 11.0971 7.73886 10.7837C8.04798 10.4702 8.54915 10.4702 8.85827 10.7837L25.6493 27.8107Z" fill="#262625"/>
<path fill-rule="evenodd" clip-rule="evenodd" d="M12.2165 7.37819C11.9074 7.06473 11.9074 6.55651 12.2165 6.24305C12.5257 5.9296 13.0268 5.9296 13.3359 6.24305L30.127 23.2701C30.4361 23.5835 30.4361 24.0918 30.127 24.4052C29.8179 24.7187 29.3167 24.7187 29.0076 24.4052L12.2165 7.37819ZM9.07479 11.1938C9.16052 11.6284 8.88252 12.0513 8.45386 12.1382C8.02519 12.2252 7.60819 11.9433 7.52246 11.5086L6.40305 5.8329C6.31732 5.39821 6.59532 4.97535 7.02399 4.88841C7.45265 4.80147 7.86965 5.08338 7.95539 5.51807L9.07479 11.1938Z" fill="#262625"/>
<path fill-rule="evenodd" clip-rule="evenodd" d="M31.2483 23.2671L24.5252 30.0846C24.2165 30.3977 24.2166 30.9 24.5286 31.2164C24.8349 31.5271 25.342 31.5266 25.6446 31.2198L32.3677 24.4022C32.6764 24.0892 32.6764 23.5868 32.3644 23.2705C32.058 22.9598 31.5509 22.9602 31.2483 23.2671ZM33.4871 25.5374L26.764 32.3549C25.8436 33.2883 24.3341 33.2895 23.4092 32.3515C22.479 31.4083 22.4788 29.8896 23.4058 28.9495L30.1289 22.1319C31.0493 21.1986 32.5588 21.1973 33.4838 22.1353C34.4139 23.0785 34.4142 24.5973 33.4871 25.5374Z" fill="#262625"/>
<path fill-rule="evenodd" clip-rule="evenodd" d="M34.6043 30.0807L33.4849 31.2158L30.1267 27.8104L31.2461 26.6753L34.6043 30.0807Z" fill="#262625"/>
<path fill-rule="evenodd" clip-rule="evenodd" d="M27.8884 30.0809L29.0078 28.9458L32.366 32.3512L31.2466 33.4863L27.8884 30.0809Z" fill="#262625"/>
<path fill-rule="evenodd" clip-rule="evenodd" d="M32.3656 36.8919C30.82 35.3246 30.82 32.7836 32.3656 31.2163C33.9111 29.649 36.417 29.649 37.9626 31.2163C39.5081 32.7836 39.5081 35.3246 37.9626 36.8919C36.417 38.4592 33.9111 38.4592 32.3656 36.8919ZM36.8432 32.3514C35.9158 31.411 34.4123 31.411 33.485 32.3514C32.5576 33.2918 32.5576 34.8164 33.485 35.7568C34.4123 36.6972 35.9158 36.6972 36.8432 35.7568C37.7705 34.8164 37.7705 33.2918 36.8432 32.3514Z" fill="#262625"/>
<path fill-rule="evenodd" clip-rule="evenodd" d="M27.8893 25.5401C28.1984 25.8536 28.1984 26.3618 27.8893 26.6753C27.5802 26.9887 27.079 26.9887 26.7699 26.6753L12.2176 11.9185C11.9085 11.6051 11.9085 11.0968 12.2176 10.7834C12.5268 10.4699 13.0279 10.4699 13.337 10.7834L27.8893 25.5401Z" fill="#262625"/>
</svg>
