<svg width="174" height="174" viewBox="0 0 174 174" xmlns="http://www.w3.org/2000/svg">
<path d="M137.75 72.5C133.69 72.5 129.848 73.2975 126.222 74.53L104.835 32.625H79.75V43.5H98.165L104.545 55.97L87 95.1925L74.1675 64.8875C76.125 64.1625 77.865 62.205 77.865 59.8125C77.865 56.84 75.4725 54.375 72.5 54.375H58C54.955 54.375 52.49 56.84 52.49 59.8125C52.49 62.785 54.955 65.25 58 65.25H62.4225L78.735 103.312H71.92C69.31 85.9125 54.375 72.5 36.25 72.5C16.24 72.5 0 88.74 0 108.75C0 128.76 16.24 145 36.25 145C54.375 145 69.31 131.588 71.92 114.188H90.625L110.853 68.3675L116.58 79.46C107.445 86.0575 101.5 96.715 101.5 108.75C101.5 128.76 117.74 145 137.75 145C157.76 145 174 128.76 174 108.75C174 88.74 157.76 72.5 137.75 72.5ZM36.25 134.125C22.2575 134.125 10.875 122.743 10.875 108.75C10.875 94.7575 22.2575 83.375 36.25 83.375C48.3575 83.375 58.5075 91.93 60.9725 103.312H29V114.188H60.9725C58.5075 125.57 48.3575 134.125 36.25 134.125ZM137.75 134.125C123.757 134.125 112.375 122.743 112.375 108.75C112.375 100.92 116 94.0325 121.583 89.3925L134.632 114.913L144.202 109.692L131.225 84.3175C133.327 83.81 135.503 83.375 137.75 83.375C151.742 83.375 163.125 94.7575 163.125 108.75C163.125 122.743 151.742 134.125 137.75 134.125Z" />
</svg>
