<svg width="171" height="184" viewBox="0 0 171 184"  xmlns="http://www.w3.org/2000/svg">
<path d="M85.5255 4.49549C92.3815 4.49549 99.1875 4.49549 106.043 4.49549C109.096 4.49549 109.346 4.74522 109.346 7.74196C109.346 13.5856 109.446 19.3793 109.296 25.223C109.246 27.6204 110.147 28.4694 112.549 28.4195C119.305 28.3196 126.061 28.3695 132.817 28.4195C139.923 28.4694 145.128 31.7159 147.93 38.2588C148.831 40.3066 149.031 42.8039 149.031 45.0514C149.131 55.6898 149.081 66.3283 149.081 77.0167C149.081 80.8125 149.432 81.2121 152.985 82.3109C155.387 83.0601 157.739 83.8093 160.041 84.7582C164.345 86.5063 165.946 90.2523 164.695 94.6974C161.142 107.234 157.639 119.82 154.086 132.357C152.885 136.602 151.433 140.747 150.432 145.043C149.832 147.49 148.531 147.99 146.279 147.69C136.02 146.491 127.462 141.846 120.156 134.754C117.353 132.057 117.353 132.057 114.501 134.754C106.144 142.795 96.4351 147.94 84.6247 147.69C73.4149 147.44 64.1567 142.396 56.2999 134.654C53.097 131.457 53.097 132.406 50.8451 134.654C43.889 141.497 35.7819 146.042 26.0233 147.54C21.8697 148.189 21.4693 148.139 20.3183 144.244C17.716 135.403 15.2138 126.513 12.7116 117.672C10.6598 110.33 8.70811 102.938 6.55623 95.5965C4.85473 89.7029 6.70636 86.0568 12.5615 84.0091C14.4632 83.3598 16.3648 82.7105 18.2665 82.261C20.7186 81.6616 21.8196 80.3131 21.7696 77.666C21.6695 66.7778 21.7195 55.8896 21.7195 44.9515C21.7195 37.9591 24.8222 32.7148 31.2279 29.8679C33.4298 28.869 36.0821 28.6193 38.5343 28.5194C45.1401 28.3196 51.6958 28.4694 58.3016 28.4195C61.3042 28.4195 61.5545 28.1198 61.6045 25.0731C61.6045 19.2295 61.7046 13.4358 61.5545 7.59212C61.5044 5.19473 62.4553 4.3956 64.8073 4.44554C71.7134 4.54544 78.6194 4.44554 85.5255 4.49549C85.5255 4.44554 85.5255 4.49549 85.5255 4.49549ZM85.6256 44.3022C70.6124 44.3022 55.5992 44.3522 40.6361 44.2523C38.5343 44.2523 37.6335 44.8516 37.6835 47.0492C37.7836 55.6399 37.6835 64.1806 37.7336 72.7713C37.7336 75.3185 38.3341 75.6681 40.7862 74.869C43.2384 74.0699 45.6405 73.2208 48.0927 72.4217C56.0496 69.7745 64.0066 67.1274 72.0136 64.5802C78.9197 62.3826 85.7257 58.3869 93.2322 62.6823C94.2331 63.2317 95.3841 63.5313 96.4851 63.8809C107.645 67.527 118.755 71.173 129.914 74.8191C132.717 75.768 133.267 75.4184 133.267 72.3717C133.267 64.1307 133.267 55.8896 133.267 47.6486C133.267 44.3522 133.217 44.3522 129.864 44.3522C115.151 44.3022 100.389 44.3022 85.6256 44.3022Z" />
<path d="M151.033 179.506C140.624 179.705 129.464 177.608 118.905 172.363C118.054 171.964 116.703 171.914 115.852 172.313C103.191 178.557 89.8296 180.305 75.9674 178.607C68.9112 177.757 62.1553 175.76 55.6996 172.613C54.6487 172.114 52.9972 171.864 51.9964 172.363C42.3379 177.108 32.0789 179.356 21.3695 179.406C17.2158 179.456 13.0122 179.356 8.85851 179.456C6.65658 179.506 5.60566 178.806 5.70575 176.459C5.80583 173.063 5.80583 169.616 5.70575 166.22C5.6557 164.222 6.4564 163.373 8.5082 163.423C12.9121 163.523 17.366 163.423 21.7698 163.473C32.5293 163.523 42.2378 160.177 51.1957 154.483C52.9472 153.384 54.1983 153.384 55.9498 154.483C71.3633 163.922 87.6777 165.97 104.743 159.477C108.446 158.079 111.949 156.031 115.452 154.183C116.853 153.434 118.004 153.334 119.355 154.233C129.164 160.626 139.923 163.873 151.684 163.473C155.287 163.373 158.84 163.523 162.443 163.423C164.445 163.373 165.396 164.072 165.346 166.17C165.246 169.666 165.246 173.162 165.296 176.659C165.346 178.607 164.395 179.406 162.543 179.406C159.14 179.556 155.737 179.506 151.033 179.506Z" />
</svg>
