<svg width="186" height="186" viewBox="0 0 186 186"  xmlns="http://www.w3.org/2000/svg">
<path d="M139.5 85.25H46.5V46.5H139.5V85.25ZM127.875 131.75C124.792 131.75 121.835 130.525 119.655 128.345C117.475 126.165 116.25 123.208 116.25 120.125C116.25 117.042 117.475 114.085 119.655 111.905C121.835 109.725 124.792 108.5 127.875 108.5C130.958 108.5 133.915 109.725 136.095 111.905C138.275 114.085 139.5 117.042 139.5 120.125C139.5 123.208 138.275 126.165 136.095 128.345C133.915 130.525 130.958 131.75 127.875 131.75ZM58.125 131.75C55.0419 131.75 52.085 130.525 49.9049 128.345C47.7248 126.165 46.5 123.208 46.5 120.125C46.5 117.042 47.7248 114.085 49.9049 111.905C52.085 109.725 55.0419 108.5 58.125 108.5C61.2081 108.5 64.165 109.725 66.3451 111.905C68.5252 114.085 69.75 117.042 69.75 120.125C69.75 123.208 68.5252 126.165 66.3451 128.345C64.165 130.525 61.2081 131.75 58.125 131.75ZM31 124C31 130.82 34.0225 136.943 38.75 141.205V155C38.75 157.055 39.5665 159.027 41.0199 160.48C42.4733 161.934 44.4446 162.75 46.5 162.75H54.25C56.3054 162.75 58.2767 161.934 59.7301 160.48C61.1835 159.027 62 157.055 62 155V147.25H124V155C124 157.055 124.817 159.027 126.27 160.48C127.723 161.934 129.695 162.75 131.75 162.75H139.5C141.555 162.75 143.527 161.934 144.98 160.48C146.433 159.027 147.25 157.055 147.25 155V141.205C151.977 136.943 155 130.82 155 124V46.5C155 19.375 127.255 15.5 93 15.5C58.745 15.5 31 19.375 31 46.5V124Z" />
</svg>
