<svg width="177" height="157" viewBox="0 0 177 157" xmlns="http://www.w3.org/2000/svg">
<path d="M16.965 108.858C17.149 101.417 17.2226 93.9766 17.5906 86.5731C17.7378 83.8944 18.4737 81.2157 19.2465 78.6114C20.0561 75.8956 21.2336 73.3285 22.1904 70.6498C22.7423 69.0873 22.3376 68.4548 20.6816 68.4176C17.0754 68.2688 13.8739 67.3387 11.9236 63.9531C10.1573 60.8652 10.5253 54.7638 14.8675 52.42C16.5602 51.4899 18.2529 51.155 20.1297 51.2295C22.1536 51.3039 24.1775 51.2295 26.2014 51.2295C29.6236 51.2295 29.6972 51.0806 30.8748 47.8439C32.9355 42.1145 34.8858 36.3479 37.3513 30.8046C39.3016 26.4145 42.5398 22.7686 47.2868 21.3176C51.0035 20.1643 54.8305 19.3458 58.6575 18.7505C70.2122 17.002 81.8405 16.3695 93.4688 16.7043C99.9085 16.8904 106.348 17.188 112.751 17.8204C117.535 18.3041 122.355 19.1226 126.992 20.4247C132.88 22.0617 137.112 25.9309 139.393 31.7719C141.748 37.7617 144.14 43.7515 146.422 49.7785C146.863 50.9318 147.526 51.2667 148.629 51.2667C151.316 51.2295 154.039 51.3039 156.725 51.2667C163.533 51.1922 166.845 56.8472 164.968 62.9114C163.864 66.483 160.699 67.9712 157.093 68.3804C153.524 68.7524 153.597 68.7152 154.922 72.138C157.682 79.3555 159.338 86.7591 159.264 94.5347C159.191 106.328 159.227 118.085 159.264 129.878C159.264 133.933 158.271 137.468 154.701 139.812C150.101 142.9 145.612 142.379 141.675 139.179C139.135 137.133 137.7 134.38 137.884 130.957C137.921 129.767 137.884 128.613 137.884 127.423C137.848 125.005 137.48 124.781 135.161 125.079C129.347 125.823 123.496 126.865 117.645 127.051C104.177 127.497 90.7089 128.911 77.2039 127.944C67.5995 127.274 57.9952 126.679 48.4276 125.972C45.8517 125.786 43.3126 125.339 40.7735 125.005C38.8232 124.744 38.492 125.042 38.4552 127.014C38.4184 128.613 38.4184 130.25 38.4184 131.85C38.2712 138.547 30.47 143.346 24.7294 141.374C20.6448 139.96 16.965 135.794 17.0754 130.622C17.2594 123.368 17.1122 116.113 17.1122 108.858C17.1122 108.858 17.0386 108.858 16.965 108.858ZM91.0401 28.2003C76.0999 28.8328 63.6989 28.87 51.4818 31.251C49.4211 31.6603 47.9492 32.5904 47.2132 34.3017C45.7781 37.6129 44.6742 41.0728 43.4598 44.4956C42.3191 47.8067 41.1783 51.0806 40.0744 54.3918C39.412 56.438 38.7496 58.4842 38.1976 60.5676C37.9033 61.7581 38.0505 63.023 39.412 63.5067C40.6263 63.9531 41.8775 64.2508 43.1286 64.5484C44.527 64.8832 45.3365 64.5112 45.8517 62.9486C47.1396 58.819 50.7091 56.252 55.0513 56.1031C57.2592 56.0287 59.4671 56.1404 61.675 56.0659C64.8764 55.9171 67.3419 57.4425 68.9611 59.9723C70.2122 61.9441 70.7642 64.3252 71.6841 66.483C71.9785 67.1155 72.6041 67.6363 73.0457 68.1944C73.4873 67.7479 74.1496 67.4131 74.3336 66.8922C74.7752 65.5529 74.9592 64.1392 75.2536 62.7254C76.0631 59.1167 77.8295 56.2892 81.2517 54.615C84.1956 53.2013 87.2498 53.7965 90.3041 53.6105C95.8974 53.3129 100.681 57.5913 101.344 63.5439C101.491 64.7716 101.859 65.9622 102.264 67.1155C102.411 67.5247 103.11 68.1572 103.331 68.0828C103.883 67.8595 104.508 67.3759 104.729 66.855C105.244 65.4785 105.575 64.0276 105.907 62.6138C106.606 59.8607 111.022 55.6939 114.186 55.9915C116.505 56.2148 118.86 55.9543 121.178 56.0287C125.962 56.1776 129.2 58.5586 130.745 63.1347C131.15 64.3624 131.849 64.7344 132.917 64.5484C134.057 64.3252 135.161 63.8415 136.302 63.6555C138.032 63.3579 138.62 62.2418 138.252 60.7164C137.737 58.633 137.001 56.624 136.302 54.5778C135.235 51.4155 134.168 48.2904 133.101 45.1652C131.813 41.4449 130.672 37.6501 129.2 34.0041C128.574 32.4043 127.213 31.3254 125.226 31.1766C121.951 30.879 118.676 30.1721 115.401 29.9117C106.422 29.2792 97.443 28.684 91.0401 28.2003ZM138.657 81.0297C133.432 80.6576 129.973 85.2709 130.01 89.4005C130.046 94.3486 133.358 98.1062 138.584 98.2178C143.183 98.3294 147.121 94.8323 147.194 89.4749C147.268 85.2337 143.809 80.6949 138.657 81.0297ZM37.8665 81.0297C32.7147 80.6949 29.366 85.3081 29.2924 89.4749C29.2188 94.1254 33.4139 98.5155 37.9033 98.2923C43.055 97.9946 46.4405 94.423 46.4773 89.4749C46.5141 85.1965 42.9446 80.6204 37.8665 81.0297Z" />
<path d="M58.2901 53.7961C52.6968 53.9821 48.5754 49.4433 48.6858 44.0859C48.7594 38.8402 52.2552 34.6734 58.2533 34.5246C64.1411 34.3757 68.0785 39.6587 68.0049 44.3836C67.9313 49.0712 63.6995 54.2054 58.2901 53.7961Z" />
<path d="M118.161 53.7969C112.898 54.2061 108.519 49.0348 108.483 44.3471C108.446 39.585 112.42 34.3393 118.271 34.5253C124.159 34.7113 127.728 38.6549 127.802 44.1239C127.912 49.2952 123.975 53.9457 118.161 53.7969Z" />
<path d="M88.3543 32.4416C93.3957 31.9952 97.8483 36.9433 97.8115 42.0774C97.7747 46.9139 93.7269 51.7132 88.0599 51.676C82.8346 51.6388 78.6763 46.8767 78.7131 41.8914C78.7499 36.7945 83.2025 31.9208 88.3543 32.4416Z" />
</svg>
