<svg width="189" height="189" viewBox="0 0 189 189"  xmlns="http://www.w3.org/2000/svg">
<path d="M94.5 15.75C63 15.75 31.5 19.6875 31.5 47.25V122.062C31.5 137.261 43.8638 149.625 59.0625 149.625L47.25 161.438V165.375H64.8112L80.5612 149.625H110.25L126 165.375H141.75V161.438L129.938 149.625C145.136 149.625 157.5 137.261 157.5 122.062V47.25C157.5 19.6875 129.308 15.75 94.5 15.75ZM59.0625 133.875C52.5263 133.875 47.25 128.599 47.25 122.062C47.25 115.526 52.5263 110.25 59.0625 110.25C65.5988 110.25 70.875 115.526 70.875 122.062C70.875 128.599 65.5988 133.875 59.0625 133.875ZM86.625 78.75H47.25V47.25H86.625V78.75ZM102.375 78.75V47.25H141.75V78.75H102.375ZM129.938 133.875C123.401 133.875 118.125 128.599 118.125 122.062C118.125 115.526 123.401 110.25 129.938 110.25C136.474 110.25 141.75 115.526 141.75 122.062C141.75 128.599 136.474 133.875 129.938 133.875Z" />
</svg>
