<svg width="168" height="168" viewBox="0 0 168 168"  xmlns="http://www.w3.org/2000/svg">
<path d="M68.1908 64.4777C67.8548 64.5449 67.6532 64.5617 67.4852 64.6121C64.478 65.5193 61.4876 66.4097 58.4972 67.3673C58.178 67.4681 57.8252 67.7873 57.6908 68.0897C54.818 74.2217 51.8444 80.3201 49.19 86.5361C47.3588 90.8201 44.4524 91.3745 40.8068 90.6521C39.9668 90.4841 39.1268 90.1985 38.354 89.8289C36.2204 88.7873 35.1452 86.4689 35.5484 83.6969C35.7164 82.5545 36.002 81.3785 36.4892 80.3201C39.5804 73.5161 42.7724 66.7625 45.8636 59.9585C47.1908 57.0353 49.4924 55.2713 52.4156 54.3473C60.6308 51.7769 68.8964 49.3241 77.162 46.8545C78.6908 46.4009 80.2196 45.8465 81.782 45.7121C87.3428 45.2249 91.526 47.5433 94.3652 52.3481C95.6756 54.5657 96.9524 56.8001 98.2964 58.9841C101.018 63.4193 103.79 67.8377 106.512 72.2729C106.831 72.7937 107.2 73.0457 107.822 73.1465C114.861 74.3393 121.884 75.5825 128.923 76.7921C131.359 77.2121 132.837 78.7409 133.358 81.0425C133.694 82.4873 133.761 84.0329 133.694 85.5281C133.61 87.5441 132.434 88.9385 130.62 89.7953C128.772 90.6521 126.823 90.7529 124.857 90.4169C117.264 89.1233 109.687 87.8465 102.11 86.4689C99.3044 85.9649 97.322 84.1169 95.7764 81.8489C94.634 80.1857 93.6428 78.4385 92.5676 76.7249C92.4332 76.4897 92.2652 76.2713 92.0132 75.9017C91.5092 77.9513 91.1228 79.8665 90.5852 81.7313C89.3756 85.9817 88.1156 90.2153 86.8052 94.4321C86.6204 95.0369 86.906 95.2385 87.242 95.5241C91.1564 98.8673 95.0708 102.227 99.002 105.554C100.665 106.948 101.824 108.729 102.933 110.543C103.807 112.005 103.689 113.685 103.824 115.281C104.496 123.547 105.134 131.795 105.772 140.061C105.957 142.396 105.554 144.647 104.26 146.646C103.236 148.243 101.791 149.2 99.9092 149.251C97.154 149.335 94.4828 148.948 92.2484 147.1C91.0388 146.109 90.4004 144.798 90.2828 143.236C89.6108 134.718 88.9556 126.218 88.25 117.7C88.2164 117.297 88.0148 116.81 87.7292 116.558C83.9996 113.332 80.2532 110.14 76.5068 106.948C76.3892 106.847 76.2548 106.763 76.0196 106.612C75.6668 109.098 75.3308 111.467 74.9948 113.836C74.6588 116.222 74.4236 118.624 73.9532 120.976C73.4492 123.546 72.3908 125.865 70.5596 127.881C64.8476 134.147 59.2532 140.531 53.5916 146.848C51.8108 148.83 49.7108 150.309 46.9556 150.594C45.5276 150.746 44.1836 150.443 43.1084 149.503C41.1764 147.806 39.7148 145.79 39.1268 143.236C38.6564 141.203 39.1772 139.423 40.5716 137.877C46.3508 131.409 52.13 124.924 57.9092 118.473C58.4132 117.902 58.6988 117.314 58.7996 116.558C59.8748 108.578 61.0004 100.581 62.0756 92.6009C62.378 90.2993 62.3444 87.9305 62.8484 85.6961C64.1084 80.2361 65.5868 74.8433 66.9812 69.4169C67.3508 67.8209 67.754 66.2249 68.1908 64.4777Z" />
<path d="M89.0398 17.3372C96.5998 17.2028 102.782 23.2508 102.9 30.9116C103.017 38.186 96.9358 44.5196 89.695 44.654C81.9838 44.8052 75.7006 38.8916 75.5662 31.3652C75.4486 23.6708 81.379 17.4716 89.0398 17.3372Z" />
</svg>
